<svg id="Camada_1" data-name="Camada 1" xmlns="http://www.w3.org/2000/svg" xmlns:xlink="http://www.w3.org/1999/xlink" viewBox="0 0 207.88 46.99"><defs><style>.cls-1{fill:url(#Gradiente_sem_nome_74);}.cls-2{fill:url(#Gradiente_sem_nome_74-2);}.cls-3{fill:none;stroke-miterlimit:10;stroke-width:2px;stroke:url(#Gradiente_sem_nome_74-2);}</style><linearGradient id="Gradiente_sem_nome_74" x1="-110.43" y1="-538.69" x2="-69.88" y2="-538.69" gradientTransform="translate(-453.62 288.38) rotate(70.84)" gradientUnits="userSpaceOnUse"><stop offset="0" stop-color="#5e38ff"/><stop offset="0.3" stop-color="#6745fc"/><stop offset="0.85" stop-color="#7d66f4"/><stop offset="1" stop-color="#8471f1"/></linearGradient><linearGradient id="Gradiente_sem_nome_74-2" x1="45.42" y1="23.51" x2="206.72" y2="23.51" gradientTransform="matrix(1, 0, 0, 1, 0, 0)" xlink:href="#Gradiente_sem_nome_74"/></defs><path class="cls-1" d="M1.15,20.06,38.29.62a2.14,2.14,0,0,1,3.09,2.3l-8.05,41.2a2.13,2.13,0,0,1-4.1.3c-2.18-6.17-5.48-14.12-8.82-16.61S8.54,24.42,2,24.09A2.14,2.14,0,0,1,1.15,20.06Z"/><path class="cls-2" d="M54.14,1.05H65.87A24.62,24.62,0,0,1,76.34,3.16,16.3,16.3,0,0,1,83.43,9.3,17.63,17.63,0,0,1,86,18.91,24.52,24.52,0,0,1,82.1,32.48a25.85,25.85,0,0,1-10.77,9.35A34.68,34.68,0,0,1,56,45.17H45.42Zm1.52,39.7A30,30,0,0,0,69,38a19.63,19.63,0,0,0,8.53-7.64A21.74,21.74,0,0,0,80.41,19q0-6.39-4.14-10T64.74,5.47H58.37L51.43,40.75Z"/><path class="cls-2" d="M91.92,34.64a21.62,21.62,0,0,1,2.36-9.58,20.58,20.58,0,0,1,6.17-7.62,13.38,13.38,0,0,1,8.08-2.83,8.23,8.23,0,0,1,5.26,1.51,5.08,5.08,0,0,1,1.91,4.24,8.09,8.09,0,0,1-2.21,5.38,19.49,19.49,0,0,1-6.66,4.57,43.22,43.22,0,0,1-9.61,3.07v.87a8.64,8.64,0,0,0,1.52,5.53A5.13,5.13,0,0,0,103,41.65a11.7,11.7,0,0,0,4.48-1,20.88,20.88,0,0,0,4.6-2.68l.94,4.17A19.52,19.52,0,0,1,107.83,45a16.09,16.09,0,0,1-5.57,1,9.7,9.7,0,0,1-7.57-3A11.87,11.87,0,0,1,91.92,34.64Zm15.83-15.73c-2,0-3.88,1-5.78,3.12a18.33,18.33,0,0,0-4.07,7.48A31.68,31.68,0,0,0,107,25.86c2.24-1.45,3.36-2.94,3.36-4.49a2.63,2.63,0,0,0-.61-1.7A2.47,2.47,0,0,0,107.75,18.91Z"/><path class="cls-2" d="M127.64,45.5q-1.33-7.14-2.36-14.57A154,154,0,0,1,124,15.39h5.24a143.12,143.12,0,0,0,1.32,18.15l.78,6.14L134.65,34A118.21,118.21,0,0,0,144,15.39h5.37q-1.56,3.95-3.51,7.78c-1.3,2.57-2.7,5.13-4.18,7.69s-4.48,7.44-9,14.64Z"/><path class="cls-2" d="M152.21,37A24.33,24.33,0,0,1,155,26a22,22,0,0,1,7-8.43,15.86,15.86,0,0,1,9.22-2.94,39.17,39.17,0,0,1,4.46.39,33.66,33.66,0,0,0,4.59.39l-4.36,20.45a21.22,21.22,0,0,0-.52,4.49,8.6,8.6,0,0,0,.84,4.1L171.65,46a8.59,8.59,0,0,1-1.13-4.39,13.44,13.44,0,0,1,.36-3.17h-.16A20.73,20.73,0,0,1,165.24,44a10.78,10.78,0,0,1-6,2,6.29,6.29,0,0,1-5.17-2.37A10.37,10.37,0,0,1,152.21,37Zm5.29-.58a8.23,8.23,0,0,0,.76,3.89,2.47,2.47,0,0,0,2.28,1.37c1.23,0,2.71-.71,4.46-2.13A24.84,24.84,0,0,0,169.89,34a18.82,18.82,0,0,0,2.89-6.38l1.78-8.34a18.15,18.15,0,0,0-4.1-.51,9.47,9.47,0,0,0-6.11,2.6,19,19,0,0,0-5,6.76A20,20,0,0,0,157.5,36.39Z"/><path class="cls-2" d="M185.88,39.23A13.76,13.76,0,0,0,189.33,41a11.16,11.16,0,0,0,3.69.64,6.91,6.91,0,0,0,4.06-1.06,3.58,3.58,0,0,0,1.5-3.11,4.8,4.8,0,0,0-1.11-3,18.2,18.2,0,0,0-3.67-3.18,12.12,12.12,0,0,1-3.6-3.52A7.8,7.8,0,0,1,189,23.47,7.91,7.91,0,0,1,191.93,17a11.8,11.8,0,0,1,7.78-2.43,16.44,16.44,0,0,1,4,.5,9.55,9.55,0,0,1,3,1.22l-1.19,4.29a15.27,15.27,0,0,0-3-1.21,11.3,11.3,0,0,0-3.15-.5,6.89,6.89,0,0,0-4,1A3.45,3.45,0,0,0,194,23a4.48,4.48,0,0,0,1,2.87A17.41,17.41,0,0,0,198.77,29a12.51,12.51,0,0,1,3.59,3.55,7.94,7.94,0,0,1,1.19,4.33,8.26,8.26,0,0,1-3,6.62A11.56,11.56,0,0,1,192.83,46a15.25,15.25,0,0,1-8.08-2.45Z"/><path class="cls-3" d="M54.14,1.05H65.87A24.62,24.62,0,0,1,76.34,3.16,16.3,16.3,0,0,1,83.43,9.3,17.63,17.63,0,0,1,86,18.91,24.52,24.52,0,0,1,82.1,32.48a25.85,25.85,0,0,1-10.77,9.35A34.68,34.68,0,0,1,56,45.17H45.42Zm1.52,39.7A30,30,0,0,0,69,38a19.63,19.63,0,0,0,8.53-7.64A21.74,21.74,0,0,0,80.41,19q0-6.39-4.14-10T64.74,5.47H58.37L51.43,40.75Z"/><path class="cls-3" d="M91.92,34.64a21.62,21.62,0,0,1,2.36-9.58,20.58,20.58,0,0,1,6.17-7.62,13.38,13.38,0,0,1,8.08-2.83,8.23,8.23,0,0,1,5.26,1.51,5.08,5.08,0,0,1,1.91,4.24,8.09,8.09,0,0,1-2.21,5.38,19.49,19.49,0,0,1-6.66,4.57,43.22,43.22,0,0,1-9.61,3.07v.87a8.64,8.64,0,0,0,1.52,5.53A5.13,5.13,0,0,0,103,41.65a11.7,11.7,0,0,0,4.48-1,20.88,20.88,0,0,0,4.6-2.68l.94,4.17A19.52,19.52,0,0,1,107.83,45a16.09,16.09,0,0,1-5.57,1,9.7,9.7,0,0,1-7.57-3A11.87,11.87,0,0,1,91.92,34.64Zm15.83-15.73c-2,0-3.88,1-5.78,3.12a18.33,18.33,0,0,0-4.07,7.48A31.68,31.68,0,0,0,107,25.86c2.24-1.45,3.36-2.94,3.36-4.49a2.63,2.63,0,0,0-.61-1.7A2.47,2.47,0,0,0,107.75,18.91Z"/><path class="cls-3" d="M127.64,45.5q-1.33-7.14-2.36-14.57A154,154,0,0,1,124,15.39h5.24a143.12,143.12,0,0,0,1.32,18.15l.78,6.14L134.65,34A118.21,118.21,0,0,0,144,15.39h5.37q-1.56,3.95-3.51,7.78c-1.3,2.57-2.7,5.13-4.18,7.69s-4.48,7.44-9,14.64Z"/><path class="cls-3" d="M152.21,37A24.33,24.33,0,0,1,155,26a22,22,0,0,1,7-8.43,15.86,15.86,0,0,1,9.22-2.94,39.17,39.17,0,0,1,4.46.39,33.66,33.66,0,0,0,4.59.39l-4.36,20.45a21.22,21.22,0,0,0-.52,4.49,8.6,8.6,0,0,0,.84,4.1L171.65,46a8.59,8.59,0,0,1-1.13-4.39,13.44,13.44,0,0,1,.36-3.17h-.16A20.73,20.73,0,0,1,165.24,44a10.78,10.78,0,0,1-6,2,6.29,6.29,0,0,1-5.17-2.37A10.37,10.37,0,0,1,152.21,37Zm5.29-.58a8.23,8.23,0,0,0,.76,3.89,2.47,2.47,0,0,0,2.28,1.37c1.23,0,2.71-.71,4.46-2.13A24.84,24.84,0,0,0,169.89,34a18.82,18.82,0,0,0,2.89-6.38l1.78-8.34a18.15,18.15,0,0,0-4.1-.51,9.47,9.47,0,0,0-6.11,2.6,19,19,0,0,0-5,6.76A20,20,0,0,0,157.5,36.39Z"/><path class="cls-3" d="M185.88,39.23A13.76,13.76,0,0,0,189.33,41a11.16,11.16,0,0,0,3.69.64,6.91,6.91,0,0,0,4.06-1.06,3.58,3.58,0,0,0,1.5-3.11,4.8,4.8,0,0,0-1.11-3,18.2,18.2,0,0,0-3.67-3.18,12.12,12.12,0,0,1-3.6-3.52A7.8,7.8,0,0,1,189,23.47,7.91,7.91,0,0,1,191.93,17a11.8,11.8,0,0,1,7.78-2.43,16.44,16.44,0,0,1,4,.5,9.55,9.55,0,0,1,3,1.22l-1.19,4.29a15.27,15.27,0,0,0-3-1.21,11.3,11.3,0,0,0-3.15-.5,6.89,6.89,0,0,0-4,1A3.45,3.45,0,0,0,194,23a4.48,4.48,0,0,0,1,2.87A17.41,17.41,0,0,0,198.77,29a12.51,12.51,0,0,1,3.59,3.55,7.94,7.94,0,0,1,1.19,4.33,8.26,8.26,0,0,1-3,6.62A11.56,11.56,0,0,1,192.83,46a15.25,15.25,0,0,1-8.08-2.45Z"/></svg>