<svg id="Camada_1" data-name="Camada 1" xmlns="http://www.w3.org/2000/svg" viewBox="0 0 524.68 463.22"><defs><style>.cls-1{fill:#e6e6e6;}.cls-2{fill:#fff;}.cls-3{fill:#ccc;}.cls-4{fill:#5e38ff;}.cls-5{fill:#3f3d56;}.cls-6{fill:#e069b0;}.cls-7{fill:#ffb8b8;}.cls-8{fill:#2f2e41;}.cls-9{opacity:0.2;isolation:isolate;}.cls-10{fill:#282838;}.cls-11{fill:#edaeae;}.cls-12{fill:#3e4160;}.cls-13{fill:#575a89;}</style></defs><path class="cls-1" d="M203.58,11.93l2.07-3.19a49.11,49.11,0,0,0-2.12-4.95l-1.34,1.07,1.06-1.63c-1-2-1.8-3.23-1.8-3.23a45.74,45.74,0,0,0-5.52,13.42l2.65,4.1-2.93-2.37a17.78,17.78,0,0,0-.16,2.42c0,8.18,2.67,14.81,6,14.81s6-6.63,6-14.81a25.86,25.86,0,0,0-1.37-7.64Z"/><path class="cls-1" d="M218.19,19l3.71-.8a50.16,50.16,0,0,0,2-5L222.2,13l1.9-.41c.69-2.11,1-3.55,1-3.55a45.79,45.79,0,0,0-13.39,5.58l-1,4.77-.4-3.75a21.38,21.38,0,0,0-1.83,1.6c-5.78,5.79-8.58,12.36-6.25,14.69s8.9-.47,14.69-6.25a25.35,25.35,0,0,0,4.43-6.37Z"/><path class="cls-1" d="M219.54,50.65c-8.61.55-18,0-28,0V27.8a100.71,100.71,0,0,0,28,0Z"/><path class="cls-1" d="M281.15,68.47l1.34-2.08a31.66,31.66,0,0,0-1.38-3.23l-.87.71.69-1.07c-.66-1.29-1.17-2.11-1.17-2.11a30,30,0,0,0-3.6,8.76l1.72,2.67L276,70.57a14.11,14.11,0,0,0-.1,1.58c0,5.34,1.74,9.66,3.89,9.66s3.89-4.32,3.89-9.66a16.63,16.63,0,0,0-.89-5Z"/><path class="cls-1" d="M290.67,73.1l2.42-.52a29.57,29.57,0,0,0,1.31-3.26l-1.11-.12,1.24-.27c.45-1.38.66-2.32.66-2.32a30.11,30.11,0,0,0-8.74,3.65l-.66,3.11-.26-2.45a13.26,13.26,0,0,0-1.2,1c-3.77,3.77-5.59,8-4.07,9.57s5.81-.3,9.58-4.07a16.8,16.8,0,0,0,2.89-4.15Z"/><path class="cls-1" d="M291.55,93.73c-5.61.36-11.73,0-18.24,0V78.82a65.55,65.55,0,0,0,18.24,0Z"/><path class="cls-1" d="M288.09,137.9c-5,.31-10.36,0-16.11,0V124.74a58.73,58.73,0,0,0,16.11,0Z"/><rect class="cls-1" x="99.61" y="49.05" width="216.77" height="6.06"/><rect class="cls-1" x="99.61" y="92.04" width="216.77" height="6.06"/><rect class="cls-1" x="99.61" y="135.03" width="216.77" height="6.06"/><circle class="cls-1" cx="280.05" cy="117.47" r="12.11"/><circle class="cls-2" cx="280.05" cy="117.47" r="9.69"/><circle class="cls-1" cx="280.05" cy="117.47" r="2.42"/><rect class="cls-1" x="278.84" y="116.86" width="9.69" height="1.21"/><rect class="cls-1" x="279.45" y="108.99" width="1.21" height="9.69"/><rect class="cls-1" x="202.01" y="62.5" width="8.01" height="31.72"/><rect class="cls-3" x="202.01" y="67.51" width="8.01" height="3.67"/><rect class="cls-3" x="202.01" y="83.53" width="8.01" height="3.67"/><rect class="cls-1" x="189.66" y="62.5" width="8.01" height="31.72"/><rect class="cls-3" x="189.66" y="67.51" width="8.01" height="3.67"/><rect class="cls-3" x="189.66" y="83.53" width="8.01" height="3.67"/><rect class="cls-1" x="216.37" y="62.5" width="8.01" height="31.72" transform="translate(-11.89 105.91) rotate(-26.34)"/><rect class="cls-3" x="212.37" y="68.44" width="8.01" height="3.67" transform="translate(-8.72 103.3) rotate(-26.34)"/><rect class="cls-3" x="219.48" y="82.81" width="8.01" height="3.67" transform="translate(-14.35 107.95) rotate(-26.34)"/><rect class="cls-1" x="130.56" y="105.49" width="8.01" height="31.72"/><rect class="cls-3" x="130.56" y="110.5" width="8.01" height="3.67"/><rect class="cls-3" x="130.56" y="126.52" width="8.01" height="3.67"/><rect class="cls-1" x="118.21" y="105.49" width="8.01" height="31.72"/><rect class="cls-3" x="118.21" y="110.5" width="8.01" height="3.67"/><rect class="cls-3" x="118.21" y="126.52" width="8.01" height="3.67"/><rect class="cls-1" x="144.92" y="105.49" width="8.01" height="31.72" transform="translate(-38.38 78.68) rotate(-26.34)"/><rect class="cls-3" x="140.92" y="111.43" width="8.01" height="3.67" transform="translate(-35.21 76.06) rotate(-26.34)"/><rect class="cls-3" x="148.03" y="125.8" width="8.01" height="3.67" transform="translate(-40.85 80.71) rotate(-26.34)"/><rect class="cls-1" x="205.65" y="105.49" width="8.01" height="31.72"/><rect class="cls-3" x="205.65" y="110.5" width="8.01" height="3.67"/><rect class="cls-3" x="205.65" y="126.52" width="8.01" height="3.67"/><rect class="cls-1" x="193.29" y="105.49" width="8.01" height="31.72"/><rect class="cls-3" x="193.29" y="110.5" width="8.01" height="3.67"/><rect class="cls-3" x="193.29" y="126.52" width="8.01" height="3.67"/><rect class="cls-1" x="220" y="105.49" width="8.01" height="31.72" transform="translate(-30.58 111.99) rotate(-26.34)"/><rect class="cls-3" x="216" y="111.43" width="8.01" height="3.67" transform="translate(-27.42 109.38) rotate(-26.34)"/><rect class="cls-3" x="223.11" y="125.8" width="8.01" height="3.67" transform="translate(-33.05 114.02) rotate(-26.34)"/><rect class="cls-1" x="267.58" y="19.41" width="31.85" height="31.85"/><rect class="cls-3" x="273.95" y="25.78" width="19.11" height="19.11"/><polygon class="cls-1" points="279.48 32.2 283.53 39.21 287.58 46.23 279.48 46.23 271.38 46.23 275.43 39.21 279.48 32.2"/><polygon class="cls-1" points="286.52 33.54 290.57 40.55 294.62 47.57 286.52 47.57 278.42 47.57 282.47 40.55 286.52 33.54"/><circle class="cls-1" cx="289.37" cy="29.13" r="2.35"/><rect class="cls-1" x="106.51" y="19.41" width="31.85" height="31.85"/><rect class="cls-3" x="112.88" y="25.78" width="19.11" height="19.11"/><polygon class="cls-1" points="118.41 32.2 122.47 39.21 126.52 46.23 118.41 46.23 110.31 46.23 114.36 39.21 118.41 32.2"/><polygon class="cls-1" points="125.45 33.54 129.51 40.55 133.56 47.57 125.45 47.57 117.35 47.57 121.4 40.55 125.45 33.54"/><circle class="cls-1" cx="128.3" cy="29.13" r="2.35"/><path class="cls-4" d="M42.52,236.57l2.06-3.18a47.08,47.08,0,0,0-2.12-5l-1.33,1.08,1-1.63c-1-2-1.79-3.23-1.79-3.23a45.74,45.74,0,0,0-5.52,13.42l2.64,4.09-2.93-2.37a19.83,19.83,0,0,0-.16,2.43c0,8.18,2.67,14.8,6,14.8s6-6.62,6-14.8A25.18,25.18,0,0,0,45,234.58Z"/><path class="cls-4" d="M57.12,243.66l3.71-.79a50.16,50.16,0,0,0,2-5l-1.71-.18,1.9-.41c.69-2.12,1-3.56,1-3.56a46,46,0,0,0-13.4,5.59l-1,4.77-.4-3.75a19.77,19.77,0,0,0-1.83,1.6c-5.78,5.78-8.58,12.36-6.25,14.69s8.91-.47,14.69-6.25A25.83,25.83,0,0,0,60.28,244Z"/><path class="cls-5" d="M58.47,275.3c-8.61.55-18,0-28,0V252.45a100.71,100.71,0,0,0,28,0Z"/><rect class="cls-1" x="297.91" y="282.47" width="116.26" height="150.77"/><rect class="cls-1" x="55.1" y="290.34" width="6.06" height="142.9"/><rect class="cls-1" y="272.18" width="414.17" height="12.11"/><rect class="cls-1" x="52.07" y="284.29" width="12.11" height="12.11"/><polygon class="cls-5" points="365.2 291.25 364.52 293.98 347.57 293.98 346.54 291.25 303.36 291.25 303.36 319.11 408.72 319.11 408.72 291.25 365.2 291.25"/><polygon class="cls-5" points="365.2 326.37 364.52 329.1 347.57 329.1 346.54 326.37 303.36 326.37 303.36 354.23 408.72 354.23 408.72 326.37 365.2 326.37"/><polygon class="cls-5" points="365.2 361.49 364.52 364.22 347.57 364.22 346.54 361.49 303.36 361.49 303.36 389.35 408.72 389.35 408.72 361.49 365.2 361.49"/><polygon class="cls-5" points="365.2 396.61 364.52 399.34 347.57 399.34 346.54 396.61 303.36 396.61 303.36 424.47 408.72 424.47 408.72 396.61 365.2 396.61"/><polygon class="cls-1" points="224.65 270.36 188.92 270.36 190.13 254.62 223.44 254.62 224.65 270.36"/><rect class="cls-1" x="187.1" y="268.55" width="39.96" height="3.63"/><path class="cls-5" d="M275.21,153.2H138.66a3.63,3.63,0,0,0-3.63,3.63h0v83.26H278.84V156.83a3.63,3.63,0,0,0-3.63-3.63Z"/><path class="cls-1" d="M135,240.09v13.62a3.63,3.63,0,0,0,3.63,3.63H275.21a3.63,3.63,0,0,0,3.63-3.63h0V240.09Z"/><rect class="cls-2" x="142.3" y="160.76" width="129.58" height="72.66"/><circle class="cls-5" cx="207.09" cy="248.56" r="3.63"/><path class="cls-5" d="M514.39,432.34c-13.24.84-27.66,0-43,0V397.22c13.52,2.1,27.93,1.89,43,0Z"/><polygon class="cls-5" points="494.4 400.37 490.77 400.37 491.98 329.4 493.19 329.4 494.4 400.37"/><polygon class="cls-5" points="510.75 400.85 507.12 400.85 508.33 329.88 509.54 329.88 510.75 400.85"/><polygon class="cls-5" points="479.87 400.85 476.24 400.85 477.45 329.88 478.66 329.88 479.87 400.85"/><path class="cls-1" d="M497.43,284l5.87-9.07a136.32,136.32,0,0,0-6-14.08l-3.79,3.06,3-4.64c-2.86-5.63-5.11-9.18-5.11-9.18s-11.77,18.53-15.7,38.16l7.53,11.63-8.33-6.73a54.86,54.86,0,0,0-.46,6.89c0,23.24,7.59,42.09,17,42.09s16.95-18.85,16.95-42.09a72.31,72.31,0,0,0-3.88-21.71Z"/><path class="cls-4" d="M513.78,285.2l5.86-9.07a134.11,134.11,0,0,0-6-14.08l-3.79,3.06,3-4.64c-2.86-5.63-5.12-9.18-5.12-9.18S496,269.82,492,289.45l7.53,11.63-8.33-6.73a54.86,54.86,0,0,0-.46,6.89c0,23.25,7.59,42.09,17,42.09s17-18.84,17-42.09a72.31,72.31,0,0,0-3.88-21.71Z"/><path class="cls-4" d="M482.9,285.2l5.86-9.07a136.25,136.25,0,0,0-6-14.08l-3.8,3.06,3-4.64c-2.86-5.63-5.12-9.18-5.12-9.18s-11.76,18.53-15.69,38.16l7.53,11.63-8.33-6.73a54.86,54.86,0,0,0-.46,6.89c0,23.25,7.59,42.09,16.95,42.09s17-18.84,17-42.09a72.31,72.31,0,0,0-3.88-21.71Z"/><rect class="cls-5" x="184.32" y="181.27" width="34.94" height="2.01"/><rect class="cls-4" x="184.32" y="188.59" width="53.95" height="2.01"/><rect class="cls-4" x="184.32" y="195.48" width="43.97" height="2.01"/><rect class="cls-5" x="184.32" y="202.35" width="25.67" height="2.01"/><rect class="cls-5" x="184.32" y="209.22" width="38.74" height="2.01"/><rect class="cls-5" x="168.39" y="180.56" width="4.28" height="4.28"/><rect class="cls-4" x="168.39" y="187.45" width="4.28" height="4.28"/><rect class="cls-4" x="168.39" y="194.35" width="4.28" height="4.28"/><rect class="cls-5" x="168.39" y="201.24" width="4.28" height="4.28"/><rect class="cls-5" x="168.39" y="208.13" width="4.28" height="4.28"/><path class="cls-6" d="M265.87,177.48H247.54a64.18,64.18,0,0,1,0-21.86h18.33A38.19,38.19,0,0,0,265.87,177.48Z"/><circle class="cls-7" cx="140.7" cy="205.3" r="18.65"/><path class="cls-7" d="M128.54,215s-5.68,19.46-8.92,21.08,25.95,4,25.95,4-.81-18.65.81-20.27S128.54,215,128.54,215Z"/><path class="cls-8" d="M157.73,335s36.49-3.25,41.36,8.92-3.25,84.33-3.25,84.33h-15.4v-59.2s-65.69-18.67-65.69-25.16S157.73,335,157.73,335Z"/><path class="cls-8" d="M193.41,425l8.11,3.25s9.73-.81,5.68,6.48a16.07,16.07,0,0,1-11.36,8.11s-15.4,5.68-16.21,0,4.05-17,4.05-17Z"/><path class="cls-8" d="M137.46,335S174,331.79,178.81,344s-3.24,84.33-3.24,84.33H160.16v-59.2s-46.63-10.8-46.63-17.29c0-3-3.17-18.53,2.43-21.79C122.28,326.32,137.46,335,137.46,335Z"/><path class="cls-8" d="M173.14,425l8.11,3.25s9.73-.81,5.67,6.48a16.06,16.06,0,0,1-11.35,8.11s-15.41,5.68-16.22,0,4.06-17,4.06-17Z"/><polygon class="cls-9" points="146.23 272.48 154.35 303.98 168.74 339.36 168.24 340.59 151.08 304.57 146.23 272.48"/><polygon class="cls-5" points="85.68 446.21 82.82 445.22 110.54 362.87 114.55 364.25 85.68 446.21"/><polygon class="cls-5" points="191.65 446.21 194.51 445.22 166.78 362.87 162.78 364.25 191.65 446.21"/><polygon class="cls-5" points="133.06 463.21 136.09 463.23 137.03 366.96 132.79 366.94 133.06 463.21"/><rect class="cls-1" x="323.04" y="208.9" width="47.23" height="64.18"/><rect class="cls-2" x="328.49" y="216.31" width="36.33" height="49.37"/><rect class="cls-5" x="342.79" y="229.23" width="17.6" height="2.01"/><rect class="cls-5" x="332.92" y="228.12" width="4.28" height="4.28"/><rect class="cls-5" x="342.79" y="237.71" width="17.6" height="2.01"/><rect class="cls-5" x="332.92" y="236.6" width="4.28" height="4.28"/><rect class="cls-5" x="342.79" y="246.18" width="17.6" height="2.01"/><rect class="cls-5" x="332.92" y="245.07" width="4.28" height="4.28"/><path class="cls-5" d="M346.66,210.72h0a1.81,1.81,0,0,1,1.81,1.82h0a1.81,1.81,0,0,1-1.81,1.81h0a1.81,1.81,0,0,1-1.82-1.81h0A1.81,1.81,0,0,1,346.66,210.72Z"/><path class="cls-10" d="M140.19,176.31c8.41,1.41,17.65,8.71,16.66,14.63s-8.61,9.59-17,8.19-17.33-13.74-16.33-19.67S131.78,174.9,140.19,176.31Z"/><rect class="cls-5" x="168.26" y="269.13" width="92.58" height="5.1"/><path class="cls-11" d="M164.07,277.13l8.58-10.32s17.11-6.63,19.46-.89-14.41,8.36-14.41,8.36l-7.19,8.31Z"/><path class="cls-12" d="M125.07,280.21s22.55,10.53,38.47-9.57c0,0,11.78,1.35,14.62,7.66,0,0-25,34.55-53.09,26"/><path class="cls-7" d="M202.46,275.46,213,266.05s19.08-4.61,20.73,1.5-16.47,6.7-16.47,6.7l-8.83,7.55Z"/><path class="cls-13" d="M163,281.37s22.55,10.53,38.47-9.58c0,0,11.78,1.36,14.62,7.66,0,0-25,34.56-53.09,26"/><path class="cls-13" d="M120.43,233.68l24.37,2.65a17.94,17.94,0,0,1,15.62,14.13l9.48,44.84s3.24,44.6-3.25,47-15.4-9.73-27.57-8.11-28,5.28-28,5.28-2.51-79.83-2.84-86.36C107.61,240.08,120.43,233.68,120.43,233.68Z"/><path class="cls-4" d="M78.67,314.48,87,348a26.64,26.64,0,0,0,19.41,19.46h0a141.65,141.65,0,0,0,70.49-.45l12.4-3.27a17.5,17.5,0,0,0,13.13-15.52A15.3,15.3,0,0,0,201,340.6c-.05-.1-.1-.2-.14-.3a20.26,20.26,0,0,0-17.61-11.38l-13.13-.43L122.31,307.3s-16.45-8.36-30-9.29A13.27,13.27,0,0,0,78.67,314.48Z"/><path class="cls-10" d="M110.21,178.46c-3.72,1.54-7.94,6.54-8.71,11.27-.35,2.19-.13,4.46-.43,6.67-.69,5.1-3.95,9-7,12.63s-6.13,7.83-6.35,13c-.24,5.66,3.11,11,2.53,16.58-.67,6.54-6.3,10.77-7.69,17.13-.92,4.25.21,8.83,2.08,12.58a30.62,30.62,0,0,0,16.15,14.59c6.49,2.6,13.4,3.15,20.23,3.24,8.31.11,17.33-.77,23.58-7.5a25.42,25.42,0,0,0,6.27-15.1c.59-7.8-2.06-5.45-.23-13,1.15-4.72,4-9,3.61-13.94s-3.83-8.19-6.17-12.06c-2.19-3.61-5.7-9.59-4.81-22.5.23-3.41,2.13-13.5,2.13-13.5-.87-2.83-8.41-6.71-10.36-8.57a18.18,18.18,0,0,0-14.14-4.34A44.64,44.64,0,0,0,110.21,178.46Z"/></svg>