<svg id="github" data-name="github" xmlns="http://www.w3.org/2000/svg" viewBox="0 0 30.13 29.27"><defs><style>.cls-1{fill:#dad9f4;}</style></defs><path class="cls-1" d="M13.37.1a15,15,0,0,0-3.77,29,.7.7,0,0,0,.91-.76V25.92a6.34,6.34,0,0,1-1.36.15A3.25,3.25,0,0,1,6,23.2a3.16,3.16,0,0,0-.91-1.51c-.45-.15-.6-.15-.6-.3,0-.3.45-.3.6-.3.91,0,1.66,1.05,2,1.51a2.78,2.78,0,0,0,2.12,1.51,2.93,2.93,0,0,0,1.36-.31A3.8,3.8,0,0,1,12,21.09c-3.48-.76-6-2.72-6-6a7.11,7.11,0,0,1,1.81-4.53,5.63,5.63,0,0,1-.3-2.11A5.22,5.22,0,0,1,7.94,6a6.82,6.82,0,0,1,4.23,2A8.18,8.18,0,0,1,15,7.5a9.75,9.75,0,0,1,3,.45,6.53,6.53,0,0,1,4.23-2,7.57,7.57,0,0,1,.3,2.42,5,5,0,0,1-.3,2.11,6.79,6.79,0,0,1,1.81,4.53c0,3.32-2.56,5.28-6,6a4.62,4.62,0,0,1,1.51,3.47v3.92a.83.83,0,0,0,1.06.76A15.16,15.16,0,0,0,13.37.1Z"/></svg>