<?xml version="1.0" encoding="utf-8"?>
<!-- Generator: Adobe Illustrator 25.0.0, SVG Export Plug-In . SVG Version: 6.00 Build 0)  -->
<svg version="1.1" id="Camada_1" xmlns="http://www.w3.org/2000/svg" xmlns:xlink="http://www.w3.org/1999/xlink" x="0px" y="0px"
	 viewBox="0 0 250.5 250.5" style="enable-background:new 0 0 250.5 250.5;" xml:space="preserve">
<style type="text/css">
	.st0{fill:#3F3D56;}
	.st1{fill:#DAD9F4;}
	.st2{fill:#CACACA;}
	.st3{fill:#F2F2F2;}
	.st4{fill:#E6E6E6;}
	.st5{fill:#282838;}
	.st6{fill:#FFCEBB;}
	.st7{fill:#5E38FF;}
	.st8{fill:#2F2E41;}
	.st9{fill:#2D2D3F;}
</style>
<g>
	<path class="st0" d="M140.9,206.8h1.7c0.1,0,0.2,0.1,0.2,0.2v0.9c0,0.1-0.1,0.2-0.2,0.2h-1.7c-0.1,0-0.2-0.1-0.2-0.2V207
		C140.7,206.9,140.8,206.8,140.9,206.8z"/>
	<path class="st0" d="M145.2,206.8h1.7c0.1,0,0.2,0.1,0.2,0.2v0.9c0,0.1-0.1,0.2-0.2,0.2h-1.7c-0.1,0-0.2-0.1-0.2-0.2V207
		C145,206.9,145.1,206.8,145.2,206.8z"/>
	<path class="st0" d="M149.6,206.8h1.7c0.1,0,0.2,0.1,0.2,0.2v0.9c0,0.1-0.1,0.2-0.2,0.2h-1.7c-0.1,0-0.2-0.1-0.2-0.2V207
		C149.3,206.9,149.4,206.8,149.6,206.8z"/>
	<path class="st0" d="M153.9,206.8h1.7c0.1,0,0.2,0.1,0.2,0.2v0.9c0,0.1-0.1,0.2-0.2,0.2h-1.7c-0.1,0-0.2-0.1-0.2-0.2V207
		C153.7,206.9,153.8,206.8,153.9,206.8z"/>
	<path class="st0" d="M158.2,206.8h1.7c0.1,0,0.2,0.1,0.2,0.2v0.9c0,0.1-0.1,0.2-0.2,0.2h-1.7c-0.1,0-0.2-0.1-0.2-0.2V207
		C158,206.9,158.1,206.8,158.2,206.8z"/>
	<path class="st0" d="M140.8,209h1.7c0.1,0,0.2,0.1,0.2,0.2v0.9c0,0.1-0.1,0.2-0.2,0.2h-1.7c-0.1,0-0.2-0.1-0.2-0.2v-0.9
		C140.6,209.1,140.7,209,140.8,209z"/>
	<path class="st0" d="M145.2,209h1.7c0.1,0,0.2,0.1,0.2,0.2v0.9c0,0.1-0.1,0.2-0.2,0.2h-1.7c-0.1,0-0.2-0.1-0.2-0.2v-0.9
		C145,209.1,145.1,209,145.2,209z"/>
	<path class="st0" d="M149.5,209h1.7c0.1,0,0.2,0.1,0.2,0.2v0.9c0,0.1-0.1,0.2-0.2,0.2h-1.7c-0.1,0-0.2-0.1-0.2-0.2v-0.9
		C149.3,209.1,149.4,209,149.5,209z"/>
	<path class="st0" d="M153.8,209h1.7c0.1,0,0.2,0.1,0.2,0.2v0.9c0,0.1-0.1,0.2-0.2,0.2h-1.7c-0.1,0-0.2-0.1-0.2-0.2v-0.9
		C153.6,209.1,153.7,209,153.8,209z"/>
	<path class="st0" d="M158.2,209h1.7c0.1,0,0.2,0.1,0.2,0.2v0.9c0,0.1-0.1,0.2-0.2,0.2h-1.7c-0.1,0-0.2-0.1-0.2-0.2v-0.9
		C158,209.1,158.1,209,158.2,209z"/>
	<path class="st0" d="M173.5,99.1h-6.3c-0.3,0-0.5,0.2-0.5,0.5c0,0.3,0.2,0.5,0.5,0.5h6.3c0.3,0,0.5-0.2,0.5-0.5
		C174,99.4,173.7,99.1,173.5,99.1z"/>
	<path class="st0" d="M173.5,100.9h-6.3c-0.3,0-0.5,0.2-0.5,0.5c0,0.3,0.2,0.5,0.5,0.5h6.3c0.3,0,0.5-0.2,0.5-0.5
		C174,101.2,173.7,100.9,173.5,100.9z"/>
	<path class="st0" d="M173.5,102.7h-6.3c-0.3,0-0.5,0.2-0.5,0.5c0,0.3,0.2,0.5,0.5,0.5h6.3c0.3,0,0.5-0.2,0.5-0.5
		C174,103,173.7,102.7,173.5,102.7z"/>
	<g>
		<path class="st1" d="M250.5,125.2c0,29.6-10.4,58.2-29.5,80.7c-0.7,0.8-1.4,1.6-2.1,2.4c-8.5,9.5-18.3,17.7-29.2,24.3
			c-2.5,1.5-5.1,2.9-7.7,4.3c-0.3,0.1-0.5,0.3-0.8,0.4c-0.3,0.2-0.6,0.3-1,0.5c-6.6,3.2-13.5,5.9-20.6,7.9c-0.7,0.2-1.5,0.4-2.2,0.6
			c-9.3,2.5-18.9,3.8-28.5,4.1c-0.5,0-1,0-1.5,0c-0.2,0-0.3,0-0.5,0c-0.5,0-1.1,0-1.6,0c-10.2,0-20.3-1.2-30.1-3.7
			c-1-0.2-2-0.5-3-0.8c-5.2-1.4-10.2-3.1-15.2-5.2c-2.6-1.1-5.2-2.3-7.7-3.5c-0.6-0.3-1.1-0.6-1.7-0.9c-0.2-0.1-0.5-0.2-0.7-0.4
			c-13.4-7.1-25.3-16.5-35.4-27.8c-0.7-0.8-1.4-1.6-2-2.4c-44.6-52.9-37.9-131.9,15-176.5c2.1-1.8,4.3-3.5,6.5-5.1
			c0.7-0.5,1.4-1,2.1-1.6c0.1-0.1,0.3-0.2,0.4-0.3c12.7-8.9,27-15.4,42.1-19c0.9-0.2,1.7-0.4,2.6-0.6C114.6-0.7,131.5-1,147.9,2
			c0.9,0.2,1.7,0.3,2.6,0.5c15,3.1,29.2,8.9,42.1,17.1c0.3,0.2,0.6,0.4,0.9,0.6c0.6,0.4,1.2,0.8,1.7,1.1
			C229.7,44.6,250.5,83.5,250.5,125.2z"/>
		<path class="st2" d="M180.4,171.5L180.4,171.5c-0.6-4.3-0.8-8.7-0.5-13.1l0.5-7.2l0,0C177.6,156.7,178.2,164,180.4,171.5
			L180.4,171.5z"/>
		<path class="st2" d="M182.5,172.7L182.5,172.7c-0.3-2.6-0.4-5.2-0.2-7.8l0.2-4.3l0,0C181.2,163.9,181.5,168.2,182.5,172.7z"/>
		<path class="st3" d="M192.2,178v2.4c0,0.4-0.3,0.7-0.7,0.7h-1.2c-0.1,0-0.2,0.1-0.2,0.2c0,0,0,0,0,0v19.8c0,0.4-0.3,0.7-0.7,0.7
			h-14.8c-0.4,0-0.7-0.3-0.7-0.7v-19.8c0-0.1-0.1-0.2-0.2-0.2h-1.5c-0.4,0-0.7-0.3-0.7-0.7V178c0-0.4,0.3-0.7,0.7-0.7c0,0,0,0,0,0
			h19.3C191.9,177.3,192.2,177.6,192.2,178z"/>
		<rect x="173.9" y="181.6" class="st4" width="16.2" height="0.7"/>
		<path class="st4" d="M190,192.3c-5.4,2.2-10.9,2.3-16.4,0v-5.1c5.3-1.8,11.1-1.8,16.4,0V192.3z"/>
		<circle class="st5" cx="112.2" cy="102.2" r="8.8"/>
		<path class="st5" d="M114.6,93.6c4.9,0,8.8,3.9,8.8,8.8c0,1.5-0.4,2.9-1.1,4.2c3-3.8,2.4-9.3-1.4-12.4c-3.8-3-9.3-2.4-12.4,1.4
			c-0.3,0.4-0.6,0.9-0.9,1.3C109.4,94.9,111.9,93.6,114.6,93.6z"/>
		<circle class="st5" cx="95.7" cy="76.3" r="25.9"/>
		<path class="st5" d="M75.4,60.3c9.3-10.4,25.1-11.6,35.8-2.7c-0.2-0.2-0.4-0.4-0.6-0.6c-10.7-9.5-27-8.5-36.5,2.2
			c-9.5,10.7-8.5,27,2.1,36.5c0.2,0.2,0.4,0.4,0.7,0.6C66.8,86.6,66.2,70.7,75.4,60.3z"/>
		<circle class="st6" cx="95.5" cy="85.3" r="16.7"/>
		<path class="st7" d="M104,106.5l-17.8,0.8c0,0,1.5,9.2-8.2,10.1c-9.6,0.9-18.4-1.8-21.9,4.8c-3.5,6.6-2,30-2,30
			s6.6,23.7,11.8,27.2c5.3,3.5,51.3-1.3,51.3-1.3l19.3-24.3l-0.7-18.8c-0.3-9.8-9.3-17.1-18.9-15.3c-0.2,0-0.4,0.1-0.6,0.1
			c-0.3,0.1-2.1-1.6-7.9-4.5C104.9,113.5,104,106.5,104,106.5z"/>
		<path class="st8" d="M65.3,116.9c0,0,4.2,7.7,2.5,18.6c-1.8,11,5.6,34.1,5.6,34.1l5.3-1.3c0,0-3.5-22.8-2.6-28
			c0.9-5.3,1.1-20.8-3.3-23.4C68.4,114.3,65.3,116.9,65.3,116.9z"/>
		<path class="st8" d="M116,121l1.8,48.5l3.5,2.2c0,0,5-53.2,2.4-53.2h-5.4c-1.3,0-2.4,1.1-2.4,2.4l0,0C116,120.9,116,120.9,116,121
			z"/>
		<circle class="st7" cx="75.8" cy="166.4" r="2.2"/>
		<circle class="st7" cx="119.6" cy="168.6" r="2.2"/>
		<polygon class="st5" points="81.3,64.5 81.3,81.1 85.1,81.1 90,75.9 89.4,81.1 106.4,81.1 105.4,75.9 107.5,81.1 110.2,81.1 
			110.2,64.5 		"/>
		<ellipse class="st6" cx="78.6" cy="81.8" rx="1.3" ry="2.4"/>
		<ellipse class="st6" cx="112.4" cy="81.8" rx="1.3" ry="2.4"/>
		<path class="st0" d="M148.8,197.6v1.5c0,0.4-0.1,0.8-0.2,1.2c-0.1,0.2-0.1,0.3-0.2,0.5c-0.6,1-1.6,1.6-2.8,1.6h-108
			c-1.1,0-2.2-0.6-2.8-1.6c-0.1-0.2-0.2-0.3-0.2-0.5c-0.1-0.4-0.2-0.8-0.2-1.2v-1.5c0-1.8,1.5-3.2,3.2-3.2h0h6.2v-0.7
			c0-0.1,0.1-0.1,0.1-0.1h0h3.2c0.1,0,0.1,0.1,0.1,0.1v0.7h2v-0.7c0-0.1,0.1-0.1,0.1-0.1h0h3.2c0.1,0,0.1,0.1,0.1,0.1v0.7h2v-0.7
			c0-0.1,0.1-0.1,0.1-0.1h0h3.2c0.1,0,0.1,0.1,0.1,0.1v0.7h2v-0.7c0-0.1,0.1-0.1,0.1-0.1h0h3.2c0.1,0,0.1,0.1,0.1,0.1v0.7h2v-0.7
			c0-0.1,0.1-0.1,0.1-0.1h0h3.2c0.1,0,0.1,0.1,0.1,0.1v0.7h2v-0.7c0-0.1,0.1-0.1,0.1-0.1h0H75c0.1,0,0.1,0.1,0.1,0.1v0.7h2v-0.7
			c0-0.1,0.1-0.1,0.1-0.1l0,0h25.4c0.1,0,0.1,0.1,0.1,0.1l0,0v0.7h2v-0.7c0-0.1,0.1-0.1,0.1-0.1l0,0h3.2c0.1,0,0.1,0.1,0.1,0.1v0.7
			h2v-0.7c0-0.1,0.1-0.1,0.1-0.1l0,0h3.2c0.1,0,0.1,0.1,0.1,0.1l0,0v0.7h2v-0.7c0-0.1,0.1-0.1,0.1-0.1l0,0h3.2
			c0.1,0,0.1,0.1,0.1,0.1l0,0v0.7h2v-0.7c0-0.1,0.1-0.1,0.1-0.1l0,0h3.2c0.1,0,0.1,0.1,0.1,0.1v0.7h2v-0.7c0-0.1,0.1-0.1,0.1-0.1
			l0,0h3.2c0.1,0,0.1,0.1,0.1,0.1l0,0v0.7h2v-0.7c0-0.1,0.1-0.1,0.1-0.1l0,0h3.2c0.1,0,0.1,0.1,0.1,0.1l0,0v0.7h9.5
			C147.4,194.3,148.8,195.8,148.8,197.6L148.8,197.6z"/>
		<path class="st0" d="M140.1,135.8H41.2c-1.5,0-2.7,1.2-2.7,2.7l0,0v55.1c0,1.5,1.2,2.7,2.7,2.7h98.9c1.5,0,2.7-1.2,2.7-2.7v-55.1
			C142.9,137,141.7,135.8,140.1,135.8L140.1,135.8z"/>
		<circle class="st7" cx="90.8" cy="155" r="6"/>
		<polygon class="st0" points="128.2,115.1 158.7,84.3 173.1,84.3 173.1,83.8 158.5,83.8 158.4,83.9 127.8,114.7 		"/>
		<rect x="190.7" y="71.7" class="st7" width="35.4" height="3.2"/>
		<path class="st0" d="M186.4,76.8h-7.5v-7.5h7.5V76.8z M179.4,76.3h6.5v-6.5h-6.5L179.4,76.3z"/>
		<rect x="190.7" y="82.2" class="st7" width="35.4" height="3.2"/>
		<path class="st0" d="M186.4,87.3h-7.5v-7.5h7.5V87.3z M179.4,86.8h6.5v-6.5h-6.5L179.4,86.8z"/>
		<rect x="190.7" y="92.7" class="st7" width="35.4" height="3.2"/>
		<path class="st0" d="M186.4,97.8h-7.5v-7.5h7.5V97.8z M179.4,97.3h6.5v-6.5h-6.5L179.4,97.3z"/>
	</g>
	<path class="st9" d="M32.5,207.4c0.7,0.8,1.3,1.5,2,2.3c9.7,10.9,21.3,20.1,34.3,26.9c0.2,0.1,0.5,0.2,0.7,0.4
		c0.5,0.3,1.1,0.6,1.6,0.8c2.4,1.2,4.9,2.3,7.4,3.4c4.8,2,9.7,3.7,14.7,5.1c0.9,0.3,1.9,0.5,2.9,0.7c9.6,2.4,19.4,3.5,29.2,3.5
		c0.5,0,1,0,1.6,0c0.2,0,0.3,0,0.5,0c0.5,0,0.9,0,1.4,0c9.3-0.3,18.6-1.6,27.6-4c0.7-0.2,1.4-0.4,2.1-0.6c6.9-2,13.5-4.5,19.9-7.6
		c0.3-0.2,0.6-0.3,0.9-0.5c0.3-0.1,0.5-0.3,0.8-0.4c2.5-1.3,5-2.7,7.4-4.1c10.6-6.4,20.1-14.3,28.3-23.5c0.7-0.8,1.4-1.6,2.1-2.4
		c3-3.5,5.7-7.2,8.3-11h-202C26.7,200.1,29.5,203.8,32.5,207.4z"/>
</g>
</svg>
