<?xml version="1.0" encoding="utf-8"?>
<!-- Generator: Adobe Illustrator 25.0.0, SVG Export Plug-In . SVG Version: 6.00 Build 0)  -->
<svg version="1.1" id="Camada_1" xmlns="http://www.w3.org/2000/svg" xmlns:xlink="http://www.w3.org/1999/xlink" x="0px" y="0px"
	 viewBox="0 0 250.5 250.5" style="enable-background:new 0 0 250.5 250.5;" xml:space="preserve">
<style type="text/css">
	.st0{fill:#3F3D56;}
	.st1{fill:#DAD9F4;}
	.st2{fill:#BCBCD3;}
	.st3{fill:#2F2E41;}
	.st4{fill:#5E38FF;}
	.st5{fill:#E6E6E6;}
	.st6{fill:#6D4343;}
	.st7{opacity:0.2;enable-background:new    ;}
	.st8{fill:#282838;}
</style>
<g>
	<path class="st0" d="M140.9,206.8h1.7c0.1,0,0.2,0.1,0.2,0.2v0.9c0,0.1-0.1,0.2-0.2,0.2h-1.7c-0.1,0-0.2-0.1-0.2-0.2V207
		C140.7,206.9,140.8,206.8,140.9,206.8z"/>
	<path class="st0" d="M145.2,206.8h1.7c0.1,0,0.2,0.1,0.2,0.2v0.9c0,0.1-0.1,0.2-0.2,0.2h-1.7c-0.1,0-0.2-0.1-0.2-0.2V207
		C145,206.9,145.1,206.8,145.2,206.8z"/>
	<path class="st0" d="M149.6,206.8h1.7c0.1,0,0.2,0.1,0.2,0.2v0.9c0,0.1-0.1,0.2-0.2,0.2h-1.7c-0.1,0-0.2-0.1-0.2-0.2V207
		C149.3,206.9,149.4,206.8,149.6,206.8z"/>
	<path class="st0" d="M153.9,206.8h1.7c0.1,0,0.2,0.1,0.2,0.2v0.9c0,0.1-0.1,0.2-0.2,0.2h-1.7c-0.1,0-0.2-0.1-0.2-0.2V207
		C153.7,206.9,153.8,206.8,153.9,206.8z"/>
	<path class="st0" d="M158.2,206.8h1.7c0.1,0,0.2,0.1,0.2,0.2v0.9c0,0.1-0.1,0.2-0.2,0.2h-1.7c-0.1,0-0.2-0.1-0.2-0.2V207
		C158,206.9,158.1,206.8,158.2,206.8z"/>
	<path class="st0" d="M140.8,209h1.7c0.1,0,0.2,0.1,0.2,0.2v0.9c0,0.1-0.1,0.2-0.2,0.2h-1.7c-0.1,0-0.2-0.1-0.2-0.2v-0.9
		C140.6,209.1,140.7,209,140.8,209z"/>
	<path class="st0" d="M145.2,209h1.7c0.1,0,0.2,0.1,0.2,0.2v0.9c0,0.1-0.1,0.2-0.2,0.2h-1.7c-0.1,0-0.2-0.1-0.2-0.2v-0.9
		C145,209.1,145.1,209,145.2,209z"/>
	<path class="st0" d="M149.5,209h1.7c0.1,0,0.2,0.1,0.2,0.2v0.9c0,0.1-0.1,0.2-0.2,0.2h-1.7c-0.1,0-0.2-0.1-0.2-0.2v-0.9
		C149.3,209.1,149.4,209,149.5,209z"/>
	<path class="st0" d="M153.8,209h1.7c0.1,0,0.2,0.1,0.2,0.2v0.9c0,0.1-0.1,0.2-0.2,0.2h-1.7c-0.1,0-0.2-0.1-0.2-0.2v-0.9
		C153.6,209.1,153.7,209,153.8,209z"/>
	<path class="st0" d="M158.2,209h1.7c0.1,0,0.2,0.1,0.2,0.2v0.9c0,0.1-0.1,0.2-0.2,0.2h-1.7c-0.1,0-0.2-0.1-0.2-0.2v-0.9
		C158,209.1,158.1,209,158.2,209z"/>
	<path class="st0" d="M173.5,99.1h-6.3c-0.3,0-0.5,0.2-0.5,0.5c0,0.3,0.2,0.5,0.5,0.5h6.3c0.3,0,0.5-0.2,0.5-0.5
		C174,99.4,173.7,99.1,173.5,99.1z"/>
	<path class="st0" d="M173.5,100.9h-6.3c-0.3,0-0.5,0.2-0.5,0.5c0,0.3,0.2,0.5,0.5,0.5h6.3c0.3,0,0.5-0.2,0.5-0.5
		C174,101.2,173.7,100.9,173.5,100.9z"/>
	<path class="st0" d="M173.5,102.7h-6.3c-0.3,0-0.5,0.2-0.5,0.5c0,0.3,0.2,0.5,0.5,0.5h6.3c0.3,0,0.5-0.2,0.5-0.5
		C174,103,173.7,102.7,173.5,102.7z"/>
	<g>
		<path class="st1" d="M250.5,125.2c0,29.6-10.4,58.2-29.5,80.7c-0.7,0.8-1.4,1.6-2.1,2.4c-8.5,9.5-18.3,17.7-29.2,24.3
			c-2.5,1.5-5.1,2.9-7.7,4.3c-0.3,0.1-0.5,0.3-0.8,0.4c-0.3,0.2-0.6,0.3-1,0.5c-6.6,3.2-13.5,5.9-20.6,7.9c-0.7,0.2-1.5,0.4-2.2,0.6
			c-9.3,2.5-18.9,3.8-28.5,4.1c-0.5,0-1,0-1.5,0c-0.2,0-0.3,0-0.5,0c-0.5,0-1.1,0-1.6,0c-10.2,0-20.3-1.2-30.1-3.7
			c-1-0.2-2-0.5-3-0.8c-5.2-1.4-10.2-3.1-15.2-5.2c-2.6-1.1-5.2-2.3-7.7-3.5c-0.6-0.3-1.1-0.6-1.7-0.9c-0.2-0.1-0.5-0.2-0.7-0.4
			c-13.4-7.1-25.3-16.5-35.4-27.8c-0.7-0.8-1.4-1.6-2-2.4c-44.6-52.9-37.9-131.9,15-176.5c2.1-1.8,4.3-3.5,6.5-5.1
			c0.7-0.5,1.4-1,2.1-1.6c0.1-0.1,0.3-0.2,0.4-0.3c12.7-8.9,27-15.4,42.1-19c0.9-0.2,1.7-0.4,2.6-0.6C114.6-0.7,131.5-1,147.9,2
			c0.9,0.2,1.7,0.3,2.6,0.5c15,3.1,29.2,8.9,42.1,17.1c0.3,0.2,0.6,0.4,0.9,0.6c0.6,0.4,1.2,0.8,1.7,1.1
			C229.7,44.6,250.5,83.5,250.5,125.2z"/>
		<path class="st2" d="M192.6,19.6V196c0,3.4-2.3,6.1-5.2,6.1H58.8c-2.4,0-4.4-1.9-5-4.5c-0.1-0.5-0.2-1.1-0.2-1.7V22.5
			c-0.1,0.1-0.3,0.2-0.4,0.3c-0.7,0.5-1.4,1-2.1,1.6V196c0,2.6,0.9,5.1,2.7,6.9c0.9,1,2.1,1.7,3.4,2c0.6,0.2,1.1,0.2,1.7,0.2h128.6
			c0.6,0,1.2-0.1,1.7-0.2c3.5-0.9,6-4.6,6-9V21.3c-0.6-0.4-1.1-0.8-1.7-1.1C193.2,20,192.9,19.8,192.6,19.6z"/>
		<g>
			<g>
				<g>
					<path class="st2" d="M93.6,190l-40,3.6l-0.4,0V22.8c0.1-0.1,0.3-0.2,0.4-0.3c8.3-5.8,17.4-10.6,26.9-14.3l2,28.2l0.2,2.6l2,28
						l0.6,8.6L93.5,189L93.6,190z"/>
					<path class="st2" d="M192.6,19.6c0.3,0.2,0.6,0.4,0.9,0.6v173.4l-0.9-0.1L153,190l0.1-1l8.2-113.4l0.6-8.6l2-28l0.2-2.6
						l2.1-29.6C175.5,10.1,184.3,14.4,192.6,19.6z"/>
					<rect x="52.3" y="36.5" class="st2" width="141.6" height="2.6"/>
					<path class="st2" d="M95.6,3.5c0.9-0.2,1.7-0.4,2.6-0.6V73h-2.6V3.5z"/>
					<path class="st2" d="M147.9,2c0.9,0.2,1.7,0.3,2.6,0.5V73h-2.6V2z"/>
					<path class="st2" d="M210,189H40.4c-6.4,0-11.6,5.2-11.6,11.6c0,6.4,5.2,11.6,11.6,11.6H210c3.3,0,6.5-1.4,8.7-3.9
						c0.5-0.6,0.9-1.2,1.3-1.8c0.3-0.5,0.5-1,0.8-1.5c2.4-6-0.5-12.7-6.5-15.1C213,189.3,211.5,189,210,189L210,189z"/>
					<rect x="53.1" y="67" class="st2" width="140.7" height="8.6"/>
				</g>
				<path class="st2" d="M122.2,64.4h2.6c2.6,0,4.7,2.1,4.7,4.7l0,0l0,0h-12l0,0l0,0C117.5,66.5,119.6,64.4,122.2,64.4z"/>
			</g>
		</g>
		<path class="st0" d="M221,206c-3.8,4.5-7.8,8.7-12.2,12.5H41.7c-4.3-3.9-8.4-8.1-12.2-12.5H221z"/>
		<path class="st3" d="M139.2,162.5h-28.1c-0.2,0-0.3,0-0.4,0.1c-0.6,0.2-1.1,0.8-1.1,1.4v44.4h31.1V164
			C140.7,163.2,140,162.5,139.2,162.5C139.2,162.5,139.2,162.5,139.2,162.5z M128.6,184.4c0,0.7-0.2,1.4-0.7,2
			c-1.1,1.5-3.2,1.8-4.7,0.6c-0.8-0.6-1.3-1.6-1.3-2.6v-5.2c0-1.8,1.5-3.3,3.4-3.3c1.8,0,3.3,1.5,3.3,3.3V184.4z"/>
		<path class="st0" d="M109.5,207v4.3c0,0.5,0.4,0.8,0.8,0.8H140c0.5,0,0.8-0.4,0.8-0.8V207H109.5z"/>
		<path class="st0" d="M185.8,93.2H65.6c-2.2,0-3.9,1.7-3.9,3.9v81.1c0,2.2,1.7,3.9,3.9,3.9h120.2c2.2,0,3.9-1.7,3.9-3.9V97.1
			C189.7,94.9,187.9,93.2,185.8,93.2z"/>
		<path class="st4" d="M184.8,96H66.6c-1.2,0-2.1,0.9-2.1,2.1v79.1c0,1.2,0.9,2.1,2.1,2.1h118.2c1.2,0,2.1-0.9,2.1-2.1V98.1
			C186.9,96.9,185.9,96,184.8,96z"/>
		<path class="st3" d="M163,212.1l-1.1-5.2c-0.1-0.4-0.4-0.8-0.8-0.9c-0.1-0.1-0.3-0.1-0.5-0.1H92.5c-0.2,0-0.3,0-0.5,0.1
			c-0.4,0.2-0.7,0.5-0.8,0.9l-1.1,5.2c-0.1,0.7,0.3,1.4,1,1.5c0.1,0,0.2,0,0.3,0h70.3c0.4,0,0.8-0.2,1-0.5
			C163,212.9,163.1,212.5,163,212.1z"/>
		<path class="st0" d="M93.2,206.8H95c0.1,0,0.2,0.1,0.2,0.2v0.9c0,0.1-0.1,0.2-0.2,0.2h-1.7c-0.1,0-0.2-0.1-0.2-0.2V207
			C93,206.9,93.1,206.8,93.2,206.8z"/>
		<path class="st0" d="M97.6,206.8h1.7c0.1,0,0.2,0.1,0.2,0.2v0.9c0,0.1-0.1,0.2-0.2,0.2h-1.7c-0.1,0-0.2-0.1-0.2-0.2V207
			C97.3,206.9,97.4,206.8,97.6,206.8z"/>
		<path class="st0" d="M101.9,206.8h1.7c0.1,0,0.2,0.1,0.2,0.2v0.9c0,0.1-0.1,0.2-0.2,0.2h-1.7c-0.1,0-0.2-0.1-0.2-0.2V207
			C101.7,206.9,101.8,206.8,101.9,206.8z"/>
		<path class="st0" d="M106.2,206.8h1.7c0.1,0,0.2,0.1,0.2,0.2v0.9c0,0.1-0.1,0.2-0.2,0.2h-1.7c-0.1,0-0.2-0.1-0.2-0.2V207
			C106,206.9,106.1,206.8,106.2,206.8z"/>
		<path class="st0" d="M110.6,206.8h1.7c0.1,0,0.2,0.1,0.2,0.2v0.9c0,0.1-0.1,0.2-0.2,0.2h-1.7c-0.1,0-0.2-0.1-0.2-0.2V207
			C110.3,206.9,110.4,206.8,110.6,206.8z"/>
		<path class="st0" d="M114.9,206.8h1.7c0.1,0,0.2,0.1,0.2,0.2v0.9c0,0.1-0.1,0.2-0.2,0.2h-1.7c-0.1,0-0.2-0.1-0.2-0.2V207
			C114.7,206.9,114.8,206.8,114.9,206.8z"/>
		<path class="st0" d="M119.2,206.8h1.7c0.1,0,0.2,0.1,0.2,0.2v0.9c0,0.1-0.1,0.2-0.2,0.2h-1.7c-0.1,0-0.2-0.1-0.2-0.2V207
			C119,206.9,119.1,206.8,119.2,206.8z"/>
		<path class="st0" d="M123.6,206.8h1.7c0.1,0,0.2,0.1,0.2,0.2v0.9c0,0.1-0.1,0.2-0.2,0.2h-1.7c-0.1,0-0.2-0.1-0.2-0.2V207
			C123.3,206.9,123.4,206.8,123.6,206.8z"/>
		<path class="st0" d="M127.9,206.8h1.7c0.1,0,0.2,0.1,0.2,0.2v0.9c0,0.1-0.1,0.2-0.2,0.2h-1.7c-0.1,0-0.2-0.1-0.2-0.2V207
			C127.7,206.9,127.8,206.8,127.9,206.8z"/>
		<path class="st0" d="M132.2,206.8h1.7c0.1,0,0.2,0.1,0.2,0.2v0.9c0,0.1-0.1,0.2-0.2,0.2h-1.7c-0.1,0-0.2-0.1-0.2-0.2V207
			C132,206.9,132.1,206.8,132.2,206.8z"/>
		<path class="st0" d="M136.6,206.8h1.7c0.1,0,0.2,0.1,0.2,0.2v0.9c0,0.1-0.1,0.2-0.2,0.2h-1.7c-0.1,0-0.2-0.1-0.2-0.2V207
			C136.3,206.9,136.4,206.8,136.6,206.8z"/>
		<path class="st0" d="M93.2,209h1.7c0.1,0,0.2,0.1,0.2,0.2v0.9c0,0.1-0.1,0.2-0.2,0.2h-1.7c-0.1,0-0.2-0.1-0.2-0.2v-0.9
			C93,209.1,93.1,209,93.2,209z"/>
		<path class="st0" d="M97.5,209h1.7c0.1,0,0.2,0.1,0.2,0.2v0.9c0,0.1-0.1,0.2-0.2,0.2h-1.7c-0.1,0-0.2-0.1-0.2-0.2v-0.9
			C97.3,209.1,97.4,209,97.5,209z"/>
		<path class="st0" d="M101.8,209h1.7c0.1,0,0.2,0.1,0.2,0.2v0.9c0,0.1-0.1,0.2-0.2,0.2h-1.7c-0.1,0-0.2-0.1-0.2-0.2v-0.9
			C101.6,209.1,101.7,209,101.8,209z"/>
		<path class="st0" d="M106.2,209h1.7c0.1,0,0.2,0.1,0.2,0.2v0.9c0,0.1-0.1,0.2-0.2,0.2h-1.7c-0.1,0-0.2-0.1-0.2-0.2v-0.9
			C106,209.1,106.1,209,106.2,209z"/>
		<path class="st0" d="M110.5,209h1.7c0.1,0,0.2,0.1,0.2,0.2v0.9c0,0.1-0.1,0.2-0.2,0.2h-1.7c-0.1,0-0.2-0.1-0.2-0.2v-0.9
			C110.3,209.1,110.4,209,110.5,209z"/>
		<path class="st0" d="M114.8,209h1.7c0.1,0,0.2,0.1,0.2,0.2v0.9c0,0.1-0.1,0.2-0.2,0.2h-1.7c-0.1,0-0.2-0.1-0.2-0.2v-0.9
			C114.6,209.1,114.7,209,114.8,209z"/>
		<path class="st0" d="M119.2,209h1.7c0.1,0,0.2,0.1,0.2,0.2v0.9c0,0.1-0.1,0.2-0.2,0.2h-1.7c-0.1,0-0.2-0.1-0.2-0.2v-0.9
			C119,209.1,119.1,209,119.2,209z"/>
		<path class="st0" d="M123.5,209h1.7c0.1,0,0.2,0.1,0.2,0.2v0.9c0,0.1-0.1,0.2-0.2,0.2h-1.7c-0.1,0-0.2-0.1-0.2-0.2v-0.9
			C123.3,209.1,123.4,209,123.5,209z"/>
		<path class="st0" d="M127.8,209h1.7c0.1,0,0.2,0.1,0.2,0.2v0.9c0,0.1-0.1,0.2-0.2,0.2h-1.7c-0.1,0-0.2-0.1-0.2-0.2v-0.9
			C127.6,209.1,127.7,209,127.8,209z"/>
		<path class="st0" d="M132.2,209h1.7c0.1,0,0.2,0.1,0.2,0.2v0.9c0,0.1-0.1,0.2-0.2,0.2h-1.7c-0.1,0-0.2-0.1-0.2-0.2v-0.9
			C132,209.1,132.1,209,132.2,209z"/>
		<path class="st0" d="M136.5,209h1.7c0.1,0,0.2,0.1,0.2,0.2v0.9c0,0.1-0.1,0.2-0.2,0.2h-1.7c-0.1,0-0.2-0.1-0.2-0.2v-0.9
			C136.3,209.1,136.4,209,136.5,209z"/>
		<path class="st0" d="M114,211.6h16.9c0.1,0,0.2,0.1,0.2,0.2v0.9c0,0.1-0.1,0.2-0.2,0.2H114c-0.1,0-0.2-0.1-0.2-0.2v-0.9
			C113.8,211.7,113.9,211.6,114,211.6z"/>
		<path class="st0" d="M178.9,106.9H68.2c-0.2,0-0.4-0.2-0.4-0.4c0-0.2,0.2-0.4,0.4-0.4h110.6c0.2,0,0.4,0.2,0.4,0.4
			C179.3,106.7,179.1,106.9,178.9,106.9z"/>
		<ellipse class="st0" cx="75.7" cy="101.1" rx="2.6" ry="2.6"/>
		<ellipse class="st0" cx="84.7" cy="101.1" rx="2.6" ry="2.6"/>
		<ellipse class="st0" cx="93.6" cy="101.1" rx="2.6" ry="2.6"/>
		<path class="st5" d="M75.5,117.1h2.3c0.7,0,1.2,0.6,1.2,1.2v0c0,0.7-0.6,1.2-1.2,1.2h-2.3c-0.7,0-1.2-0.6-1.2-1.2v0
			C74.2,117.7,74.8,117.1,75.5,117.1z"/>
		<path class="st5" d="M101.5,117.1h2.3c0.7,0,1.2,0.6,1.2,1.2v0c0,0.7-0.6,1.2-1.2,1.2h-2.3c-0.7,0-1.2-0.6-1.2-1.2v0
			C100.2,117.7,100.8,117.1,101.5,117.1z"/>
		<path class="st5" d="M108.8,117.1h2.3c0.7,0,1.2,0.6,1.2,1.2v0c0,0.7-0.6,1.2-1.2,1.2h-2.3c-0.7,0-1.2-0.6-1.2-1.2v0
			C107.6,117.7,108.2,117.1,108.8,117.1z"/>
		<path class="st5" d="M82.6,116.9h14.1c0.7,0,1.2,0.6,1.2,1.2v0c0,0.7-0.6,1.2-1.2,1.2H82.6c-0.7,0-1.2-0.6-1.2-1.2v0
			C81.3,117.5,81.9,116.9,82.6,116.9z"/>
		<path class="st5" d="M117.2,116.9h14.1c0.7,0,1.2,0.6,1.2,1.2v0c0,0.7-0.6,1.2-1.2,1.2h-14.1c-0.7,0-1.2-0.6-1.2-1.2v0
			C116,117.5,116.5,116.9,117.2,116.9z"/>
		<path class="st5" d="M82.4,122.7h2.3c0.7,0,1.2,0.6,1.2,1.2v0c0,0.7-0.6,1.2-1.2,1.2h-2.3c-0.7,0-1.2-0.6-1.2-1.2v0
			C81.2,123.3,81.7,122.7,82.4,122.7z"/>
		<path class="st5" d="M108.4,122.7h2.3c0.7,0,1.2,0.6,1.2,1.2v0c0,0.7-0.6,1.2-1.2,1.2h-2.3c-0.7,0-1.2-0.6-1.2-1.2v0
			C107.2,123.3,107.7,122.7,108.4,122.7z"/>
		<path class="st5" d="M115.8,122.7h2.3c0.7,0,1.2,0.6,1.2,1.2v0c0,0.7-0.6,1.2-1.2,1.2h-2.3c-0.7,0-1.2-0.6-1.2-1.2v0
			C114.5,123.3,115.1,122.7,115.8,122.7z"/>
		<path class="st5" d="M89.5,122.5h14.1c0.7,0,1.2,0.6,1.2,1.2v0c0,0.7-0.6,1.2-1.2,1.2H89.5c-0.7,0-1.2-0.6-1.2-1.2v0
			C88.2,123.1,88.8,122.5,89.5,122.5z"/>
		<path class="st5" d="M124.2,122.5h14.1c0.7,0,1.2,0.6,1.2,1.2v0c0,0.7-0.6,1.2-1.2,1.2h-14.1c-0.7,0-1.2-0.6-1.2-1.2v0
			C122.9,123.1,123.5,122.5,124.2,122.5z"/>
		<path class="st5" d="M89.3,128.4h2.3c0.7,0,1.2,0.6,1.2,1.2v0c0,0.7-0.6,1.2-1.2,1.2h-2.3c-0.7,0-1.2-0.6-1.2-1.2v0
			C88.1,128.9,88.7,128.4,89.3,128.4z"/>
		<path class="st5" d="M115.3,128.4h2.3c0.7,0,1.2,0.6,1.2,1.2v0c0,0.7-0.6,1.2-1.2,1.2h-2.3c-0.7,0-1.2-0.6-1.2-1.2v0
			C114.1,128.9,114.7,128.4,115.3,128.4z"/>
		<path class="st5" d="M122.7,128.4h2.3c0.7,0,1.2,0.6,1.2,1.2v0c0,0.7-0.6,1.2-1.2,1.2h-2.3c-0.7,0-1.2-0.6-1.2-1.2v0
			C121.5,128.9,122,128.4,122.7,128.4z"/>
		<path class="st5" d="M96.4,128.2h14.1c0.7,0,1.2,0.6,1.2,1.2v0c0,0.7-0.6,1.2-1.2,1.2H96.4c-0.7,0-1.2-0.6-1.2-1.2v0
			C95.2,128.7,95.7,128.2,96.4,128.2z"/>
		<path class="st5" d="M131.1,128.2h14.1c0.7,0,1.2,0.6,1.2,1.2v0c0,0.7-0.6,1.2-1.2,1.2h-14.1c-0.7,0-1.2-0.6-1.2-1.2v0
			C129.8,128.7,130.4,128.2,131.1,128.2z"/>
		<path class="st5" d="M96.3,134h2.3c0.7,0,1.2,0.6,1.2,1.2v0c0,0.7-0.6,1.2-1.2,1.2h-2.3c-0.7,0-1.2-0.6-1.2-1.2v0
			C95,134.6,95.6,134,96.3,134z"/>
		<path class="st5" d="M122.3,134h2.3c0.7,0,1.2,0.6,1.2,1.2v0c0,0.7-0.6,1.2-1.2,1.2h-2.3c-0.7,0-1.2-0.6-1.2-1.2v0
			C121,134.6,121.6,134,122.3,134z"/>
		<path class="st5" d="M129.6,134h2.3c0.7,0,1.2,0.6,1.2,1.2v0c0,0.7-0.6,1.2-1.2,1.2h-2.3c-0.7,0-1.2-0.6-1.2-1.2v0
			C128.4,134.6,129,134,129.6,134z"/>
		<path class="st5" d="M103.4,133.8h14.1c0.7,0,1.2,0.6,1.2,1.2l0,0c0,0.7-0.6,1.2-1.2,1.2h-14.1c-0.7,0-1.2-0.6-1.2-1.2l0,0
			C102.1,134.4,102.7,133.8,103.4,133.8z"/>
		<path class="st5" d="M101.5,156.4h2.3c0.7,0,1.2,0.6,1.2,1.2v0c0,0.7-0.6,1.2-1.2,1.2h-2.3c-0.7,0-1.2-0.6-1.2-1.2v0
			C100.2,157,100.8,156.4,101.5,156.4z"/>
		<path class="st5" d="M108.8,156.4h2.3c0.7,0,1.2,0.6,1.2,1.2v0c0,0.7-0.6,1.2-1.2,1.2h-2.3c-0.7,0-1.2-0.6-1.2-1.2v0
			C107.6,157,108.2,156.4,108.8,156.4z"/>
		<path class="st5" d="M117.2,156.6h14.1c0.7,0,1.2,0.6,1.2,1.2v0c0,0.7-0.6,1.2-1.2,1.2h-14.1c-0.7,0-1.2-0.6-1.2-1.2v0
			C116,157.2,116.5,156.6,117.2,156.6z"/>
		<path class="st5" d="M75.5,156.4h2.3c0.7,0,1.2,0.6,1.2,1.2v0c0,0.7-0.6,1.2-1.2,1.2h-2.3c-0.7,0-1.2-0.6-1.2-1.2v0
			C74.2,157,74.8,156.4,75.5,156.4z"/>
		<path class="st5" d="M82.6,156.6h14.1c0.7,0,1.2,0.6,1.2,1.2v0c0,0.7-0.6,1.2-1.2,1.2H82.6c-0.7,0-1.2-0.6-1.2-1.2v0
			C81.3,157.2,81.9,156.6,82.6,156.6z"/>
		<path class="st5" d="M82.4,150.8h2.3c0.7,0,1.2,0.6,1.2,1.2l0,0c0,0.7-0.6,1.2-1.2,1.2h-2.3c-0.7,0-1.2-0.6-1.2-1.2l0,0
			C81.2,151.3,81.7,150.8,82.4,150.8z"/>
		<path class="st5" d="M108.4,150.8h2.3c0.7,0,1.2,0.6,1.2,1.2l0,0c0,0.7-0.6,1.2-1.2,1.2h-2.3c-0.7,0-1.2-0.6-1.2-1.2l0,0
			C107.2,151.3,107.7,150.8,108.4,150.8z"/>
		<path class="st5" d="M115.8,150.8h2.3c0.7,0,1.2,0.6,1.2,1.2l0,0c0,0.7-0.6,1.2-1.2,1.2h-2.3c-0.7,0-1.2-0.6-1.2-1.2l0,0
			C114.5,151.3,115.1,150.8,115.8,150.8z"/>
		<path class="st5" d="M89.5,151h14.1c0.7,0,1.2,0.6,1.2,1.2v0c0,0.7-0.6,1.2-1.2,1.2H89.5c-0.7,0-1.2-0.6-1.2-1.2v0
			C88.2,151.5,88.8,151,89.5,151z"/>
		<path class="st5" d="M89.3,145.1h2.3c0.7,0,1.2,0.6,1.2,1.2v0c0,0.7-0.6,1.2-1.2,1.2h-2.3c-0.7,0-1.2-0.6-1.2-1.2v0
			C88.1,145.7,88.7,145.1,89.3,145.1z"/>
		<path class="st5" d="M115.3,145.1h2.3c0.7,0,1.2,0.6,1.2,1.2v0c0,0.7-0.6,1.2-1.2,1.2h-2.3c-0.7,0-1.2-0.6-1.2-1.2v0
			C114.1,145.7,114.7,145.1,115.3,145.1z"/>
		<path class="st5" d="M122.7,145.1h2.3c0.7,0,1.2,0.6,1.2,1.2v0c0,0.7-0.6,1.2-1.2,1.2h-2.3c-0.7,0-1.2-0.6-1.2-1.2v0
			C121.5,145.7,122,145.1,122.7,145.1z"/>
		<path class="st5" d="M96.4,145.4h14.1c0.7,0,1.2,0.6,1.2,1.2v0c0,0.7-0.6,1.2-1.2,1.2H96.4c-0.7,0-1.2-0.6-1.2-1.2v0
			C95.2,145.9,95.7,145.4,96.4,145.4z"/>
		<path class="st5" d="M96.3,139.5h2.3c0.7,0,1.2,0.6,1.2,1.2v0c0,0.7-0.6,1.2-1.2,1.2h-2.3c-0.7,0-1.2-0.6-1.2-1.2v0
			C95,140.1,95.6,139.5,96.3,139.5z"/>
		<path class="st5" d="M122.3,139.5h2.3c0.7,0,1.2,0.6,1.2,1.2v0c0,0.7-0.6,1.2-1.2,1.2h-2.3c-0.7,0-1.2-0.6-1.2-1.2v0
			C121,140.1,121.6,139.5,122.3,139.5z"/>
		<path class="st5" d="M129.6,139.5h2.3c0.7,0,1.2,0.6,1.2,1.2v0c0,0.7-0.6,1.2-1.2,1.2h-2.3c-0.7,0-1.2-0.6-1.2-1.2v0
			C128.4,140.1,129,139.5,129.6,139.5z"/>
		<path class="st5" d="M103.4,139.7h14.1c0.7,0,1.2,0.6,1.2,1.2v0c0,0.7-0.6,1.2-1.2,1.2h-14.1c-0.7,0-1.2-0.6-1.2-1.2v0
			C102.1,140.3,102.7,139.7,103.4,139.7z"/>
		<path class="st0" d="M180.2,237.8c-0.3,0.1-0.5,0.3-0.8,0.4c-6.8,3.4-12.3,5.4-19.8,7.5c-0.6-7.1-1.2-19.5-1.8-27.2
			c-0.2-2-0.3-3.7-0.5-4.9c0-0.6-0.2-1.2-0.4-1.8l0,1.8l0.1,4.9l0.4,27.8c-9.3,2.5-18.9,3.8-28.5,4.1c-0.5,0-1,0-1.5,0
			c-0.2,0-0.3,0-0.5,0c-0.5,0-1.1,0-1.6,0c-10.2,0-20.3-1.2-30.1-3.7c0.2-7,0.4-19.3,0.6-28.3c0-1.8,0.1-3.4,0.1-4.9
			c0.1-3.1,0.2-5.3,0.3-6.1c-0.1,0.1-0.1,0.3-0.2,0.4c-0.4,1.9-0.7,3.8-0.8,5.7c-0.2,1.5-0.3,3.1-0.5,4.9
			c-0.8,9.4-1.6,22.1-2.5,27.5c-5.2-1.4-10.2-3.1-15.2-5.2c-2.6-1.1-5.2-2.3-7.7-3.5c0.5-3.1,1-6.6,1.5-10.2
			c0.4-2.8,0.8-5.7,1.2-8.6c0.6-4.4,1.3-8.7,2-12.5c1-5.6,2-10,3-12.1c1-1.9,1.9-3.9,2.8-5.7c0.3-0.6,0.6-1.3,1-1.9
			c0.1-0.1,0.1-0.3,0.2-0.4c0.7-1.3,1.3-2.6,1.9-3.7c0.5-1,1-1.9,1.5-2.8c1.1-2.1,2.1-3.8,2.8-4.9c3-4.6,7.5-8,12.7-9.6l0.1,0l0.1,0
			l8.9-2.7l1.3-0.4l0.9-0.3l3.1-2.3l1.7-1.3l1.6-1.2l3.1-2.3l18.9,1.2l3.7,8.9l8.3,3l0.1-0.1l0.1-0.1l0.1,0
			c5.2,1.7,9.7,5.1,12.7,9.6c0.4,0.6,0.9,1.4,1.5,2.4c0.5,0.8,1,1.8,1.6,2.8c0.8,1.5,1.7,3.2,2.6,5c0.2,0.4,0.4,0.8,0.6,1.2
			c0.4,0.8,0.8,1.5,1.2,2.3c0.9,1.8,1.9,3.8,2.8,5.7c0.8,1.7,1.7,5.2,2.5,9.6c0.7,3.7,1.4,8,2,12.5c0.9,5.9-0.1,12.9,0.7,18.3
			C180.1,237.1,180.1,237.5,180.2,237.8z"/>
		<circle class="st6" cx="125.5" cy="125.2" r="22"/>
		<polygon class="st7" points="89.4,206 93.1,191.7 96.3,204 		"/>
		<path class="st3" d="M187.4,196.7c-1.3,18.1,0,26.1-7.2,41.1c-6.6,3.2-13.5,5.9-20.6,7.9c-0.7,0.2-1.5,0.4-2.2,0.6
			c-9.3,2.5-18.9,3.8-28.5,4.1c-0.5,0-1,0-1.5,0c-0.2,0-0.3,0-0.5,0c-0.5,0-1.1,0-1.6,0c-10.2,0-20.3-1.2-30.1-3.7
			c-1-0.2-2-0.5-3-0.8c-5.2-1.4-10.2-3.1-15.2-5.2c-2.6-1.1-5.2-2.3-7.7-3.5c-0.6-0.3-1.1-0.6-1.7-0.9c-2.9-5.1-4.5-11.2-4.5-18.6
			C65.1,205.1,183,185.7,187.4,196.7z"/>
		<path class="st7" d="M187.4,199.8c0.1-1.1,0.1-2.3,0.2-3.5c-4.4-11-122.3,8.5-124.3,21.2c0,1.2,0.1,2.3,0.1,3.4
			C68.3,208.3,180.3,189.9,187.4,199.8z"/>
		<path class="st3" d="M70.7,148.3c0.1-1.5-1-2.8-2.5-3c-0.1,0-0.3,0-0.4,0c-0.1,0-0.3,0-0.4,0.1l-17.2,3.9
			c-0.8,0.2-1.4,0.7-1.8,1.4c-0.3,0-0.5,0-0.7,0.1c-2.3,0.5-3.7,2.8-3.2,5c0.5,2.3,2.8,3.7,5,3.2c0.6-0.1,1.2-0.4,1.7-0.8l5.8,16.4
			c0.6,1.1,1.8,1.6,3,1.3l11.2-2.5c1.2-0.3,2-1.3,2.1-2.5L70.7,148.3z M49.1,157.8c-1.6,0.4-3.2-0.6-3.6-2.3
			c-0.4-1.6,0.6-3.2,2.2-3.6c0.1,0,0.1,0,0.2,0c0,0.5,0.1,1,0.4,1.4l2.1,3.7C50.1,157.4,49.6,157.6,49.1,157.8z"/>
		<path class="st0" d="M67.7,145.3c0.2,2.2-3.6,4.7-8.6,5.7c-4.6,0.9-8.7,0.3-9.9-1.4c0.2-0.1,0.5-0.2,0.7-0.3l17.2-3.9
			C67.5,145.3,67.6,145.3,67.7,145.3z"/>
		<path class="st6" d="M55.8,200.6l9.7-4.8L57.4,174l-2.1-11c-0.9-4.5-5.2-7.4-9.7-6.6c-1.4,0.3-2.7,0.9-3.8,1.8l0,0
			c-3.4,2.9-3.9,8-1.1,11.5l7.9,9.9L55.8,200.6z"/>
		<path class="st0" d="M65.5,191.7l-12.9,6.5l9.8,30.7c1.4,4.5,5.1,7.9,9.7,9l0,0c5.7,1.4,11.6-1.1,14.6-6.2l26-44.5
			c3.8-6.4,1.9-14.6-4.4-18.6l0,0c-6.4-4-14.9-2.1-18.9,4.2c-0.3,0.4-0.5,0.8-0.7,1.3l-15.8,33.8L65.5,191.7z"/>
		<path class="st4" d="M61.5,164C61.5,164,61.5,164,61.5,164l-2.9-1c-0.1,0-0.2-0.2-0.1-0.3c0,0,0-0.1,0-0.1l2.1-2.3
			c0.1-0.1,0.2-0.1,0.3,0c0.1,0.1,0.1,0.2,0,0.3c0,0,0,0,0,0l-1.9,2l2.5,0.9c0.1,0,0.2,0.2,0.1,0.3C61.7,163.9,61.6,164,61.5,164z"
			/>
		<path class="st4" d="M65.4,163.2c-0.1,0-0.2-0.1-0.2-0.2c0-0.1,0-0.1,0.1-0.2l1.9-1.8l-2.6-1.1c-0.1,0-0.2-0.2-0.1-0.3
			c0-0.1,0.2-0.2,0.3-0.1c0,0,0,0,0,0l2.9,1.2c0.1,0,0.2,0.2,0.1,0.3c0,0,0,0.1,0,0.1l-2.1,2.1C65.5,163.2,65.4,163.2,65.4,163.2z"
			/>
		<path class="st4" d="M62.1,165.3C62.1,165.3,62.1,165.3,62.1,165.3c-0.2,0-0.2-0.2-0.2-0.3c0,0,0,0,0,0l2-6.5
			c0-0.1,0.2-0.2,0.3-0.1c0.1,0,0.2,0.2,0.1,0.3l-2,6.5C62.3,165.2,62.2,165.3,62.1,165.3z"/>
		<path class="st8" d="M153.9,145.7c-2.8,1.7-8.3,0.6-8.3,0.6s-3.4,2.8-5.8,2c-1.2-0.4-4.6-2.1-3.2-2.9c0.5-0.3-1.1-1.1-1.6-2.4
			c-0.6-1.3,1.4-3.4,1.4-3.4s-4.5,0.8-5.1-1.2c-0.6-2,2-4.7,2-4.7s-3.1-2-3.9-5.6c-0.8-3.6,1.9-2.3,1.9-2.3s-4.6-2.6-1.1-7.2
			c-0.2,0.2-2.9,3.5-4.6,0.5c0,0-4.8,3.2-6.8,1.6c-2-1.6-0.3-3-0.3-3s-5.9,3.8-6.2,1c0,0-2.6,2.1-5-0.9c-2.4-3-0.6-6.6-0.6-6.6
			s-1.4,1.8-2.3-0.7c0,0-3.5,0.7-4.9-1.1c-1.4-1.8,0.2-5.3,0.2-5.3s-3.3-5.8,0.6-8.1c3.9-2.3,5.5-1.9,5.5-1.9s2.2-5.2,4.6-6.7
			c2.4-1.5,3.8-0.3,3.8-0.3s1-4.2,4.9-5.6c2-0.7,3.4-0.1,4.3,0.7c0.9,0.7,4.6,0.9,4.6,0.9s1.6-2.3,3-2.1c1.4,0.3,1.2,1.8,1.2,1.8
			s5.4-3.4,8.2-1.3c2.8,2,2.2,5,2.2,5s5-3,6.5-1.6c1.5,1.4,0.7,3.2,0.7,3.2s7.1,0.6,6,5.3c0,0,1.2-0.6,2.2,0.5
			c1.1,1.2,0.5,2.9,0.5,2.9s4-1.5,5.7,1.2c1.7,2.6,0.8,11.6,0.8,11.6s2.4,1.7,3.3,6.3c0.9,4.5-1,6.1-1,6.1s0.8,2.5,1.5,5.7
			c0.7,3.2-2.7,1.2-2.7,1.2s0.9,6.9-3,10.5c-0.2,0.2-0.4,0.3-0.6,0.5c-3.6,2.9-6.3,1.1-6.3,1.1S156.6,144,153.9,145.7z"/>
	</g>
</g>
</svg>
