<?xml version="1.0" encoding="utf-8"?>
<!-- Generator: Adobe Illustrator 25.0.0, SVG Export Plug-In . SVG Version: 6.00 Build 0)  -->
<svg version="1.1" id="Camada_1" xmlns="http://www.w3.org/2000/svg" xmlns:xlink="http://www.w3.org/1999/xlink" x="0px" y="0px"
	 viewBox="0 0 250.5 250.5" style="enable-background:new 0 0 250.5 250.5;" xml:space="preserve">
<style type="text/css">
	.st0{fill:#3F3D56;}
	.st1{fill:#DAD9F4;}
	.st2{fill:#CACACA;}
	.st3{fill:#F2F2F2;}
	.st4{fill:#E6E6E6;}
	.st5{fill:#282838;}
	.st6{fill:#FFCEBB;}
	.st7{fill:#5E38FF;}
	.st8{fill:#2F2E41;}
	.st9{fill:#2D2D3F;}
	.st10{fill:#FFB9B9;}
	.st11{fill:#D69680;}
	.st12{fill:#FDB797;}
	.st13{opacity:5.000000e-02;enable-background:new    ;}
	.st14{opacity:0.1;enable-background:new    ;}
	.st15{fill:#D0CEEA;}
	.st16{fill:#CE8D7A;}
</style>
<g>
	<path class="st0" d="M140.9,206.8h1.7c0.1,0,0.2,0.1,0.2,0.2v0.9c0,0.1-0.1,0.2-0.2,0.2h-1.7c-0.1,0-0.2-0.1-0.2-0.2V207
		C140.7,206.9,140.8,206.8,140.9,206.8z"/>
	<path class="st0" d="M145.2,206.8h1.7c0.1,0,0.2,0.1,0.2,0.2v0.9c0,0.1-0.1,0.2-0.2,0.2h-1.7c-0.1,0-0.2-0.1-0.2-0.2V207
		C145,206.9,145.1,206.8,145.2,206.8z"/>
	<path class="st0" d="M149.6,206.8h1.7c0.1,0,0.2,0.1,0.2,0.2v0.9c0,0.1-0.1,0.2-0.2,0.2h-1.7c-0.1,0-0.2-0.1-0.2-0.2V207
		C149.3,206.9,149.4,206.8,149.6,206.8z"/>
	<path class="st0" d="M153.9,206.8h1.7c0.1,0,0.2,0.1,0.2,0.2v0.9c0,0.1-0.1,0.2-0.2,0.2h-1.7c-0.1,0-0.2-0.1-0.2-0.2V207
		C153.7,206.9,153.8,206.8,153.9,206.8z"/>
	<path class="st0" d="M158.2,206.8h1.7c0.1,0,0.2,0.1,0.2,0.2v0.9c0,0.1-0.1,0.2-0.2,0.2h-1.7c-0.1,0-0.2-0.1-0.2-0.2V207
		C158,206.9,158.1,206.8,158.2,206.8z"/>
	<path class="st0" d="M140.8,209h1.7c0.1,0,0.2,0.1,0.2,0.2v0.9c0,0.1-0.1,0.2-0.2,0.2h-1.7c-0.1,0-0.2-0.1-0.2-0.2v-0.9
		C140.6,209.1,140.7,209,140.8,209z"/>
	<path class="st0" d="M145.2,209h1.7c0.1,0,0.2,0.1,0.2,0.2v0.9c0,0.1-0.1,0.2-0.2,0.2h-1.7c-0.1,0-0.2-0.1-0.2-0.2v-0.9
		C145,209.1,145.1,209,145.2,209z"/>
	<path class="st0" d="M149.5,209h1.7c0.1,0,0.2,0.1,0.2,0.2v0.9c0,0.1-0.1,0.2-0.2,0.2h-1.7c-0.1,0-0.2-0.1-0.2-0.2v-0.9
		C149.3,209.1,149.4,209,149.5,209z"/>
	<path class="st0" d="M153.8,209h1.7c0.1,0,0.2,0.1,0.2,0.2v0.9c0,0.1-0.1,0.2-0.2,0.2h-1.7c-0.1,0-0.2-0.1-0.2-0.2v-0.9
		C153.6,209.1,153.7,209,153.8,209z"/>
	<path class="st0" d="M158.2,209h1.7c0.1,0,0.2,0.1,0.2,0.2v0.9c0,0.1-0.1,0.2-0.2,0.2h-1.7c-0.1,0-0.2-0.1-0.2-0.2v-0.9
		C158,209.1,158.1,209,158.2,209z"/>
	<path class="st0" d="M173.5,99.1h-6.3c-0.3,0-0.5,0.2-0.5,0.5c0,0.3,0.2,0.5,0.5,0.5h6.3c0.3,0,0.5-0.2,0.5-0.5
		C174,99.4,173.7,99.1,173.5,99.1z"/>
	<path class="st0" d="M173.5,100.9h-6.3c-0.3,0-0.5,0.2-0.5,0.5c0,0.3,0.2,0.5,0.5,0.5h6.3c0.3,0,0.5-0.2,0.5-0.5
		C174,101.2,173.7,100.9,173.5,100.9z"/>
	<path class="st0" d="M173.5,102.7h-6.3c-0.3,0-0.5,0.2-0.5,0.5c0,0.3,0.2,0.5,0.5,0.5h6.3c0.3,0,0.5-0.2,0.5-0.5
		C174,103,173.7,102.7,173.5,102.7z"/>
	<g>
		<path class="st1" d="M250.5,125.2c0,29.6-10.4,58.2-29.5,80.7c-0.7,0.8-1.4,1.6-2.1,2.4c-8.5,9.5-18.3,17.7-29.2,24.3
			c-2.5,1.5-5.1,2.9-7.7,4.3c-0.3,0.1-0.5,0.3-0.8,0.4c-0.3,0.2-0.6,0.3-1,0.5c-6.6,3.2-13.5,5.9-20.6,7.9c-0.7,0.2-1.5,0.4-2.2,0.6
			c-9.3,2.5-18.9,3.8-28.5,4.1c-0.5,0-1,0-1.5,0c-0.2,0-0.3,0-0.5,0c-0.5,0-1.1,0-1.6,0c-10.2,0-20.3-1.2-30.1-3.7
			c-1-0.2-2-0.5-3-0.8c-5.2-1.4-10.2-3.1-15.2-5.2c-2.6-1.1-5.2-2.3-7.7-3.5c-0.6-0.3-1.1-0.6-1.7-0.9c-0.2-0.1-0.5-0.2-0.7-0.4
			c-13.4-7.1-25.3-16.5-35.4-27.8c-0.7-0.8-1.4-1.6-2-2.4c-44.6-52.9-37.9-131.9,15-176.5c2.1-1.8,4.3-3.5,6.5-5.1
			c0.7-0.5,1.4-1,2.1-1.6c0.1-0.1,0.3-0.2,0.4-0.3c12.7-8.9,27-15.4,42.1-19c0.9-0.2,1.7-0.4,2.6-0.6C114.6-0.7,131.5-1,147.9,2
			c0.9,0.2,1.7,0.3,2.6,0.5c15,3.1,29.2,8.9,42.1,17.1c0.3,0.2,0.6,0.4,0.9,0.6c0.6,0.4,1.2,0.8,1.7,1.1
			C229.7,44.6,250.5,83.5,250.5,125.2z"/>
		<path class="st2" d="M180.4,171.5L180.4,171.5c-0.6-4.3-0.8-8.7-0.5-13.1l0.5-7.2l0,0C177.6,156.7,178.2,164,180.4,171.5
			L180.4,171.5z"/>
		<path class="st2" d="M182.5,172.7L182.5,172.7c-0.3-2.6-0.4-5.2-0.2-7.8l0.2-4.3l0,0C181.2,163.9,181.5,168.2,182.5,172.7z"/>
		<path class="st3" d="M192.2,178v2.4c0,0.4-0.3,0.7-0.7,0.7h-1.2c-0.1,0-0.2,0.1-0.2,0.2c0,0,0,0,0,0v19.8c0,0.4-0.3,0.7-0.7,0.7
			h-14.8c-0.4,0-0.7-0.3-0.7-0.7v-19.8c0-0.1-0.1-0.2-0.2-0.2h-1.5c-0.4,0-0.7-0.3-0.7-0.7V178c0-0.4,0.3-0.7,0.7-0.7c0,0,0,0,0,0
			h19.3C191.9,177.3,192.2,177.6,192.2,178z"/>
		<rect x="173.9" y="181.6" class="st4" width="16.2" height="0.7"/>
		<path class="st4" d="M190,192.3c-5.4,2.2-10.9,2.3-16.4,0v-5.1c5.3-1.8,11.1-1.8,16.4,0V192.3z"/>
		<circle class="st5" cx="112.2" cy="102.2" r="8.8"/>
		<path class="st5" d="M114.6,93.6c4.9,0,8.8,3.9,8.8,8.8c0,1.5-0.4,2.9-1.1,4.2c3-3.8,2.4-9.3-1.4-12.4c-3.8-3-9.3-2.4-12.4,1.4
			c-0.3,0.4-0.6,0.9-0.9,1.3C109.4,94.9,111.9,93.6,114.6,93.6z"/>
		<circle class="st5" cx="95.7" cy="76.3" r="25.9"/>
		<path class="st5" d="M75.4,60.3c9.3-10.4,25.1-11.6,35.8-2.7c-0.2-0.2-0.4-0.4-0.6-0.6c-10.7-9.5-27-8.5-36.5,2.2
			c-9.5,10.7-8.5,27,2.1,36.5c0.2,0.2,0.4,0.4,0.7,0.6C66.8,86.6,66.2,70.7,75.4,60.3z"/>
		<circle class="st6" cx="95.5" cy="85.3" r="16.7"/>
		<path class="st7" d="M104,106.5l-17.8,0.8c0,0,1.5,9.2-8.2,10.1c-9.6,0.9-18.4-1.8-21.9,4.8c-3.5,6.6-2,30-2,30
			s6.6,23.7,11.8,27.2c5.3,3.5,51.3-1.3,51.3-1.3l19.3-24.3l-0.7-18.8c-0.3-9.8-9.3-17.1-18.9-15.3c-0.2,0-0.4,0.1-0.6,0.1
			c-0.3,0.1-2.1-1.6-7.9-4.5C104.9,113.5,104,106.5,104,106.5z"/>
		<path class="st8" d="M65.3,116.9c0,0,4.2,7.7,2.5,18.6c-1.8,11,5.6,34.1,5.6,34.1l5.3-1.3c0,0-3.5-22.8-2.6-28
			c0.9-5.3,1.1-20.8-3.3-23.4C68.4,114.3,65.3,116.9,65.3,116.9z"/>
		<path class="st8" d="M116,121l1.8,48.5l3.5,2.2c0,0,5-53.2,2.4-53.2h-5.4c-1.3,0-2.4,1.1-2.4,2.4l0,0C116,120.9,116,120.9,116,121
			z"/>
		<circle class="st7" cx="75.8" cy="166.4" r="2.2"/>
		<circle class="st7" cx="119.6" cy="168.6" r="2.2"/>
		<polygon class="st5" points="81.3,64.5 81.3,81.1 85.1,81.1 90,75.9 89.4,81.1 106.4,81.1 105.4,75.9 107.5,81.1 110.2,81.1 
			110.2,64.5 		"/>
		<ellipse class="st6" cx="78.6" cy="81.8" rx="1.3" ry="2.4"/>
		<ellipse class="st6" cx="112.4" cy="81.8" rx="1.3" ry="2.4"/>
		<path class="st0" d="M148.8,197.6v1.5c0,0.4-0.1,0.8-0.2,1.2c-0.1,0.2-0.1,0.3-0.2,0.5c-0.6,1-1.6,1.6-2.8,1.6h-108
			c-1.1,0-2.2-0.6-2.8-1.6c-0.1-0.2-0.2-0.3-0.2-0.5c-0.1-0.4-0.2-0.8-0.2-1.2v-1.5c0-1.8,1.5-3.2,3.2-3.2h0h6.2v-0.7
			c0-0.1,0.1-0.1,0.1-0.1h0h3.2c0.1,0,0.1,0.1,0.1,0.1v0.7h2v-0.7c0-0.1,0.1-0.1,0.1-0.1h0h3.2c0.1,0,0.1,0.1,0.1,0.1v0.7h2v-0.7
			c0-0.1,0.1-0.1,0.1-0.1h0h3.2c0.1,0,0.1,0.1,0.1,0.1v0.7h2v-0.7c0-0.1,0.1-0.1,0.1-0.1h0h3.2c0.1,0,0.1,0.1,0.1,0.1v0.7h2v-0.7
			c0-0.1,0.1-0.1,0.1-0.1h0h3.2c0.1,0,0.1,0.1,0.1,0.1v0.7h2v-0.7c0-0.1,0.1-0.1,0.1-0.1h0H75c0.1,0,0.1,0.1,0.1,0.1v0.7h2v-0.7
			c0-0.1,0.1-0.1,0.1-0.1l0,0h25.4c0.1,0,0.1,0.1,0.1,0.1l0,0v0.7h2v-0.7c0-0.1,0.1-0.1,0.1-0.1l0,0h3.2c0.1,0,0.1,0.1,0.1,0.1v0.7
			h2v-0.7c0-0.1,0.1-0.1,0.1-0.1l0,0h3.2c0.1,0,0.1,0.1,0.1,0.1l0,0v0.7h2v-0.7c0-0.1,0.1-0.1,0.1-0.1l0,0h3.2
			c0.1,0,0.1,0.1,0.1,0.1l0,0v0.7h2v-0.7c0-0.1,0.1-0.1,0.1-0.1l0,0h3.2c0.1,0,0.1,0.1,0.1,0.1v0.7h2v-0.7c0-0.1,0.1-0.1,0.1-0.1
			l0,0h3.2c0.1,0,0.1,0.1,0.1,0.1l0,0v0.7h2v-0.7c0-0.1,0.1-0.1,0.1-0.1l0,0h3.2c0.1,0,0.1,0.1,0.1,0.1l0,0v0.7h9.5
			C147.4,194.3,148.8,195.8,148.8,197.6L148.8,197.6z"/>
		<path class="st0" d="M140.1,135.8H41.2c-1.5,0-2.7,1.2-2.7,2.7l0,0v55.1c0,1.5,1.2,2.7,2.7,2.7h98.9c1.5,0,2.7-1.2,2.7-2.7v-55.1
			C142.9,137,141.7,135.8,140.1,135.8L140.1,135.8z"/>
		<circle class="st7" cx="90.8" cy="155" r="6"/>
		<polygon class="st0" points="128.2,115.1 158.7,84.3 173.1,84.3 173.1,83.8 158.5,83.8 158.4,83.9 127.8,114.7 		"/>
		<rect x="190.7" y="71.7" class="st7" width="35.4" height="3.2"/>
		<path class="st0" d="M186.4,76.8h-7.5v-7.5h7.5V76.8z M179.4,76.3h6.5v-6.5h-6.5L179.4,76.3z"/>
		<rect x="190.7" y="82.2" class="st7" width="35.4" height="3.2"/>
		<path class="st0" d="M186.4,87.3h-7.5v-7.5h7.5V87.3z M179.4,86.8h6.5v-6.5h-6.5L179.4,86.8z"/>
		<rect x="190.7" y="92.7" class="st7" width="35.4" height="3.2"/>
		<path class="st0" d="M186.4,97.8h-7.5v-7.5h7.5V97.8z M179.4,97.3h6.5v-6.5h-6.5L179.4,97.3z"/>
	</g>
	<path class="st9" d="M32.5,207.4c0.7,0.8,1.3,1.5,2,2.3c9.7,10.9,21.3,20.1,34.3,26.9c0.2,0.1,0.5,0.2,0.7,0.4
		c0.5,0.3,1.1,0.6,1.6,0.8c2.4,1.2,4.9,2.3,7.4,3.4c4.8,2,9.7,3.7,14.7,5.1c0.9,0.3,1.9,0.5,2.9,0.7c9.6,2.4,19.4,3.5,29.2,3.5
		c0.5,0,1,0,1.6,0c0.2,0,0.3,0,0.5,0c0.5,0,0.9,0,1.4,0c9.3-0.3,18.6-1.6,27.6-4c0.7-0.2,1.4-0.4,2.1-0.6c6.9-2,13.5-4.5,19.9-7.6
		c0.3-0.2,0.6-0.3,0.9-0.5c0.3-0.1,0.5-0.3,0.8-0.4c2.5-1.3,5-2.7,7.4-4.1c10.6-6.4,20.1-14.3,28.3-23.5c0.7-0.8,1.4-1.6,2.1-2.4
		c3-3.5,5.7-7.2,8.3-11h-202C26.7,200.1,29.5,203.8,32.5,207.4z"/>
</g>
<g>
	<path class="st1" d="M95.4,129.6C95.4,129.6,95.4,129.6,95.4,129.6l-1.7,6.1l3.4,0C96.2,132.2,95.4,129.6,95.4,129.6z"/>
	<path class="st1" d="M167.6,167.1c0-0.3,0.1-0.6,0.1-1l-4.3,2.1C164.7,167.8,166.1,167.5,167.6,167.1z"/>
	<path class="st1" d="M154.9,136.6c0.6,0,1.3,0.1,1.8,0.3l-3.5-11.8l-0.1,0.1c0.6,4.5-0.8,8.7-2.1,11.3l3.8,0.1
		C154.8,136.6,154.9,136.6,154.9,136.6z"/>
	<polygon class="st1" points="161.3,152 161.3,151.8 161.3,152.2 	"/>
	<path class="st1" d="M13.8,125.8c0,0,7.1,8.9,9.6,21c9.1-8.5,20.3-11.7,20.3-11.7s2.5,17.7-6.6,31.6c-5.2,8-13.2,13.1-19,15.9
		c9.6-1.1,19.7-2,30.3-2.6c-5.3-7.3-0.5-15.3,4-21.5c2.6-3.5,10.9-1.4,19.7,2.1c-0.3-0.8-0.5-1.7-0.7-2.6c-0.5-2.7,6-24.5,6.5-31.6
		c0.5-7.1,5.4-19.6,5.4-19.6l0.1-0.1c0.9-4.5,7.1-6.1,9.1-8.1c2.2-2.2,9.7-1.3,9.7-1.3c5.9-3.2,9.1-6.1,10.9-8.5
		c-2.5-2.5-4.2-5.7-4.8-9.4c-3.5-7.1-1-16-1-16c-1.1,0.4-3.3-0.9-3.3-0.9s2.2,0.6,6.4-5.2c3.6-4.9,8-3.7,9.2-3.2c0,0,0,0,0-0.1
		c-0.5-1.5-1.9-6.3,2.9-8.5c0,0-2.6,3.7-2.6,7.8c2-3.4,6.7-6.5,17.2-4.5c0,0,4.9,0.3,5.3-1.7c0,0,1.2,4.8-1.2,6.1
		c0,0,4.6,0.7,5.9,5.7c1.4,5,5.5,6.6,5.5,6.6s-2.4,1.3-4.6,0.7c0.8,0.7,1.6,2,1.5,4.7c-0.2,5-6.7,8.7-6.7,8.7s-0.1,0-0.3,0
		c-0.8,4.5-3.4,8.3-7,10.9c2.3,1.5,5.4,2.5,7.5,3c1.4-0.8,10.4,1.6,10.4,1.6c7.6,0,12.5,14.7,12.5,14.7v0l0,0c0,0,2.7,6.5,2.7,8.2
		s5.4,25.6,6,26.7c0.5,1.1,2.7,14.7,0,18c-1.1,1.4-2.7,2.6-4.1,3.5c13.3-2.9,30-4.2,29.7,8c-0.1,5.4-2.3,9.7-5.4,13.1
		c2.8,0.5,5.6,1.1,8.3,1.7v-41.6c0,0,0.1,0,0.2,0.1c-0.2-0.1-0.2-0.3-0.2-0.4c0-1.1,4.2-2,9.3-2c5.1,0,9.3,0.9,9.3,2c0,0,0,0,0,0
		c0,0,0,0,0,0V194c1.9,0.6,3.8,1.2,5.6,1.8c13.9-20.1,22-44.4,22-70.6c0-68.7-55.7-124.3-124.3-124.3S0.9,56.6,0.9,125.2
		c0,6.9,0.6,13.7,1.7,20.3C6.1,133.9,13.8,125.8,13.8,125.8z"/>
	<path class="st0" d="M37.1,166.7c9.1-13.9,6.6-31.6,6.6-31.6s-11.2,3.2-20.3,11.7c0.6,3,1,6.2,0.8,9.5c-0.5,11-6.1,20.4-9.8,25.5
		c0.2,0.4,0.4,0.7,0.6,1.1c1-0.1,2-0.2,3.1-0.4C23.9,179.8,31.9,174.8,37.1,166.7z"/>
	<path class="st7" d="M23.4,146.8c-2.5-12.1-9.6-21-9.6-21s-7.7,8.1-11.3,19.7c2.1,12.9,6.2,25.1,12,36.3c3.7-5.1,9.3-14.5,9.8-25.5
		C24.4,153,24.1,149.8,23.4,146.8z"/>
	<path class="st0" d="M222,196.9c0,0.9-0.5,1-1.2,1.4c-2.5,1.4-8.7,3.9-16.2-0.1c-0.8-0.4-1.2-0.5-1.2-1.4v-7.7
		c-2.7-0.6-5.4-1.2-8.3-1.7c-8.5,9.5-24,12.4-24,12.4l-2.1,0.3c-1.1,1-2.4,2-3.9,3c-1,0.7-2.4,1.3-4.1,1.9
		c-0.1,4.8-0.2,10.1-0.2,10.1s-4.4,2.7-5.4,1.6s-12-3.3-12-3.3l-1.6-1.4l-10.1-2.5c-1.3,2.2-2.4,3.8-2.4,3.8s-5.9-2-14.5-4.9
		c-2.6-0.1-5-0.4-7.4-0.6c-2.1,1.4-4.3,2.8-5.4,3.3c-2.2,1.1-10.3,3.3-13.1,2.2c-1.7-0.7-3.2-7.1-4.1-11.8c-3.3-2.1-6.2-4.6-8.4-6.8
		c-7.8-3-14.6-5.8-19.1-8c-4.3-2.2-7.1-4.5-8.9-6.9c-10.5,0.6-20.7,1.5-30.3,2.6c-1,0.1-2.1,0.2-3.1,0.4
		c20.8,39.6,62.3,66.6,110.2,66.6c42.5,0,79.9-21.3,102.4-53.8c-1.8-0.6-3.6-1.2-5.6-1.8V196.9z"/>
	<path class="st10" d="M123.7,113.3c24.5-2.7,19.1-18,19.3-19.3c0-0.1,0.1-0.2,0.2-0.2c-2.1-0.5-5.2-1.5-7.5-3
		c-2.9,2.1-6.4,3.3-10.1,3.3c-4.9,0-9.3-2-12.4-5.2c-1.7,2.4-4.9,5.4-10.9,8.5h0C102.7,111.8,123.7,113.3,123.7,113.3z"/>
	<path class="st11" d="M123.7,113.3c24.5-2.7,19.1-18,19.3-19.3c0-0.1,0.1-0.2,0.2-0.2c-2.1-0.5-5.2-1.5-7.5-3
		c-2.9,2.1-6.4,3.3-10.1,3.3c-4.9,0-9.3-2-12.4-5.2c-1.7,2.4-4.9,5.4-10.9,8.5h0C102.7,111.8,123.7,113.3,123.7,113.3z"/>
	<path class="st12" d="M125.6,94c3.8,0,7.3-1.2,10.1-3.3c3.6-2.6,6.1-6.4,7-10.9c-1.5-0.3-8.3-1.6-11.4-6.3
		c-0.5-0.7-0.9-1.3-1.4-1.8c-1,2.3-0.3,5.5-0.3,5.5c-5.7-2-7.6-6-8.2-7.8c-0.2-0.1-0.4-0.2-0.6-0.2c-0.1,0-0.2-0.1-0.3-0.1
		c-1.9,2-0.5,6.5-0.5,6.5c-2.2-1.4-2.8-4.1-2.9-6.2l0,0c0,0-2,6.5-4.9,7.5c0,0,0.4-2.6,0-4c-2.3,3.4-3.6,6.9-3.6,6.9
		c-0.1-0.2-0.2-0.3-0.2-0.5c0.6,3.6,2.3,6.9,4.8,9.4C116.4,92,120.8,94,125.6,94z"/>
	<path class="st7" d="M97,123.7l-1.6,6c0,0,0,0,0,0s0.8,2.6,1.7,6.1l53.9,0.8c1.3-2.6,2.8-6.8,2.1-11.3l0.1-0.1l-1.8-5.8l10.3-14.2
		l4.4,4.9v0c0,0-4.9-14.7-12.5-14.7c0,0-9-2.4-10.4-1.6c-0.1,0.1-0.2,0.1-0.2,0.2c-0.3,1.4,5.2,16.6-19.3,19.3c0,0-21-1.5-21.4-16h0
		c0,0-7.5-0.9-9.7,1.3c-2,2-8.2,3.6-9.1,8.1l2-1.5L97,123.7z"/>
	<path class="st12" d="M77.4,162.8c3.3,1.5,6.5,3.1,9.3,4.5v-10.1C82.3,156.9,79.2,160.3,77.4,162.8z"/>
	<path class="st12" d="M163.3,168.2l4.3-2.1c0.4-3.2,0-8.9-6.6-9.7l-0.5,12.6C161.4,168.7,162.4,168.5,163.3,168.2z"/>
	<path class="st8" d="M107.3,208c2.3,0.3,4.8,0.5,7.4,0.6c-1.7-0.6-3.5-1.2-5.4-1.9C108.7,207.1,108,207.6,107.3,208z"/>
	<path class="st13" d="M107.3,208c2.3,0.3,4.8,0.5,7.4,0.6c-1.7-0.6-3.5-1.2-5.4-1.9C108.7,207.1,108,207.6,107.3,208z"/>
	<path class="st8" d="M149.7,180.2l-0.5-1.2l-44.3-0.7l2,1.4l0.9,5.2c3.5,1.3,8.4,3.4,13.2,5.5c2.3-0.7,4.2-1.3,4.4-1.5
		C125.7,188.6,139.8,183.6,149.7,180.2z"/>
	<path class="st13" d="M149.7,180.2l-0.5-1.2l-44.3-0.7l2,1.4l0.9,5.2c3.5,1.3,8.4,3.4,13.2,5.5c2.3-0.7,4.2-1.3,4.4-1.5
		C125.7,188.6,139.8,183.6,149.7,180.2z"/>
	<path class="st8" d="M161,201c0,1.2,0,2.6,0,4c1.7-0.6,3.1-1.2,4.1-1.9c1.4-1,2.7-2,3.9-3l-6.6,0.8L161,201z"/>
	<path class="st13" d="M161,201c0,1.2,0,2.6,0,4c1.7-0.6,3.1-1.2,4.1-1.9c1.4-1,2.7-2,3.9-3l-6.6,0.8L161,201z"/>
	<path class="st8" d="M181.4,165.6l9.3,1.6l-2.7,7.1l-35.4,12.5l-2.9-6.6c-9.9,3.4-24,8.4-24.3,8.8c-0.2,0.2-2.1,0.8-4.4,1.5
		c8.3,3.6,16.4,7.3,16.4,7.3c0,0.3-0.1,0.7-0.2,1.1l4.3,0.7l0.8-1.2c3.8,1.1,10.3-0.5,10.9-1.6c0.5-1.1,7.1,0,7.6,1.1
		c0.1,0.3,0.2,1.6,0.2,3.3l1.4,0l6.6-0.8l2.1-0.3c0,0,15.5-2.9,24-12.4c3.1-3.5,5.2-7.8,5.4-13.1c0.3-12.2-16.4-10.9-29.7-8
		c-1.1,0.7-2.1,1.3-2.8,1.6L181.4,165.6z"/>
	<path class="st14" d="M181.4,165.6l9.3,1.6l-2.7,7.1l-35.4,12.5l-2.9-6.6c-9.9,3.4-24,8.4-24.3,8.8c-0.2,0.2-2.1,0.8-4.4,1.5
		c8.3,3.6,16.4,7.3,16.4,7.3c0,0.3-0.1,0.7-0.2,1.1l4.3,0.7l0.8-1.2c3.8,1.1,10.3-0.5,10.9-1.6c0.5-1.1,7.1,0,7.6,1.1
		c0.1,0.3,0.2,1.6,0.2,3.3l1.4,0l6.6-0.8l2.1-0.3c0,0,15.5-2.9,24-12.4c3.1-3.5,5.2-7.8,5.4-13.1c0.3-12.2-16.4-10.9-29.7-8
		c-1.1,0.7-2.1,1.3-2.8,1.6L181.4,165.6z"/>
	<path class="st8" d="M160.6,169l0,0.5l2.3-0.6l4.5-0.8c0.1-0.2,0.1-0.5,0.2-1c-1.5,0.4-2.9,0.7-4.2,1.1
		C162.4,168.5,161.4,168.7,160.6,169z"/>
	<path class="st14" d="M160.6,169l0,0.5l2.3-0.6l4.5-0.8c0.1-0.2,0.1-0.5,0.2-1c-1.5,0.4-2.9,0.7-4.2,1.1
		C162.4,168.5,161.4,168.7,160.6,169z"/>
	<path class="st8" d="M160.6,169.5l-0.1,3c-0.1,3.7-3.2,6.7-7,6.6l-4.3-0.1l0.5,1.2l2.9,6.6l35.4-12.5l2.7-7.1l-9.3-1.6l-13.4,2.4
		c-0.5,0.2-0.8,0.4-0.8,0.4s0-0.1,0.1-0.2l-4.5,0.8L160.6,169.5z"/>
	<path class="st14" d="M160.6,169.5l-0.1,3c-0.1,3.7-3.2,6.7-7,6.6l-4.3-0.1l0.5,1.2l2.9,6.6l35.4-12.5l2.7-7.1l-9.3-1.6l-13.4,2.4
		c-0.5,0.2-0.8,0.4-0.8,0.4s0-0.1,0.1-0.2l-4.5,0.8L160.6,169.5z"/>
	<path class="st8" d="M86.7,169.7l-16.9-5.2c0,0,3.8,3.3,6.5,4.4c1.3,0.5,6.4,3.6,11.9,6.8c-1-1.2-1.6-2.7-1.6-4.4V169.7z"/>
	<path class="st8" d="M76.4,194.9c2.3,2.2,5.1,4.7,8.4,6.8c-0.3-1.6-0.5-3-0.7-3.9C81.5,196.8,78.9,195.8,76.4,194.9z"/>
	<path class="st8" d="M104.9,178.4l-11.4-0.2c-0.4,0-0.7,0-1-0.1c4.7,2.7,9.1,5,11.1,5.4c0.8,0.2,2.3,0.7,4.1,1.4l-0.9-5.2
		L104.9,178.4z"/>
	<path class="st15" d="M84.1,197.8c0.1,0.9,0.4,2.3,0.7,3.9c0.9,4.7,2.4,11.2,4.1,11.8c2.7,1.1,10.9-1.1,13.1-2.2
		c1.1-0.5,3.3-2,5.4-3.3c0.7-0.4,1.3-0.9,1.9-1.3C101.6,204.1,92.7,200.9,84.1,197.8z"/>
	<path class="st16" d="M140,201.7l1.4-2.2l-4.3-0.7c-0.7,2.6-3.5,7.5-5.6,10.9l10.1,2.5l-1.6-1.4C135.2,207.5,140,201.7,140,201.7z"
		/>
	<path class="st15" d="M161,201c0-1.8-0.1-3-0.2-3.3c-0.5-1.1-7.1-2.2-7.6-1.1c-0.5,1.1-7.1,2.7-10.9,1.6l-0.8,1.2l-1.4,2.2
		c0,0-4.8,5.8,0.1,9l1.6,1.4l1.6,1.4c0,0,10.9,2.2,12,3.3s5.4-1.6,5.4-1.6s0.2-5.3,0.2-10.1C161,203.6,161,202.2,161,201z"/>
	<path class="st8" d="M57.3,186.8c4.5,2.2,11.3,5.1,19.1,8c2.5,1,5.1,1.9,7.8,2.9c8.5,3.2,17.4,6.3,25.1,9c1.9,0.7,3.7,1.3,5.4,1.9
		c8.6,2.9,14.5,4.9,14.5,4.9s1-1.6,2.4-3.8c2.1-3.4,4.8-8.2,5.6-10.9c0.1-0.4,0.2-0.8,0.2-1.1c0,0-8.1-3.7-16.4-7.3
		c-4.8-2.1-9.7-4.2-13.2-5.5c-1.9-0.7-3.3-1.2-4.1-1.4c-2-0.4-6.4-2.8-11.1-5.4c-1.7-0.3-3.2-1.2-4.2-2.4
		c-5.5-3.2-10.6-6.3-11.9-6.8c-2.7-1.1-6.5-4.4-6.5-4.4l16.9,5.2v-2.3c-2.8-1.4-6-3-9.3-4.5c-1,1.5-1.6,2.7-1.6,2.7
		c-2.2-1.8-3.1-3.4-3.7-5c-8.8-3.5-17.2-5.6-19.7-2.1c-4.5,6.2-9.3,14.2-4,21.5C50.1,182.4,53,184.7,57.3,186.8z"/>
	<path class="st7" d="M75.8,165.6c0,0,0.5-1.2,1.6-2.7c1.8-2.6,4.9-5.9,9.3-5.6v-14.6c0,0,0-0.1,0-0.1c0.1-3.8,3.2-6.9,7-6.8l0,0
		l1.7-6.1l1.6-6l-11.4-18.5l-2,1.5l-0.1,0.1c0,0-4.9,12.5-5.4,19.6c-0.5,7.1-7.1,28.9-6.5,31.6c0.2,0.9,0.4,1.8,0.7,2.6
		C72.7,162.2,73.6,163.8,75.8,165.6z"/>
	<path class="st7" d="M151.5,119.3l1.8,5.8l3.5,11.8c2.9,0.9,4.9,3.7,4.8,6.8l-0.3,8.1l0,0.1l0,0.2l-0.2,4.2c6.6,0.8,7,6.5,6.6,9.7
		c0,0.4-0.1,0.7-0.1,1c-0.1,0.4-0.1,0.8-0.2,1c0,0.2-0.1,0.2-0.1,0.2s0.3-0.1,0.8-0.4c0.7-0.3,1.7-0.9,2.8-1.6
		c1.4-0.9,2.9-2.1,4.1-3.5c2.7-3.3,0.5-16.9,0-18c-0.5-1.1-6-25.1-6-26.7s-2.7-8.2-2.7-8.2l0,0l-4.4-4.9L151.5,119.3z"/>
	<path class="st0" d="M104.9,178.4l44.3,0.7l4.3,0.1c3.7,0.1,6.8-2.9,7-6.6l0.1-3l0-0.5l0.5-12.6l0.2-4.2l0-0.3l0.3-8.1
		c0.1-3.2-1.9-5.9-4.8-6.8c-0.6-0.2-1.2-0.3-1.8-0.3c-0.1,0-0.1,0-0.2,0l-3.8-0.1l-53.9-0.8l-3.4,0l0,0c-3.8-0.1-6.9,3-7,6.8
		c0,0,0,0.1,0,0.1v14.6v10.1v2.3v1.7c0,1.7,0.6,3.2,1.6,4.4c1,1.3,2.5,2.1,4.2,2.4c0.3,0.1,0.7,0.1,1,0.1L104.9,178.4z M123.5,153.3
		c2.4,0,4.4,2,4.4,4.4c0,2.4-2,4.4-4.4,4.4c-2.4,0-4.4-2-4.4-4.4C119.1,155.3,121,153.3,123.5,153.3z"/>
	<path class="st3" d="M123.5,162c2.4,0,4.4-2,4.4-4.4c0-2.4-2-4.4-4.4-4.4c-2.4,0-4.4,2-4.4,4.4C119.1,160.1,121,162,123.5,162z"/>
	<path class="st8" d="M204.6,198.3c7.5,3.9,13.7,1.5,16.2,0.1c0.7-0.4,1.2-0.5,1.2-1.4V194v-46.8c0,0,0,0,0,0
		c-0.1,1.1-4.2,1.9-9.3,1.9c-4.4,0-8.1-0.7-9.1-1.5c-0.2-0.1-0.2-0.1-0.2-0.1v41.6v7.7C203.4,197.7,203.9,197.9,204.6,198.3z
		 M204.2,192c-0.1,0-0.2-0.1-0.2-0.2c0-0.1,0.1-0.2,0.2-0.2c0.1,0,0.2,0.1,0.2,0.2C204.4,191.9,204.3,192,204.2,192z M204.2,191
		c-0.1,0-0.2-0.1-0.2-0.2c0-0.1,0.1-0.2,0.2-0.2c0.1,0,0.2,0.1,0.2,0.2C204.4,190.9,204.3,191,204.2,191z M204.2,190
		c-0.1,0-0.2-0.1-0.2-0.2s0.1-0.2,0.2-0.2c0.1,0,0.2,0.1,0.2,0.2S204.3,190,204.2,190z M205.4,192.4c-0.1,0-0.2-0.1-0.2-0.2
		c0-0.1,0.1-0.2,0.2-0.2c0.1,0,0.2,0.1,0.2,0.2C205.6,192.3,205.6,192.4,205.4,192.4z M205.4,191.4c-0.1,0-0.2-0.1-0.2-0.2
		c0-0.1,0.1-0.2,0.2-0.2c0.1,0,0.2,0.1,0.2,0.2C205.6,191.3,205.6,191.4,205.4,191.4z M205.4,190.4c-0.1,0-0.2-0.1-0.2-0.2
		s0.1-0.2,0.2-0.2c0.1,0,0.2,0.1,0.2,0.2S205.6,190.4,205.4,190.4z M206.5,192.6c-0.1,0-0.2-0.1-0.2-0.2c0-0.1,0.1-0.2,0.2-0.2
		c0.1,0,0.2,0.1,0.2,0.2C206.7,192.6,206.7,192.6,206.5,192.6z M206.5,191.6c-0.1,0-0.2-0.1-0.2-0.2s0.1-0.2,0.2-0.2
		c0.1,0,0.2,0.1,0.2,0.2S206.7,191.6,206.5,191.6z M206.5,190.6c-0.1,0-0.2-0.1-0.2-0.2c0-0.1,0.1-0.2,0.2-0.2
		c0.1,0,0.2,0.1,0.2,0.2C206.7,190.5,206.7,190.6,206.5,190.6z M207.7,192.9c-0.1,0-0.2-0.1-0.2-0.2s0.1-0.2,0.2-0.2
		c0.1,0,0.2,0.1,0.2,0.2S207.8,192.9,207.7,192.9z M207.7,191.8c-0.1,0-0.2-0.1-0.2-0.2c0-0.1,0.1-0.2,0.2-0.2
		c0.1,0,0.2,0.1,0.2,0.2C207.9,191.7,207.8,191.8,207.7,191.8z M207.7,190.8c-0.1,0-0.2-0.1-0.2-0.2c0-0.1,0.1-0.2,0.2-0.2
		c0.1,0,0.2,0.1,0.2,0.2C207.9,190.7,207.8,190.8,207.7,190.8z M208.9,193.2c-0.1,0-0.2-0.1-0.2-0.2c0-0.1,0.1-0.2,0.2-0.2
		s0.2,0.1,0.2,0.2C209.2,193.1,209.1,193.2,208.9,193.2z M208.9,192.1c-0.1,0-0.2-0.1-0.2-0.2s0.1-0.2,0.2-0.2s0.2,0.1,0.2,0.2
		S209.1,192.1,208.9,192.1z M208.9,191.1c-0.1,0-0.2-0.1-0.2-0.2s0.1-0.2,0.2-0.2s0.2,0.1,0.2,0.2S209.1,191.1,208.9,191.1z
		 M210.2,193.4c-0.1,0-0.2-0.1-0.2-0.2c0-0.1,0.1-0.2,0.2-0.2c0.1,0,0.2,0.1,0.2,0.2C210.4,193.3,210.3,193.4,210.2,193.4z
		 M210.2,192.3c-0.1,0-0.2-0.1-0.2-0.2s0.1-0.2,0.2-0.2c0.1,0,0.2,0.1,0.2,0.2S210.3,192.3,210.2,192.3z M210.2,191.3
		c-0.1,0-0.2-0.1-0.2-0.2c0-0.1,0.1-0.2,0.2-0.2c0.1,0,0.2,0.1,0.2,0.2C210.4,191.2,210.3,191.3,210.2,191.3z M211.4,193.4
		c-0.1,0-0.2-0.1-0.2-0.2c0-0.1,0.1-0.2,0.2-0.2c0.1,0,0.2,0.1,0.2,0.2C211.6,193.3,211.5,193.4,211.4,193.4z M211.4,192.3
		c-0.1,0-0.2-0.1-0.2-0.2s0.1-0.2,0.2-0.2c0.1,0,0.2,0.1,0.2,0.2S211.5,192.3,211.4,192.3z M211.4,191.3c-0.1,0-0.2-0.1-0.2-0.2
		c0-0.1,0.1-0.2,0.2-0.2c0.1,0,0.2,0.1,0.2,0.2C211.6,191.2,211.5,191.3,211.4,191.3z M212.5,193.4c-0.1,0-0.2-0.1-0.2-0.2
		c0-0.1,0.1-0.2,0.2-0.2c0.1,0,0.2,0.1,0.2,0.2C212.8,193.3,212.7,193.4,212.5,193.4z M212.5,192.3c-0.1,0-0.2-0.1-0.2-0.2
		s0.1-0.2,0.2-0.2c0.1,0,0.2,0.1,0.2,0.2S212.7,192.3,212.5,192.3z M214,193.2c-0.1,0-0.2-0.1-0.2-0.2c0-0.1,0.1-0.2,0.2-0.2
		s0.2,0.1,0.2,0.2C214.2,193.2,214.1,193.2,214,193.2z M214,192.2c-0.1,0-0.2-0.1-0.2-0.2c0-0.1,0.1-0.2,0.2-0.2s0.2,0.1,0.2,0.2
		C214.2,192.1,214.1,192.2,214,192.2z M215.2,193.2c-0.1,0-0.2-0.1-0.2-0.2c0-0.1,0.1-0.2,0.2-0.2s0.2,0.1,0.2,0.2
		C215.4,193.1,215.3,193.2,215.2,193.2z M216.5,192.9c-0.1,0-0.2-0.1-0.2-0.2s0.1-0.2,0.2-0.2c0.1,0,0.2,0.1,0.2,0.2
		S216.6,192.9,216.5,192.9z M221.2,167.6c0.1,0,0.2,0.1,0.2,0.2c0,0.1-0.1,0.2-0.2,0.2c-0.1,0-0.2-0.1-0.2-0.2
		C221,167.7,221.1,167.6,221.2,167.6z M221.2,168.7c0.1,0,0.2,0.1,0.2,0.2s-0.1,0.2-0.2,0.2c-0.1,0-0.2-0.1-0.2-0.2
		S221.1,168.7,221.2,168.7z M221.2,169.7c0.1,0,0.2,0.1,0.2,0.2s-0.1,0.2-0.2,0.2c-0.1,0-0.2-0.1-0.2-0.2S221.1,169.7,221.2,169.7z
		 M221.2,170.7c0.1,0,0.2,0.1,0.2,0.2c0,0.1-0.1,0.2-0.2,0.2c-0.1,0-0.2-0.1-0.2-0.2C221,170.8,221.1,170.7,221.2,170.7z
		 M221.2,171.7c0.1,0,0.2,0.1,0.2,0.2c0,0.1-0.1,0.2-0.2,0.2c-0.1,0-0.2-0.1-0.2-0.2C221,171.8,221.1,171.7,221.2,171.7z
		 M221.2,172.8c0.1,0,0.2,0.1,0.2,0.2c0,0.1-0.1,0.2-0.2,0.2c-0.1,0-0.2-0.1-0.2-0.2C221,172.9,221.1,172.8,221.2,172.8z
		 M221.2,173.8c0.1,0,0.2,0.1,0.2,0.2c0,0.1-0.1,0.2-0.2,0.2c-0.1,0-0.2-0.1-0.2-0.2C221,173.9,221.1,173.8,221.2,173.8z
		 M221.2,174.8c0.1,0,0.2,0.1,0.2,0.2c0,0.1-0.1,0.2-0.2,0.2c-0.1,0-0.2-0.1-0.2-0.2C221,174.9,221.1,174.8,221.2,174.8z
		 M221.2,175.9c0.1,0,0.2,0.1,0.2,0.2c0,0.1-0.1,0.2-0.2,0.2c-0.1,0-0.2-0.1-0.2-0.2C221,176,221.1,175.9,221.2,175.9z M221.2,176.9
		c0.1,0,0.2,0.1,0.2,0.2c0,0.1-0.1,0.2-0.2,0.2c-0.1,0-0.2-0.1-0.2-0.2C221,177,221.1,176.9,221.2,176.9z M221.2,177.9
		c0.1,0,0.2,0.1,0.2,0.2s-0.1,0.2-0.2,0.2c-0.1,0-0.2-0.1-0.2-0.2S221.1,177.9,221.2,177.9z M221.2,178.9c0.1,0,0.2,0.1,0.2,0.2
		c0,0.1-0.1,0.2-0.2,0.2c-0.1,0-0.2-0.1-0.2-0.2C221,179,221.1,178.9,221.2,178.9z M221.2,180c0.1,0,0.2,0.1,0.2,0.2
		c0,0.1-0.1,0.2-0.2,0.2c-0.1,0-0.2-0.1-0.2-0.2C221,180.1,221.1,180,221.2,180z M221.2,181c0.1,0,0.2,0.1,0.2,0.2s-0.1,0.2-0.2,0.2
		c-0.1,0-0.2-0.1-0.2-0.2S221.1,181,221.2,181z M221.2,182c0.1,0,0.2,0.1,0.2,0.2c0,0.1-0.1,0.2-0.2,0.2c-0.1,0-0.2-0.1-0.2-0.2
		C221,182.1,221.1,182,221.2,182z M221.2,183.1c0.1,0,0.2,0.1,0.2,0.2c0,0.1-0.1,0.2-0.2,0.2c-0.1,0-0.2-0.1-0.2-0.2
		C221,183.2,221.1,183.1,221.2,183.1z M221.2,184.1c0.1,0,0.2,0.1,0.2,0.2c0,0.1-0.1,0.2-0.2,0.2c-0.1,0-0.2-0.1-0.2-0.2
		C221,184.2,221.1,184.1,221.2,184.1z M221.2,185.1c0.1,0,0.2,0.1,0.2,0.2c0,0.1-0.1,0.2-0.2,0.2c-0.1,0-0.2-0.1-0.2-0.2
		C221,185.2,221.1,185.1,221.2,185.1z M221.2,186.2c0.1,0,0.2,0.1,0.2,0.2s-0.1,0.2-0.2,0.2c-0.1,0-0.2-0.1-0.2-0.2
		S221.1,186.2,221.2,186.2z M221.2,187.2c0.1,0,0.2,0.1,0.2,0.2c0,0.1-0.1,0.2-0.2,0.2c-0.1,0-0.2-0.1-0.2-0.2
		C221,187.3,221.1,187.2,221.2,187.2z M221.2,188.2c0.1,0,0.2,0.1,0.2,0.2c0,0.1-0.1,0.2-0.2,0.2c-0.1,0-0.2-0.1-0.2-0.2
		C221,188.3,221.1,188.2,221.2,188.2z M221.2,189.2c0.1,0,0.2,0.1,0.2,0.2c0,0.1-0.1,0.2-0.2,0.2c-0.1,0-0.2-0.1-0.2-0.2
		C221,189.3,221.1,189.2,221.2,189.2z M221.2,190.3c0.1,0,0.2,0.1,0.2,0.2s-0.1,0.2-0.2,0.2c-0.1,0-0.2-0.1-0.2-0.2
		S221.1,190.3,221.2,190.3z M221.2,191.3c0.1,0,0.2,0.1,0.2,0.2c0,0.1-0.1,0.2-0.2,0.2c-0.1,0-0.2-0.1-0.2-0.2
		C221,191.4,221.1,191.3,221.2,191.3z M220.1,167.9c0.1,0,0.2,0.1,0.2,0.2c0,0.1-0.1,0.2-0.2,0.2s-0.2-0.1-0.2-0.2
		C219.9,168,220,167.9,220.1,167.9z M220.1,169c0.1,0,0.2,0.1,0.2,0.2c0,0.1-0.1,0.2-0.2,0.2s-0.2-0.1-0.2-0.2
		C219.9,169,220,169,220.1,169z M220.1,170c0.1,0,0.2,0.1,0.2,0.2c0,0.1-0.1,0.2-0.2,0.2s-0.2-0.1-0.2-0.2
		C219.9,170.1,220,170,220.1,170z M220.1,171c0.1,0,0.2,0.1,0.2,0.2c0,0.1-0.1,0.2-0.2,0.2s-0.2-0.1-0.2-0.2
		C219.9,171.1,220,171,220.1,171z M220.1,172c0.1,0,0.2,0.1,0.2,0.2c0,0.1-0.1,0.2-0.2,0.2s-0.2-0.1-0.2-0.2
		C219.9,172.1,220,172,220.1,172z M220.1,173.1c0.1,0,0.2,0.1,0.2,0.2c0,0.1-0.1,0.2-0.2,0.2s-0.2-0.1-0.2-0.2
		C219.9,173.2,220,173.1,220.1,173.1z M220.1,174.1c0.1,0,0.2,0.1,0.2,0.2c0,0.1-0.1,0.2-0.2,0.2s-0.2-0.1-0.2-0.2
		C219.9,174.2,220,174.1,220.1,174.1z M220.1,175.1c0.1,0,0.2,0.1,0.2,0.2s-0.1,0.2-0.2,0.2s-0.2-0.1-0.2-0.2S220,175.1,220.1,175.1
		z M220.1,176.2c0.1,0,0.2,0.1,0.2,0.2c0,0.1-0.1,0.2-0.2,0.2s-0.2-0.1-0.2-0.2C219.9,176.3,220,176.2,220.1,176.2z M220.1,177.2
		c0.1,0,0.2,0.1,0.2,0.2s-0.1,0.2-0.2,0.2s-0.2-0.1-0.2-0.2S220,177.2,220.1,177.2z M220.1,178.2c0.1,0,0.2,0.1,0.2,0.2
		c0,0.1-0.1,0.2-0.2,0.2s-0.2-0.1-0.2-0.2C219.9,178.3,220,178.2,220.1,178.2z M220.1,179.2c0.1,0,0.2,0.1,0.2,0.2
		c0,0.1-0.1,0.2-0.2,0.2s-0.2-0.1-0.2-0.2C219.9,179.3,220,179.2,220.1,179.2z M220.1,180.3c0.1,0,0.2,0.1,0.2,0.2
		c0,0.1-0.1,0.2-0.2,0.2s-0.2-0.1-0.2-0.2C219.9,180.4,220,180.3,220.1,180.3z M220.1,181.3c0.1,0,0.2,0.1,0.2,0.2s-0.1,0.2-0.2,0.2
		s-0.2-0.1-0.2-0.2S220,181.3,220.1,181.3z M220.1,182.3c0.1,0,0.2,0.1,0.2,0.2c0,0.1-0.1,0.2-0.2,0.2s-0.2-0.1-0.2-0.2
		C219.9,182.4,220,182.3,220.1,182.3z M220.1,183.4c0.1,0,0.2,0.1,0.2,0.2s-0.1,0.2-0.2,0.2s-0.2-0.1-0.2-0.2S220,183.4,220.1,183.4
		z M220.1,184.4c0.1,0,0.2,0.1,0.2,0.2c0,0.1-0.1,0.2-0.2,0.2s-0.2-0.1-0.2-0.2C219.9,184.5,220,184.4,220.1,184.4z M220.1,185.4
		c0.1,0,0.2,0.1,0.2,0.2c0,0.1-0.1,0.2-0.2,0.2s-0.2-0.1-0.2-0.2C219.9,185.5,220,185.4,220.1,185.4z M220.1,186.5
		c0.1,0,0.2,0.1,0.2,0.2s-0.1,0.2-0.2,0.2s-0.2-0.1-0.2-0.2S220,186.5,220.1,186.5z M220.1,187.5c0.1,0,0.2,0.1,0.2,0.2
		s-0.1,0.2-0.2,0.2s-0.2-0.1-0.2-0.2S220,187.5,220.1,187.5z M220.1,188.5c0.1,0,0.2,0.1,0.2,0.2c0,0.1-0.1,0.2-0.2,0.2
		s-0.2-0.1-0.2-0.2C219.9,188.6,220,188.5,220.1,188.5z M220.1,189.5c0.1,0,0.2,0.1,0.2,0.2s-0.1,0.2-0.2,0.2s-0.2-0.1-0.2-0.2
		S220,189.5,220.1,189.5z M220.1,190.6c0.1,0,0.2,0.1,0.2,0.2c0,0.1-0.1,0.2-0.2,0.2s-0.2-0.1-0.2-0.2
		C219.9,190.7,220,190.6,220.1,190.6z M220.1,191.6c0.1,0,0.2,0.1,0.2,0.2c0,0.1-0.1,0.2-0.2,0.2s-0.2-0.1-0.2-0.2
		C219.9,191.7,220,191.6,220.1,191.6z M218.8,168.3c0.1,0,0.2,0.1,0.2,0.2c0,0.1-0.1,0.2-0.2,0.2c-0.1,0-0.2-0.1-0.2-0.2
		C218.6,168.4,218.7,168.3,218.8,168.3z M218.8,169.4c0.1,0,0.2,0.1,0.2,0.2s-0.1,0.2-0.2,0.2c-0.1,0-0.2-0.1-0.2-0.2
		S218.7,169.4,218.8,169.4z M218.8,170.4c0.1,0,0.2,0.1,0.2,0.2c0,0.1-0.1,0.2-0.2,0.2c-0.1,0-0.2-0.1-0.2-0.2
		C218.6,170.5,218.7,170.4,218.8,170.4z M218.8,171.4c0.1,0,0.2,0.1,0.2,0.2s-0.1,0.2-0.2,0.2c-0.1,0-0.2-0.1-0.2-0.2
		S218.7,171.4,218.8,171.4z M218.8,172.5c0.1,0,0.2,0.1,0.2,0.2c0,0.1-0.1,0.2-0.2,0.2c-0.1,0-0.2-0.1-0.2-0.2
		C218.6,172.6,218.7,172.5,218.8,172.5z M218.8,173.5c0.1,0,0.2,0.1,0.2,0.2c0,0.1-0.1,0.2-0.2,0.2c-0.1,0-0.2-0.1-0.2-0.2
		C218.6,173.6,218.7,173.5,218.8,173.5z M218.8,174.5c0.1,0,0.2,0.1,0.2,0.2s-0.1,0.2-0.2,0.2c-0.1,0-0.2-0.1-0.2-0.2
		S218.7,174.5,218.8,174.5z M218.8,175.5c0.1,0,0.2,0.1,0.2,0.2s-0.1,0.2-0.2,0.2c-0.1,0-0.2-0.1-0.2-0.2S218.7,175.5,218.8,175.5z
		 M218.8,176.6c0.1,0,0.2,0.1,0.2,0.2c0,0.1-0.1,0.2-0.2,0.2c-0.1,0-0.2-0.1-0.2-0.2C218.6,176.7,218.7,176.6,218.8,176.6z
		 M218.8,177.6c0.1,0,0.2,0.1,0.2,0.2s-0.1,0.2-0.2,0.2c-0.1,0-0.2-0.1-0.2-0.2S218.7,177.6,218.8,177.6z M218.8,178.6
		c0.1,0,0.2,0.1,0.2,0.2c0,0.1-0.1,0.2-0.2,0.2c-0.1,0-0.2-0.1-0.2-0.2C218.6,178.7,218.7,178.6,218.8,178.6z M218.8,179.7
		c0.1,0,0.2,0.1,0.2,0.2c0,0.1-0.1,0.2-0.2,0.2c-0.1,0-0.2-0.1-0.2-0.2C218.6,179.8,218.7,179.7,218.8,179.7z M218.8,180.7
		c0.1,0,0.2,0.1,0.2,0.2c0,0.1-0.1,0.2-0.2,0.2c-0.1,0-0.2-0.1-0.2-0.2C218.6,180.8,218.7,180.7,218.8,180.7z M218.8,181.7
		c0.1,0,0.2,0.1,0.2,0.2s-0.1,0.2-0.2,0.2c-0.1,0-0.2-0.1-0.2-0.2S218.7,181.7,218.8,181.7z M218.8,182.8c0.1,0,0.2,0.1,0.2,0.2
		c0,0.1-0.1,0.2-0.2,0.2c-0.1,0-0.2-0.1-0.2-0.2C218.6,182.8,218.7,182.8,218.8,182.8z M218.8,183.8c0.1,0,0.2,0.1,0.2,0.2
		s-0.1,0.2-0.2,0.2c-0.1,0-0.2-0.1-0.2-0.2S218.7,183.8,218.8,183.8z M218.8,184.8c0.1,0,0.2,0.1,0.2,0.2c0,0.1-0.1,0.2-0.2,0.2
		c-0.1,0-0.2-0.1-0.2-0.2C218.6,184.9,218.7,184.8,218.8,184.8z M218.8,185.8c0.1,0,0.2,0.1,0.2,0.2c0,0.1-0.1,0.2-0.2,0.2
		c-0.1,0-0.2-0.1-0.2-0.2C218.6,185.9,218.7,185.8,218.8,185.8z M218.8,186.9c0.1,0,0.2,0.1,0.2,0.2c0,0.1-0.1,0.2-0.2,0.2
		c-0.1,0-0.2-0.1-0.2-0.2C218.6,187,218.7,186.9,218.8,186.9z M218.8,187.9c0.1,0,0.2,0.1,0.2,0.2c0,0.1-0.1,0.2-0.2,0.2
		c-0.1,0-0.2-0.1-0.2-0.2C218.6,188,218.7,187.9,218.8,187.9z M218.8,188.9c0.1,0,0.2,0.1,0.2,0.2c0,0.1-0.1,0.2-0.2,0.2
		c-0.1,0-0.2-0.1-0.2-0.2C218.6,189,218.7,188.9,218.8,188.9z M218.8,190c0.1,0,0.2,0.1,0.2,0.2s-0.1,0.2-0.2,0.2
		c-0.1,0-0.2-0.1-0.2-0.2S218.7,190,218.8,190z M218.8,191c0.1,0,0.2,0.1,0.2,0.2c0,0.1-0.1,0.2-0.2,0.2c-0.1,0-0.2-0.1-0.2-0.2
		C218.6,191.1,218.7,191,218.8,191z M218.8,192c0.1,0,0.2,0.1,0.2,0.2c0,0.1-0.1,0.2-0.2,0.2c-0.1,0-0.2-0.1-0.2-0.2
		C218.6,192.1,218.7,192,218.8,192z M217.6,168.6c0.1,0,0.2,0.1,0.2,0.2c0,0.1-0.1,0.2-0.2,0.2c-0.1,0-0.2-0.1-0.2-0.2
		C217.4,168.7,217.5,168.6,217.6,168.6z M217.6,169.7c0.1,0,0.2,0.1,0.2,0.2s-0.1,0.2-0.2,0.2c-0.1,0-0.2-0.1-0.2-0.2
		S217.5,169.7,217.6,169.7z M217.6,170.7c0.1,0,0.2,0.1,0.2,0.2s-0.1,0.2-0.2,0.2c-0.1,0-0.2-0.1-0.2-0.2S217.5,170.7,217.6,170.7z
		 M217.6,171.7c0.1,0,0.2,0.1,0.2,0.2c0,0.1-0.1,0.2-0.2,0.2c-0.1,0-0.2-0.1-0.2-0.2C217.4,171.8,217.5,171.7,217.6,171.7z
		 M217.6,172.8c0.1,0,0.2,0.1,0.2,0.2c0,0.1-0.1,0.2-0.2,0.2c-0.1,0-0.2-0.1-0.2-0.2C217.4,172.9,217.5,172.8,217.6,172.8z
		 M217.6,173.8c0.1,0,0.2,0.1,0.2,0.2s-0.1,0.2-0.2,0.2c-0.1,0-0.2-0.1-0.2-0.2S217.5,173.8,217.6,173.8z M217.6,174.8
		c0.1,0,0.2,0.1,0.2,0.2c0,0.1-0.1,0.2-0.2,0.2c-0.1,0-0.2-0.1-0.2-0.2C217.4,174.9,217.5,174.8,217.6,174.8z M217.6,175.8
		c0.1,0,0.2,0.1,0.2,0.2c0,0.1-0.1,0.2-0.2,0.2c-0.1,0-0.2-0.1-0.2-0.2C217.4,175.9,217.5,175.8,217.6,175.8z M217.6,176.9
		c0.1,0,0.2,0.1,0.2,0.2c0,0.1-0.1,0.2-0.2,0.2c-0.1,0-0.2-0.1-0.2-0.2C217.4,177,217.5,176.9,217.6,176.9z M217.6,177.9
		c0.1,0,0.2,0.1,0.2,0.2c0,0.1-0.1,0.2-0.2,0.2c-0.1,0-0.2-0.1-0.2-0.2C217.4,178,217.5,177.9,217.6,177.9z M217.6,178.9
		c0.1,0,0.2,0.1,0.2,0.2s-0.1,0.2-0.2,0.2c-0.1,0-0.2-0.1-0.2-0.2S217.5,178.9,217.6,178.9z M217.6,180c0.1,0,0.2,0.1,0.2,0.2
		c0,0.1-0.1,0.2-0.2,0.2c-0.1,0-0.2-0.1-0.2-0.2C217.4,180.1,217.5,180,217.6,180z M217.6,181c0.1,0,0.2,0.1,0.2,0.2
		c0,0.1-0.1,0.2-0.2,0.2c-0.1,0-0.2-0.1-0.2-0.2C217.4,181.1,217.5,181,217.6,181z M217.6,182c0.1,0,0.2,0.1,0.2,0.2
		c0,0.1-0.1,0.2-0.2,0.2c-0.1,0-0.2-0.1-0.2-0.2C217.4,182.1,217.5,182,217.6,182z M217.6,183.1c0.1,0,0.2,0.1,0.2,0.2
		c0,0.1-0.1,0.2-0.2,0.2c-0.1,0-0.2-0.1-0.2-0.2C217.4,183.1,217.5,183.1,217.6,183.1z M217.6,184.1c0.1,0,0.2,0.1,0.2,0.2
		c0,0.1-0.1,0.2-0.2,0.2c-0.1,0-0.2-0.1-0.2-0.2C217.4,184.2,217.5,184.1,217.6,184.1z M217.6,185.1c0.1,0,0.2,0.1,0.2,0.2
		s-0.1,0.2-0.2,0.2c-0.1,0-0.2-0.1-0.2-0.2S217.5,185.1,217.6,185.1z M217.6,186.1c0.1,0,0.2,0.1,0.2,0.2c0,0.1-0.1,0.2-0.2,0.2
		c-0.1,0-0.2-0.1-0.2-0.2C217.4,186.2,217.5,186.1,217.6,186.1z M217.6,187.2c0.1,0,0.2,0.1,0.2,0.2c0,0.1-0.1,0.2-0.2,0.2
		c-0.1,0-0.2-0.1-0.2-0.2C217.4,187.3,217.5,187.2,217.6,187.2z M217.6,188.2c0.1,0,0.2,0.1,0.2,0.2c0,0.1-0.1,0.2-0.2,0.2
		c-0.1,0-0.2-0.1-0.2-0.2C217.4,188.3,217.5,188.2,217.6,188.2z M217.6,189.2c0.1,0,0.2,0.1,0.2,0.2c0,0.1-0.1,0.2-0.2,0.2
		c-0.1,0-0.2-0.1-0.2-0.2C217.4,189.3,217.5,189.2,217.6,189.2z M217.6,190.3c0.1,0,0.2,0.1,0.2,0.2c0,0.1-0.1,0.2-0.2,0.2
		c-0.1,0-0.2-0.1-0.2-0.2C217.4,190.4,217.5,190.3,217.6,190.3z M217.6,191.3c0.1,0,0.2,0.1,0.2,0.2s-0.1,0.2-0.2,0.2
		c-0.1,0-0.2-0.1-0.2-0.2S217.5,191.3,217.6,191.3z M217.6,192.3c0.1,0,0.2,0.1,0.2,0.2c0,0.1-0.1,0.2-0.2,0.2
		c-0.1,0-0.2-0.1-0.2-0.2C217.4,192.4,217.5,192.3,217.6,192.3z M216.5,168.8c0.1,0,0.2,0.1,0.2,0.2c0,0.1-0.1,0.2-0.2,0.2
		c-0.1,0-0.2-0.1-0.2-0.2C216.2,168.9,216.3,168.8,216.5,168.8z M216.5,169.9c0.1,0,0.2,0.1,0.2,0.2s-0.1,0.2-0.2,0.2
		c-0.1,0-0.2-0.1-0.2-0.2S216.3,169.9,216.5,169.9z M216.5,170.9c0.1,0,0.2,0.1,0.2,0.2c0,0.1-0.1,0.2-0.2,0.2
		c-0.1,0-0.2-0.1-0.2-0.2C216.2,171,216.3,170.9,216.5,170.9z M216.5,171.9c0.1,0,0.2,0.1,0.2,0.2s-0.1,0.2-0.2,0.2
		c-0.1,0-0.2-0.1-0.2-0.2S216.3,171.9,216.5,171.9z M216.5,173c0.1,0,0.2,0.1,0.2,0.2c0,0.1-0.1,0.2-0.2,0.2c-0.1,0-0.2-0.1-0.2-0.2
		C216.2,173.1,216.3,173,216.5,173z M216.5,174c0.1,0,0.2,0.1,0.2,0.2s-0.1,0.2-0.2,0.2c-0.1,0-0.2-0.1-0.2-0.2S216.3,174,216.5,174
		z M216.5,175c0.1,0,0.2,0.1,0.2,0.2c0,0.1-0.1,0.2-0.2,0.2c-0.1,0-0.2-0.1-0.2-0.2C216.2,175.1,216.3,175,216.5,175z M216.5,176.1
		c0.1,0,0.2,0.1,0.2,0.2c0,0.1-0.1,0.2-0.2,0.2c-0.1,0-0.2-0.1-0.2-0.2C216.2,176.1,216.3,176.1,216.5,176.1z M216.5,177.1
		c0.1,0,0.2,0.1,0.2,0.2c0,0.1-0.1,0.2-0.2,0.2c-0.1,0-0.2-0.1-0.2-0.2C216.2,177.2,216.3,177.1,216.5,177.1z M216.5,178.1
		c0.1,0,0.2,0.1,0.2,0.2s-0.1,0.2-0.2,0.2c-0.1,0-0.2-0.1-0.2-0.2S216.3,178.1,216.5,178.1z M216.5,179.1c0.1,0,0.2,0.1,0.2,0.2
		c0,0.1-0.1,0.2-0.2,0.2c-0.1,0-0.2-0.1-0.2-0.2C216.2,179.2,216.3,179.1,216.5,179.1z M216.5,180.2c0.1,0,0.2,0.1,0.2,0.2
		s-0.1,0.2-0.2,0.2c-0.1,0-0.2-0.1-0.2-0.2S216.3,180.2,216.5,180.2z M216.5,181.2c0.1,0,0.2,0.1,0.2,0.2c0,0.1-0.1,0.2-0.2,0.2
		c-0.1,0-0.2-0.1-0.2-0.2C216.2,181.3,216.3,181.2,216.5,181.2z M216.5,182.2c0.1,0,0.2,0.1,0.2,0.2c0,0.1-0.1,0.2-0.2,0.2
		c-0.1,0-0.2-0.1-0.2-0.2C216.2,182.3,216.3,182.2,216.5,182.2z M216.5,183.3c0.1,0,0.2,0.1,0.2,0.2s-0.1,0.2-0.2,0.2
		c-0.1,0-0.2-0.1-0.2-0.2S216.3,183.3,216.5,183.3z M216.5,184.3c0.1,0,0.2,0.1,0.2,0.2s-0.1,0.2-0.2,0.2c-0.1,0-0.2-0.1-0.2-0.2
		S216.3,184.3,216.5,184.3z M216.5,185.3c0.1,0,0.2,0.1,0.2,0.2c0,0.1-0.1,0.2-0.2,0.2c-0.1,0-0.2-0.1-0.2-0.2
		C216.2,185.4,216.3,185.3,216.5,185.3z M216.5,186.3c0.1,0,0.2,0.1,0.2,0.2s-0.1,0.2-0.2,0.2c-0.1,0-0.2-0.1-0.2-0.2
		S216.3,186.3,216.5,186.3z M216.5,187.4c0.1,0,0.2,0.1,0.2,0.2c0,0.1-0.1,0.2-0.2,0.2c-0.1,0-0.2-0.1-0.2-0.2
		C216.2,187.5,216.3,187.4,216.5,187.4z M216.5,188.4c0.1,0,0.2,0.1,0.2,0.2c0,0.1-0.1,0.2-0.2,0.2c-0.1,0-0.2-0.1-0.2-0.2
		C216.2,188.5,216.3,188.4,216.5,188.4z M216.5,189.4c0.1,0,0.2,0.1,0.2,0.2c0,0.1-0.1,0.2-0.2,0.2c-0.1,0-0.2-0.1-0.2-0.2
		C216.2,189.5,216.3,189.4,216.5,189.4z M216.5,190.5c0.1,0,0.2,0.1,0.2,0.2c0,0.1-0.1,0.2-0.2,0.2c-0.1,0-0.2-0.1-0.2-0.2
		C216.2,190.6,216.3,190.5,216.5,190.5z M216.5,191.5c0.1,0,0.2,0.1,0.2,0.2c0,0.1-0.1,0.2-0.2,0.2c-0.1,0-0.2-0.1-0.2-0.2
		C216.2,191.6,216.3,191.5,216.5,191.5z M215.2,169.1c0.1,0,0.2,0.1,0.2,0.2c0,0.1-0.1,0.2-0.2,0.2s-0.2-0.1-0.2-0.2
		C215,169.2,215.1,169.1,215.2,169.1z M215.2,170.1c0.1,0,0.2,0.1,0.2,0.2c0,0.1-0.1,0.2-0.2,0.2s-0.2-0.1-0.2-0.2
		C215,170.2,215.1,170.1,215.2,170.1z M215.2,171.1c0.1,0,0.2,0.1,0.2,0.2s-0.1,0.2-0.2,0.2s-0.2-0.1-0.2-0.2
		S215.1,171.1,215.2,171.1z M215.2,172.1c0.1,0,0.2,0.1,0.2,0.2c0,0.1-0.1,0.2-0.2,0.2s-0.2-0.1-0.2-0.2
		C215,172.2,215.1,172.1,215.2,172.1z M215.2,173.2c0.1,0,0.2,0.1,0.2,0.2s-0.1,0.2-0.2,0.2s-0.2-0.1-0.2-0.2
		S215.1,173.2,215.2,173.2z M215.2,174.2c0.1,0,0.2,0.1,0.2,0.2c0,0.1-0.1,0.2-0.2,0.2s-0.2-0.1-0.2-0.2
		C215,174.3,215.1,174.2,215.2,174.2z M215.2,175.2c0.1,0,0.2,0.1,0.2,0.2c0,0.1-0.1,0.2-0.2,0.2s-0.2-0.1-0.2-0.2
		C215,175.3,215.1,175.2,215.2,175.2z M215.2,176.3c0.1,0,0.2,0.1,0.2,0.2c0,0.1-0.1,0.2-0.2,0.2s-0.2-0.1-0.2-0.2
		C215,176.4,215.1,176.3,215.2,176.3z M215.2,177.3c0.1,0,0.2,0.1,0.2,0.2c0,0.1-0.1,0.2-0.2,0.2s-0.2-0.1-0.2-0.2
		C215,177.4,215.1,177.3,215.2,177.3z M215.2,178.3c0.1,0,0.2,0.1,0.2,0.2c0,0.1-0.1,0.2-0.2,0.2s-0.2-0.1-0.2-0.2
		C215,178.4,215.1,178.3,215.2,178.3z M215.2,179.4c0.1,0,0.2,0.1,0.2,0.2c0,0.1-0.1,0.2-0.2,0.2s-0.2-0.1-0.2-0.2
		C215,179.4,215.1,179.4,215.2,179.4z M215.2,180.4c0.1,0,0.2,0.1,0.2,0.2c0,0.1-0.1,0.2-0.2,0.2s-0.2-0.1-0.2-0.2
		C215,180.5,215.1,180.4,215.2,180.4z M215.2,181.4c0.1,0,0.2,0.1,0.2,0.2s-0.1,0.2-0.2,0.2s-0.2-0.1-0.2-0.2
		S215.1,181.4,215.2,181.4z M215.2,182.4c0.1,0,0.2,0.1,0.2,0.2s-0.1,0.2-0.2,0.2s-0.2-0.1-0.2-0.2S215.1,182.4,215.2,182.4z
		 M215.2,183.5c0.1,0,0.2,0.1,0.2,0.2c0,0.1-0.1,0.2-0.2,0.2s-0.2-0.1-0.2-0.2C215,183.6,215.1,183.5,215.2,183.5z M215.2,184.5
		c0.1,0,0.2,0.1,0.2,0.2c0,0.1-0.1,0.2-0.2,0.2s-0.2-0.1-0.2-0.2C215,184.6,215.1,184.5,215.2,184.5z M215.2,185.5
		c0.1,0,0.2,0.1,0.2,0.2s-0.1,0.2-0.2,0.2s-0.2-0.1-0.2-0.2S215.1,185.5,215.2,185.5z M215.2,186.6c0.1,0,0.2,0.1,0.2,0.2
		c0,0.1-0.1,0.2-0.2,0.2s-0.2-0.1-0.2-0.2C215,186.7,215.1,186.6,215.2,186.6z M215.2,187.6c0.1,0,0.2,0.1,0.2,0.2s-0.1,0.2-0.2,0.2
		s-0.2-0.1-0.2-0.2S215.1,187.6,215.2,187.6z M215.2,188.6c0.1,0,0.2,0.1,0.2,0.2c0,0.1-0.1,0.2-0.2,0.2s-0.2-0.1-0.2-0.2
		C215,188.7,215.1,188.6,215.2,188.6z M215.2,189.6c0.1,0,0.2,0.1,0.2,0.2c0,0.1-0.1,0.2-0.2,0.2s-0.2-0.1-0.2-0.2
		C215,189.7,215.1,189.6,215.2,189.6z M215.2,190.7c0.1,0,0.2,0.1,0.2,0.2s-0.1,0.2-0.2,0.2s-0.2-0.1-0.2-0.2
		S215.1,190.7,215.2,190.7z M215.2,191.7c0.1,0,0.2,0.1,0.2,0.2s-0.1,0.2-0.2,0.2s-0.2-0.1-0.2-0.2S215.1,191.7,215.2,191.7z
		 M214,169.1c0.1,0,0.2,0.1,0.2,0.2s-0.1,0.2-0.2,0.2s-0.2-0.1-0.2-0.2S213.9,169.1,214,169.1z M214,170.2c0.1,0,0.2,0.1,0.2,0.2
		s-0.1,0.2-0.2,0.2s-0.2-0.1-0.2-0.2S213.9,170.2,214,170.2z M214,171.2c0.1,0,0.2,0.1,0.2,0.2c0,0.1-0.1,0.2-0.2,0.2
		s-0.2-0.1-0.2-0.2C213.8,171.3,213.9,171.2,214,171.2z M214,172.2c0.1,0,0.2,0.1,0.2,0.2c0,0.1-0.1,0.2-0.2,0.2s-0.2-0.1-0.2-0.2
		C213.8,172.3,213.9,172.2,214,172.2z M214,173.3c0.1,0,0.2,0.1,0.2,0.2s-0.1,0.2-0.2,0.2s-0.2-0.1-0.2-0.2S213.9,173.3,214,173.3z
		 M214,174.3c0.1,0,0.2,0.1,0.2,0.2c0,0.1-0.1,0.2-0.2,0.2s-0.2-0.1-0.2-0.2C213.8,174.4,213.9,174.3,214,174.3z M214,175.3
		c0.1,0,0.2,0.1,0.2,0.2c0,0.1-0.1,0.2-0.2,0.2s-0.2-0.1-0.2-0.2C213.8,175.4,213.9,175.3,214,175.3z M214,176.4
		c0.1,0,0.2,0.1,0.2,0.2c0,0.1-0.1,0.2-0.2,0.2s-0.2-0.1-0.2-0.2C213.8,176.4,213.9,176.4,214,176.4z M214,177.4
		c0.1,0,0.2,0.1,0.2,0.2c0,0.1-0.1,0.2-0.2,0.2s-0.2-0.1-0.2-0.2C213.8,177.5,213.9,177.4,214,177.4z M214,178.4
		c0.1,0,0.2,0.1,0.2,0.2s-0.1,0.2-0.2,0.2s-0.2-0.1-0.2-0.2S213.9,178.4,214,178.4z M214,179.4c0.1,0,0.2,0.1,0.2,0.2
		c0,0.1-0.1,0.2-0.2,0.2s-0.2-0.1-0.2-0.2C213.8,179.5,213.9,179.4,214,179.4z M214,180.5c0.1,0,0.2,0.1,0.2,0.2
		c0,0.1-0.1,0.2-0.2,0.2s-0.2-0.1-0.2-0.2C213.8,180.6,213.9,180.5,214,180.5z M214,181.5c0.1,0,0.2,0.1,0.2,0.2s-0.1,0.2-0.2,0.2
		s-0.2-0.1-0.2-0.2S213.9,181.5,214,181.5z M214,182.5c0.1,0,0.2,0.1,0.2,0.2c0,0.1-0.1,0.2-0.2,0.2s-0.2-0.1-0.2-0.2
		C213.8,182.6,213.9,182.5,214,182.5z M214,183.6c0.1,0,0.2,0.1,0.2,0.2c0,0.1-0.1,0.2-0.2,0.2s-0.2-0.1-0.2-0.2
		C213.8,183.7,213.9,183.6,214,183.6z M214,184.6c0.1,0,0.2,0.1,0.2,0.2c0,0.1-0.1,0.2-0.2,0.2s-0.2-0.1-0.2-0.2
		C213.8,184.7,213.9,184.6,214,184.6z M214,185.6c0.1,0,0.2,0.1,0.2,0.2c0,0.1-0.1,0.2-0.2,0.2s-0.2-0.1-0.2-0.2
		C213.8,185.7,213.9,185.6,214,185.6z M214,186.6c0.1,0,0.2,0.1,0.2,0.2s-0.1,0.2-0.2,0.2s-0.2-0.1-0.2-0.2S213.9,186.6,214,186.6z
		 M214,187.7c0.1,0,0.2,0.1,0.2,0.2c0,0.1-0.1,0.2-0.2,0.2s-0.2-0.1-0.2-0.2C213.8,187.8,213.9,187.7,214,187.7z M214,188.7
		c0.1,0,0.2,0.1,0.2,0.2c0,0.1-0.1,0.2-0.2,0.2s-0.2-0.1-0.2-0.2C213.8,188.8,213.9,188.7,214,188.7z M214,189.7
		c0.1,0,0.2,0.1,0.2,0.2s-0.1,0.2-0.2,0.2s-0.2-0.1-0.2-0.2S213.9,189.7,214,189.7z M214,190.8c0.1,0,0.2,0.1,0.2,0.2
		s-0.1,0.2-0.2,0.2s-0.2-0.1-0.2-0.2S213.9,190.8,214,190.8z M212.5,169.3c0.1,0,0.2,0.1,0.2,0.2c0,0.1-0.1,0.2-0.2,0.2
		c-0.1,0-0.2-0.1-0.2-0.2C212.3,169.4,212.4,169.3,212.5,169.3z M212.5,170.3c0.1,0,0.2,0.1,0.2,0.2c0,0.1-0.1,0.2-0.2,0.2
		c-0.1,0-0.2-0.1-0.2-0.2C212.3,170.4,212.4,170.3,212.5,170.3z M212.5,171.3c0.1,0,0.2,0.1,0.2,0.2s-0.1,0.2-0.2,0.2
		c-0.1,0-0.2-0.1-0.2-0.2S212.4,171.3,212.5,171.3z M212.5,172.4c0.1,0,0.2,0.1,0.2,0.2s-0.1,0.2-0.2,0.2c-0.1,0-0.2-0.1-0.2-0.2
		S212.4,172.4,212.5,172.4z M212.5,173.4c0.1,0,0.2,0.1,0.2,0.2c0,0.1-0.1,0.2-0.2,0.2c-0.1,0-0.2-0.1-0.2-0.2
		C212.3,173.5,212.4,173.4,212.5,173.4z M212.5,174.4c0.1,0,0.2,0.1,0.2,0.2s-0.1,0.2-0.2,0.2c-0.1,0-0.2-0.1-0.2-0.2
		S212.4,174.4,212.5,174.4z M212.5,175.4c0.1,0,0.2,0.1,0.2,0.2c0,0.1-0.1,0.2-0.2,0.2c-0.1,0-0.2-0.1-0.2-0.2
		C212.3,175.5,212.4,175.4,212.5,175.4z M212.5,176.5c0.1,0,0.2,0.1,0.2,0.2c0,0.1-0.1,0.2-0.2,0.2c-0.1,0-0.2-0.1-0.2-0.2
		C212.3,176.6,212.4,176.5,212.5,176.5z M212.5,177.5c0.1,0,0.2,0.1,0.2,0.2c0,0.1-0.1,0.2-0.2,0.2c-0.1,0-0.2-0.1-0.2-0.2
		C212.3,177.6,212.4,177.5,212.5,177.5z M212.5,178.5c0.1,0,0.2,0.1,0.2,0.2s-0.1,0.2-0.2,0.2c-0.1,0-0.2-0.1-0.2-0.2
		S212.4,178.5,212.5,178.5z M212.5,179.6c0.1,0,0.2,0.1,0.2,0.2c0,0.1-0.1,0.2-0.2,0.2c-0.1,0-0.2-0.1-0.2-0.2
		C212.3,179.7,212.4,179.6,212.5,179.6z M212.5,180.6c0.1,0,0.2,0.1,0.2,0.2s-0.1,0.2-0.2,0.2c-0.1,0-0.2-0.1-0.2-0.2
		S212.4,180.6,212.5,180.6z M212.5,181.6c0.1,0,0.2,0.1,0.2,0.2c0,0.1-0.1,0.2-0.2,0.2c-0.1,0-0.2-0.1-0.2-0.2
		C212.3,181.7,212.4,181.6,212.5,181.6z M212.5,182.6c0.1,0,0.2,0.1,0.2,0.2c0,0.1-0.1,0.2-0.2,0.2c-0.1,0-0.2-0.1-0.2-0.2
		C212.3,182.7,212.4,182.6,212.5,182.6z M212.5,183.7c0.1,0,0.2,0.1,0.2,0.2c0,0.1-0.1,0.2-0.2,0.2c-0.1,0-0.2-0.1-0.2-0.2
		C212.3,183.8,212.4,183.7,212.5,183.7z M212.5,184.7c0.1,0,0.2,0.1,0.2,0.2c0,0.1-0.1,0.2-0.2,0.2c-0.1,0-0.2-0.1-0.2-0.2
		C212.3,184.8,212.4,184.7,212.5,184.7z M212.5,185.7c0.1,0,0.2,0.1,0.2,0.2c0,0.1-0.1,0.2-0.2,0.2c-0.1,0-0.2-0.1-0.2-0.2
		C212.3,185.8,212.4,185.7,212.5,185.7z M212.5,186.8c0.1,0,0.2,0.1,0.2,0.2s-0.1,0.2-0.2,0.2c-0.1,0-0.2-0.1-0.2-0.2
		S212.4,186.8,212.5,186.8z M212.5,187.8c0.1,0,0.2,0.1,0.2,0.2c0,0.1-0.1,0.2-0.2,0.2c-0.1,0-0.2-0.1-0.2-0.2
		C212.3,187.9,212.4,187.8,212.5,187.8z M212.5,188.8c0.1,0,0.2,0.1,0.2,0.2c0,0.1-0.1,0.2-0.2,0.2c-0.1,0-0.2-0.1-0.2-0.2
		C212.3,188.9,212.4,188.8,212.5,188.8z M212.5,189.9c0.1,0,0.2,0.1,0.2,0.2c0,0.1-0.1,0.2-0.2,0.2c-0.1,0-0.2-0.1-0.2-0.2
		C212.3,189.9,212.4,189.9,212.5,189.9z M212.5,190.9c0.1,0,0.2,0.1,0.2,0.2c0,0.1-0.1,0.2-0.2,0.2c-0.1,0-0.2-0.1-0.2-0.2
		C212.3,191,212.4,190.9,212.5,190.9z M211.4,169.3c0.1,0,0.2,0.1,0.2,0.2c0,0.1-0.1,0.2-0.2,0.2c-0.1,0-0.2-0.1-0.2-0.2
		C211.2,169.4,211.3,169.3,211.4,169.3z M211.4,170.3c0.1,0,0.2,0.1,0.2,0.2c0,0.1-0.1,0.2-0.2,0.2c-0.1,0-0.2-0.1-0.2-0.2
		C211.2,170.4,211.3,170.3,211.4,170.3z M211.4,171.3c0.1,0,0.2,0.1,0.2,0.2s-0.1,0.2-0.2,0.2c-0.1,0-0.2-0.1-0.2-0.2
		S211.3,171.3,211.4,171.3z M211.4,172.4c0.1,0,0.2,0.1,0.2,0.2s-0.1,0.2-0.2,0.2c-0.1,0-0.2-0.1-0.2-0.2S211.3,172.4,211.4,172.4z
		 M211.4,173.4c0.1,0,0.2,0.1,0.2,0.2c0,0.1-0.1,0.2-0.2,0.2c-0.1,0-0.2-0.1-0.2-0.2C211.2,173.5,211.3,173.4,211.4,173.4z
		 M211.4,174.4c0.1,0,0.2,0.1,0.2,0.2s-0.1,0.2-0.2,0.2c-0.1,0-0.2-0.1-0.2-0.2S211.3,174.4,211.4,174.4z M211.4,175.4
		c0.1,0,0.2,0.1,0.2,0.2c0,0.1-0.1,0.2-0.2,0.2c-0.1,0-0.2-0.1-0.2-0.2C211.2,175.5,211.3,175.4,211.4,175.4z M211.4,176.5
		c0.1,0,0.2,0.1,0.2,0.2c0,0.1-0.1,0.2-0.2,0.2c-0.1,0-0.2-0.1-0.2-0.2C211.2,176.6,211.3,176.5,211.4,176.5z M211.4,177.5
		c0.1,0,0.2,0.1,0.2,0.2c0,0.1-0.1,0.2-0.2,0.2c-0.1,0-0.2-0.1-0.2-0.2C211.2,177.6,211.3,177.5,211.4,177.5z M211.4,178.5
		c0.1,0,0.2,0.1,0.2,0.2s-0.1,0.2-0.2,0.2c-0.1,0-0.2-0.1-0.2-0.2S211.3,178.5,211.4,178.5z M211.4,179.6c0.1,0,0.2,0.1,0.2,0.2
		c0,0.1-0.1,0.2-0.2,0.2c-0.1,0-0.2-0.1-0.2-0.2C211.2,179.7,211.3,179.6,211.4,179.6z M211.4,180.6c0.1,0,0.2,0.1,0.2,0.2
		s-0.1,0.2-0.2,0.2c-0.1,0-0.2-0.1-0.2-0.2S211.3,180.6,211.4,180.6z M211.4,181.6c0.1,0,0.2,0.1,0.2,0.2c0,0.1-0.1,0.2-0.2,0.2
		c-0.1,0-0.2-0.1-0.2-0.2C211.2,181.7,211.3,181.6,211.4,181.6z M211.4,182.6c0.1,0,0.2,0.1,0.2,0.2c0,0.1-0.1,0.2-0.2,0.2
		c-0.1,0-0.2-0.1-0.2-0.2C211.2,182.7,211.3,182.6,211.4,182.6z M211.4,183.7c0.1,0,0.2,0.1,0.2,0.2c0,0.1-0.1,0.2-0.2,0.2
		c-0.1,0-0.2-0.1-0.2-0.2C211.2,183.8,211.3,183.7,211.4,183.7z M211.4,184.7c0.1,0,0.2,0.1,0.2,0.2c0,0.1-0.1,0.2-0.2,0.2
		c-0.1,0-0.2-0.1-0.2-0.2C211.2,184.8,211.3,184.7,211.4,184.7z M211.4,185.7c0.1,0,0.2,0.1,0.2,0.2c0,0.1-0.1,0.2-0.2,0.2
		c-0.1,0-0.2-0.1-0.2-0.2C211.2,185.8,211.3,185.7,211.4,185.7z M211.4,186.8c0.1,0,0.2,0.1,0.2,0.2s-0.1,0.2-0.2,0.2
		c-0.1,0-0.2-0.1-0.2-0.2S211.3,186.8,211.4,186.8z M211.4,187.8c0.1,0,0.2,0.1,0.2,0.2c0,0.1-0.1,0.2-0.2,0.2
		c-0.1,0-0.2-0.1-0.2-0.2C211.2,187.9,211.3,187.8,211.4,187.8z M211.4,188.8c0.1,0,0.2,0.1,0.2,0.2c0,0.1-0.1,0.2-0.2,0.2
		c-0.1,0-0.2-0.1-0.2-0.2C211.2,188.9,211.3,188.8,211.4,188.8z M211.4,189.9c0.1,0,0.2,0.1,0.2,0.2c0,0.1-0.1,0.2-0.2,0.2
		c-0.1,0-0.2-0.1-0.2-0.2C211.2,189.9,211.3,189.9,211.4,189.9z M210.2,169.3c0.1,0,0.2,0.1,0.2,0.2c0,0.1-0.1,0.2-0.2,0.2
		c-0.1,0-0.2-0.1-0.2-0.2C209.9,169.4,210,169.3,210.2,169.3z M210.2,170.3c0.1,0,0.2,0.1,0.2,0.2c0,0.1-0.1,0.2-0.2,0.2
		c-0.1,0-0.2-0.1-0.2-0.2C209.9,170.4,210,170.3,210.2,170.3z M210.2,171.3c0.1,0,0.2,0.1,0.2,0.2s-0.1,0.2-0.2,0.2
		c-0.1,0-0.2-0.1-0.2-0.2S210,171.3,210.2,171.3z M210.2,172.4c0.1,0,0.2,0.1,0.2,0.2s-0.1,0.2-0.2,0.2c-0.1,0-0.2-0.1-0.2-0.2
		S210,172.4,210.2,172.4z M210.2,173.4c0.1,0,0.2,0.1,0.2,0.2c0,0.1-0.1,0.2-0.2,0.2c-0.1,0-0.2-0.1-0.2-0.2
		C209.9,173.5,210,173.4,210.2,173.4z M210.2,174.4c0.1,0,0.2,0.1,0.2,0.2s-0.1,0.2-0.2,0.2c-0.1,0-0.2-0.1-0.2-0.2
		S210,174.4,210.2,174.4z M210.2,175.4c0.1,0,0.2,0.1,0.2,0.2c0,0.1-0.1,0.2-0.2,0.2c-0.1,0-0.2-0.1-0.2-0.2
		C209.9,175.5,210,175.4,210.2,175.4z M210.2,176.5c0.1,0,0.2,0.1,0.2,0.2c0,0.1-0.1,0.2-0.2,0.2c-0.1,0-0.2-0.1-0.2-0.2
		C209.9,176.6,210,176.5,210.2,176.5z M210.2,177.5c0.1,0,0.2,0.1,0.2,0.2c0,0.1-0.1,0.2-0.2,0.2c-0.1,0-0.2-0.1-0.2-0.2
		C209.9,177.6,210,177.5,210.2,177.5z M210.2,178.5c0.1,0,0.2,0.1,0.2,0.2s-0.1,0.2-0.2,0.2c-0.1,0-0.2-0.1-0.2-0.2
		S210,178.5,210.2,178.5z M210.2,179.6c0.1,0,0.2,0.1,0.2,0.2c0,0.1-0.1,0.2-0.2,0.2c-0.1,0-0.2-0.1-0.2-0.2
		C209.9,179.7,210,179.6,210.2,179.6z M210.2,180.6c0.1,0,0.2,0.1,0.2,0.2s-0.1,0.2-0.2,0.2c-0.1,0-0.2-0.1-0.2-0.2
		S210,180.6,210.2,180.6z M210.2,181.6c0.1,0,0.2,0.1,0.2,0.2c0,0.1-0.1,0.2-0.2,0.2c-0.1,0-0.2-0.1-0.2-0.2
		C209.9,181.7,210,181.6,210.2,181.6z M210.2,182.6c0.1,0,0.2,0.1,0.2,0.2c0,0.1-0.1,0.2-0.2,0.2c-0.1,0-0.2-0.1-0.2-0.2
		C209.9,182.7,210,182.6,210.2,182.6z M210.2,183.7c0.1,0,0.2,0.1,0.2,0.2c0,0.1-0.1,0.2-0.2,0.2c-0.1,0-0.2-0.1-0.2-0.2
		C209.9,183.8,210,183.7,210.2,183.7z M210.2,184.7c0.1,0,0.2,0.1,0.2,0.2c0,0.1-0.1,0.2-0.2,0.2c-0.1,0-0.2-0.1-0.2-0.2
		C209.9,184.8,210,184.7,210.2,184.7z M210.2,185.7c0.1,0,0.2,0.1,0.2,0.2c0,0.1-0.1,0.2-0.2,0.2c-0.1,0-0.2-0.1-0.2-0.2
		C209.9,185.8,210,185.7,210.2,185.7z M210.2,186.8c0.1,0,0.2,0.1,0.2,0.2s-0.1,0.2-0.2,0.2c-0.1,0-0.2-0.1-0.2-0.2
		S210,186.8,210.2,186.8z M210.2,187.8c0.1,0,0.2,0.1,0.2,0.2c0,0.1-0.1,0.2-0.2,0.2c-0.1,0-0.2-0.1-0.2-0.2
		C209.9,187.9,210,187.8,210.2,187.8z M210.2,188.8c0.1,0,0.2,0.1,0.2,0.2c0,0.1-0.1,0.2-0.2,0.2c-0.1,0-0.2-0.1-0.2-0.2
		C209.9,188.9,210,188.8,210.2,188.8z M210.2,189.9c0.1,0,0.2,0.1,0.2,0.2c0,0.1-0.1,0.2-0.2,0.2c-0.1,0-0.2-0.1-0.2-0.2
		C209.9,189.9,210,189.9,210.2,189.9z M208.9,169.1c0.1,0,0.2,0.1,0.2,0.2c0,0.1-0.1,0.2-0.2,0.2s-0.2-0.1-0.2-0.2
		C208.7,169.2,208.8,169.1,208.9,169.1z M208.9,170.1c0.1,0,0.2,0.1,0.2,0.2c0,0.1-0.1,0.2-0.2,0.2s-0.2-0.1-0.2-0.2
		C208.7,170.2,208.8,170.1,208.9,170.1z M208.9,171.1c0.1,0,0.2,0.1,0.2,0.2s-0.1,0.2-0.2,0.2s-0.2-0.1-0.2-0.2
		S208.8,171.1,208.9,171.1z M208.9,172.1c0.1,0,0.2,0.1,0.2,0.2c0,0.1-0.1,0.2-0.2,0.2s-0.2-0.1-0.2-0.2
		C208.7,172.2,208.8,172.1,208.9,172.1z M208.9,173.2c0.1,0,0.2,0.1,0.2,0.2s-0.1,0.2-0.2,0.2s-0.2-0.1-0.2-0.2
		S208.8,173.2,208.9,173.2z M208.9,174.2c0.1,0,0.2,0.1,0.2,0.2c0,0.1-0.1,0.2-0.2,0.2s-0.2-0.1-0.2-0.2
		C208.7,174.3,208.8,174.2,208.9,174.2z M208.9,175.2c0.1,0,0.2,0.1,0.2,0.2c0,0.1-0.1,0.2-0.2,0.2s-0.2-0.1-0.2-0.2
		C208.7,175.3,208.8,175.2,208.9,175.2z M208.9,176.3c0.1,0,0.2,0.1,0.2,0.2c0,0.1-0.1,0.2-0.2,0.2s-0.2-0.1-0.2-0.2
		C208.7,176.4,208.8,176.3,208.9,176.3z M208.9,177.3c0.1,0,0.2,0.1,0.2,0.2c0,0.1-0.1,0.2-0.2,0.2s-0.2-0.1-0.2-0.2
		C208.7,177.4,208.8,177.3,208.9,177.3z M208.9,178.3c0.1,0,0.2,0.1,0.2,0.2c0,0.1-0.1,0.2-0.2,0.2s-0.2-0.1-0.2-0.2
		C208.7,178.4,208.8,178.3,208.9,178.3z M208.9,179.4c0.1,0,0.2,0.1,0.2,0.2c0,0.1-0.1,0.2-0.2,0.2s-0.2-0.1-0.2-0.2
		C208.7,179.4,208.8,179.4,208.9,179.4z M208.9,180.4c0.1,0,0.2,0.1,0.2,0.2c0,0.1-0.1,0.2-0.2,0.2s-0.2-0.1-0.2-0.2
		C208.7,180.5,208.8,180.4,208.9,180.4z M208.9,181.4c0.1,0,0.2,0.1,0.2,0.2s-0.1,0.2-0.2,0.2s-0.2-0.1-0.2-0.2
		S208.8,181.4,208.9,181.4z M208.9,182.4c0.1,0,0.2,0.1,0.2,0.2s-0.1,0.2-0.2,0.2s-0.2-0.1-0.2-0.2S208.8,182.4,208.9,182.4z
		 M208.9,183.5c0.1,0,0.2,0.1,0.2,0.2c0,0.1-0.1,0.2-0.2,0.2s-0.2-0.1-0.2-0.2C208.7,183.6,208.8,183.5,208.9,183.5z M208.9,184.5
		c0.1,0,0.2,0.1,0.2,0.2c0,0.1-0.1,0.2-0.2,0.2s-0.2-0.1-0.2-0.2C208.7,184.6,208.8,184.5,208.9,184.5z M208.9,185.5
		c0.1,0,0.2,0.1,0.2,0.2s-0.1,0.2-0.2,0.2s-0.2-0.1-0.2-0.2S208.8,185.5,208.9,185.5z M208.9,186.6c0.1,0,0.2,0.1,0.2,0.2
		c0,0.1-0.1,0.2-0.2,0.2s-0.2-0.1-0.2-0.2C208.7,186.7,208.8,186.6,208.9,186.6z M208.9,187.6c0.1,0,0.2,0.1,0.2,0.2
		s-0.1,0.2-0.2,0.2s-0.2-0.1-0.2-0.2S208.8,187.6,208.9,187.6z M208.9,188.6c0.1,0,0.2,0.1,0.2,0.2c0,0.1-0.1,0.2-0.2,0.2
		s-0.2-0.1-0.2-0.2C208.7,188.7,208.8,188.6,208.9,188.6z M208.9,189.6c0.1,0,0.2,0.1,0.2,0.2c0,0.1-0.1,0.2-0.2,0.2
		s-0.2-0.1-0.2-0.2C208.7,189.7,208.8,189.6,208.9,189.6z M207.7,168.8c0.1,0,0.2,0.1,0.2,0.2s-0.1,0.2-0.2,0.2
		c-0.1,0-0.2-0.1-0.2-0.2S207.6,168.8,207.7,168.8z M207.7,169.8c0.1,0,0.2,0.1,0.2,0.2c0,0.1-0.1,0.2-0.2,0.2
		c-0.1,0-0.2-0.1-0.2-0.2C207.5,169.9,207.6,169.8,207.7,169.8z M207.7,170.8c0.1,0,0.2,0.1,0.2,0.2c0,0.1-0.1,0.2-0.2,0.2
		c-0.1,0-0.2-0.1-0.2-0.2C207.5,170.9,207.6,170.8,207.7,170.8z M207.7,171.8c0.1,0,0.2,0.1,0.2,0.2s-0.1,0.2-0.2,0.2
		c-0.1,0-0.2-0.1-0.2-0.2S207.6,171.8,207.7,171.8z M207.7,172.9c0.1,0,0.2,0.1,0.2,0.2s-0.1,0.2-0.2,0.2c-0.1,0-0.2-0.1-0.2-0.2
		S207.6,172.9,207.7,172.9z M207.7,173.9c0.1,0,0.2,0.1,0.2,0.2c0,0.1-0.1,0.2-0.2,0.2c-0.1,0-0.2-0.1-0.2-0.2
		C207.5,174,207.6,173.9,207.7,173.9z M207.7,174.9c0.1,0,0.2,0.1,0.2,0.2c0,0.1-0.1,0.2-0.2,0.2c-0.1,0-0.2-0.1-0.2-0.2
		C207.5,175,207.6,174.9,207.7,174.9z M207.7,176c0.1,0,0.2,0.1,0.2,0.2c0,0.1-0.1,0.2-0.2,0.2c-0.1,0-0.2-0.1-0.2-0.2
		C207.5,176.1,207.6,176,207.7,176z M207.7,177c0.1,0,0.2,0.1,0.2,0.2c0,0.1-0.1,0.2-0.2,0.2c-0.1,0-0.2-0.1-0.2-0.2
		C207.5,177.1,207.6,177,207.7,177z M207.7,178c0.1,0,0.2,0.1,0.2,0.2s-0.1,0.2-0.2,0.2c-0.1,0-0.2-0.1-0.2-0.2S207.6,178,207.7,178
		z M207.7,179.1c0.1,0,0.2,0.1,0.2,0.2c0,0.1-0.1,0.2-0.2,0.2c-0.1,0-0.2-0.1-0.2-0.2C207.5,179.1,207.6,179.1,207.7,179.1z
		 M207.7,180.1c0.1,0,0.2,0.1,0.2,0.2c0,0.1-0.1,0.2-0.2,0.2c-0.1,0-0.2-0.1-0.2-0.2C207.5,180.2,207.6,180.1,207.7,180.1z
		 M207.7,181.1c0.1,0,0.2,0.1,0.2,0.2s-0.1,0.2-0.2,0.2c-0.1,0-0.2-0.1-0.2-0.2S207.6,181.1,207.7,181.1z M207.7,182.1
		c0.1,0,0.2,0.1,0.2,0.2c0,0.1-0.1,0.2-0.2,0.2c-0.1,0-0.2-0.1-0.2-0.2C207.5,182.2,207.6,182.1,207.7,182.1z M207.7,183.2
		c0.1,0,0.2,0.1,0.2,0.2c0,0.1-0.1,0.2-0.2,0.2c-0.1,0-0.2-0.1-0.2-0.2C207.5,183.3,207.6,183.2,207.7,183.2z M207.7,184.2
		c0.1,0,0.2,0.1,0.2,0.2s-0.1,0.2-0.2,0.2c-0.1,0-0.2-0.1-0.2-0.2S207.6,184.2,207.7,184.2z M207.7,185.2c0.1,0,0.2,0.1,0.2,0.2
		c0,0.1-0.1,0.2-0.2,0.2c-0.1,0-0.2-0.1-0.2-0.2C207.5,185.3,207.6,185.2,207.7,185.2z M207.7,186.3c0.1,0,0.2,0.1,0.2,0.2
		c0,0.1-0.1,0.2-0.2,0.2c-0.1,0-0.2-0.1-0.2-0.2C207.5,186.4,207.6,186.3,207.7,186.3z M207.7,187.3c0.1,0,0.2,0.1,0.2,0.2
		c0,0.1-0.1,0.2-0.2,0.2c-0.1,0-0.2-0.1-0.2-0.2C207.5,187.4,207.6,187.3,207.7,187.3z M207.7,188.3c0.1,0,0.2,0.1,0.2,0.2
		c0,0.1-0.1,0.2-0.2,0.2c-0.1,0-0.2-0.1-0.2-0.2C207.5,188.4,207.6,188.3,207.7,188.3z M207.7,189.3c0.1,0,0.2,0.1,0.2,0.2
		s-0.1,0.2-0.2,0.2c-0.1,0-0.2-0.1-0.2-0.2S207.6,189.3,207.7,189.3z M206.5,168.6c0.1,0,0.2,0.1,0.2,0.2s-0.1,0.2-0.2,0.2
		c-0.1,0-0.2-0.1-0.2-0.2S206.4,168.6,206.5,168.6z M206.5,169.6c0.1,0,0.2,0.1,0.2,0.2c0,0.1-0.1,0.2-0.2,0.2
		c-0.1,0-0.2-0.1-0.2-0.2C206.3,169.7,206.4,169.6,206.5,169.6z M206.5,170.6c0.1,0,0.2,0.1,0.2,0.2s-0.1,0.2-0.2,0.2
		c-0.1,0-0.2-0.1-0.2-0.2S206.4,170.6,206.5,170.6z M206.5,171.6c0.1,0,0.2,0.1,0.2,0.2c0,0.1-0.1,0.2-0.2,0.2
		c-0.1,0-0.2-0.1-0.2-0.2C206.3,171.7,206.4,171.6,206.5,171.6z M206.5,172.7c0.1,0,0.2,0.1,0.2,0.2c0,0.1-0.1,0.2-0.2,0.2
		c-0.1,0-0.2-0.1-0.2-0.2C206.3,172.8,206.4,172.7,206.5,172.7z M206.5,173.7c0.1,0,0.2,0.1,0.2,0.2c0,0.1-0.1,0.2-0.2,0.2
		c-0.1,0-0.2-0.1-0.2-0.2C206.3,173.8,206.4,173.7,206.5,173.7z M206.5,174.7c0.1,0,0.2,0.1,0.2,0.2c0,0.1-0.1,0.2-0.2,0.2
		c-0.1,0-0.2-0.1-0.2-0.2C206.3,174.8,206.4,174.7,206.5,174.7z M206.5,175.8c0.1,0,0.2,0.1,0.2,0.2c0,0.1-0.1,0.2-0.2,0.2
		c-0.1,0-0.2-0.1-0.2-0.2C206.3,175.9,206.4,175.8,206.5,175.8z M206.5,176.8c0.1,0,0.2,0.1,0.2,0.2c0,0.1-0.1,0.2-0.2,0.2
		c-0.1,0-0.2-0.1-0.2-0.2C206.3,176.9,206.4,176.8,206.5,176.8z M206.5,177.8c0.1,0,0.2,0.1,0.2,0.2c0,0.1-0.1,0.2-0.2,0.2
		c-0.1,0-0.2-0.1-0.2-0.2C206.3,177.9,206.4,177.8,206.5,177.8z M206.5,178.8c0.1,0,0.2,0.1,0.2,0.2s-0.1,0.2-0.2,0.2
		c-0.1,0-0.2-0.1-0.2-0.2S206.4,178.8,206.5,178.8z M206.5,179.9c0.1,0,0.2,0.1,0.2,0.2c0,0.1-0.1,0.2-0.2,0.2
		c-0.1,0-0.2-0.1-0.2-0.2C206.3,180,206.4,179.9,206.5,179.9z M206.5,180.9c0.1,0,0.2,0.1,0.2,0.2c0,0.1-0.1,0.2-0.2,0.2
		c-0.1,0-0.2-0.1-0.2-0.2C206.3,181,206.4,180.9,206.5,180.9z M206.5,181.9c0.1,0,0.2,0.1,0.2,0.2c0,0.1-0.1,0.2-0.2,0.2
		c-0.1,0-0.2-0.1-0.2-0.2C206.3,182,206.4,181.9,206.5,181.9z M206.5,183c0.1,0,0.2,0.1,0.2,0.2s-0.1,0.2-0.2,0.2
		c-0.1,0-0.2-0.1-0.2-0.2S206.4,183,206.5,183z M206.5,184c0.1,0,0.2,0.1,0.2,0.2c0,0.1-0.1,0.2-0.2,0.2c-0.1,0-0.2-0.1-0.2-0.2
		C206.3,184.1,206.4,184,206.5,184z M206.5,185c0.1,0,0.2,0.1,0.2,0.2c0,0.1-0.1,0.2-0.2,0.2c-0.1,0-0.2-0.1-0.2-0.2
		C206.3,185.1,206.4,185,206.5,185z M206.5,186.1c0.1,0,0.2,0.1,0.2,0.2c0,0.1-0.1,0.2-0.2,0.2c-0.1,0-0.2-0.1-0.2-0.2
		C206.3,186.1,206.4,186.1,206.5,186.1z M206.5,187.1c0.1,0,0.2,0.1,0.2,0.2c0,0.1-0.1,0.2-0.2,0.2c-0.1,0-0.2-0.1-0.2-0.2
		C206.3,187.2,206.4,187.1,206.5,187.1z M206.5,188.1c0.1,0,0.2,0.1,0.2,0.2s-0.1,0.2-0.2,0.2c-0.1,0-0.2-0.1-0.2-0.2
		S206.4,188.1,206.5,188.1z M206.5,189.1c0.1,0,0.2,0.1,0.2,0.2c0,0.1-0.1,0.2-0.2,0.2c-0.1,0-0.2-0.1-0.2-0.2
		C206.3,189.2,206.4,189.1,206.5,189.1z M205.4,168.3c0.1,0,0.2,0.1,0.2,0.2c0,0.1-0.1,0.2-0.2,0.2c-0.1,0-0.2-0.1-0.2-0.2
		C205.2,168.4,205.3,168.3,205.4,168.3z M205.4,169.4c0.1,0,0.2,0.1,0.2,0.2s-0.1,0.2-0.2,0.2c-0.1,0-0.2-0.1-0.2-0.2
		S205.3,169.4,205.4,169.4z M205.4,170.4c0.1,0,0.2,0.1,0.2,0.2c0,0.1-0.1,0.2-0.2,0.2c-0.1,0-0.2-0.1-0.2-0.2
		C205.2,170.5,205.3,170.4,205.4,170.4z M205.4,171.4c0.1,0,0.2,0.1,0.2,0.2s-0.1,0.2-0.2,0.2c-0.1,0-0.2-0.1-0.2-0.2
		S205.3,171.4,205.4,171.4z M205.4,172.5c0.1,0,0.2,0.1,0.2,0.2c0,0.1-0.1,0.2-0.2,0.2c-0.1,0-0.2-0.1-0.2-0.2
		C205.2,172.6,205.3,172.5,205.4,172.5z M205.4,173.5c0.1,0,0.2,0.1,0.2,0.2c0,0.1-0.1,0.2-0.2,0.2c-0.1,0-0.2-0.1-0.2-0.2
		C205.2,173.6,205.3,173.5,205.4,173.5z M205.4,174.5c0.1,0,0.2,0.1,0.2,0.2s-0.1,0.2-0.2,0.2c-0.1,0-0.2-0.1-0.2-0.2
		S205.3,174.5,205.4,174.5z M205.4,175.5c0.1,0,0.2,0.1,0.2,0.2s-0.1,0.2-0.2,0.2c-0.1,0-0.2-0.1-0.2-0.2S205.3,175.5,205.4,175.5z
		 M205.4,176.6c0.1,0,0.2,0.1,0.2,0.2c0,0.1-0.1,0.2-0.2,0.2c-0.1,0-0.2-0.1-0.2-0.2C205.2,176.7,205.3,176.6,205.4,176.6z
		 M205.4,177.6c0.1,0,0.2,0.1,0.2,0.2s-0.1,0.2-0.2,0.2c-0.1,0-0.2-0.1-0.2-0.2S205.3,177.6,205.4,177.6z M205.4,178.6
		c0.1,0,0.2,0.1,0.2,0.2c0,0.1-0.1,0.2-0.2,0.2c-0.1,0-0.2-0.1-0.2-0.2C205.2,178.7,205.3,178.6,205.4,178.6z M205.4,179.7
		c0.1,0,0.2,0.1,0.2,0.2c0,0.1-0.1,0.2-0.2,0.2c-0.1,0-0.2-0.1-0.2-0.2C205.2,179.8,205.3,179.7,205.4,179.7z M205.4,180.7
		c0.1,0,0.2,0.1,0.2,0.2c0,0.1-0.1,0.2-0.2,0.2c-0.1,0-0.2-0.1-0.2-0.2C205.2,180.8,205.3,180.7,205.4,180.7z M205.4,181.7
		c0.1,0,0.2,0.1,0.2,0.2s-0.1,0.2-0.2,0.2c-0.1,0-0.2-0.1-0.2-0.2S205.3,181.7,205.4,181.7z M205.4,182.8c0.1,0,0.2,0.1,0.2,0.2
		c0,0.1-0.1,0.2-0.2,0.2c-0.1,0-0.2-0.1-0.2-0.2C205.2,182.8,205.3,182.8,205.4,182.8z M205.4,183.8c0.1,0,0.2,0.1,0.2,0.2
		s-0.1,0.2-0.2,0.2c-0.1,0-0.2-0.1-0.2-0.2S205.3,183.8,205.4,183.8z M205.4,184.8c0.1,0,0.2,0.1,0.2,0.2c0,0.1-0.1,0.2-0.2,0.2
		c-0.1,0-0.2-0.1-0.2-0.2C205.2,184.9,205.3,184.8,205.4,184.8z M205.4,185.8c0.1,0,0.2,0.1,0.2,0.2c0,0.1-0.1,0.2-0.2,0.2
		c-0.1,0-0.2-0.1-0.2-0.2C205.2,185.9,205.3,185.8,205.4,185.8z M205.4,186.9c0.1,0,0.2,0.1,0.2,0.2c0,0.1-0.1,0.2-0.2,0.2
		c-0.1,0-0.2-0.1-0.2-0.2C205.2,187,205.3,186.9,205.4,186.9z M205.4,187.9c0.1,0,0.2,0.1,0.2,0.2c0,0.1-0.1,0.2-0.2,0.2
		c-0.1,0-0.2-0.1-0.2-0.2C205.2,188,205.3,187.9,205.4,187.9z M205.4,188.9c0.1,0,0.2,0.1,0.2,0.2c0,0.1-0.1,0.2-0.2,0.2
		c-0.1,0-0.2-0.1-0.2-0.2C205.2,189,205.3,188.9,205.4,188.9z M204.2,167.9c0.1,0,0.2,0.1,0.2,0.2c0,0.1-0.1,0.2-0.2,0.2
		c-0.1,0-0.2-0.1-0.2-0.2C204,168,204.1,167.9,204.2,167.9z M204.2,169c0.1,0,0.2,0.1,0.2,0.2c0,0.1-0.1,0.2-0.2,0.2
		c-0.1,0-0.2-0.1-0.2-0.2C204,169,204.1,169,204.2,169z M204.2,170c0.1,0,0.2,0.1,0.2,0.2c0,0.1-0.1,0.2-0.2,0.2
		c-0.1,0-0.2-0.1-0.2-0.2C204,170.1,204.1,170,204.2,170z M204.2,171c0.1,0,0.2,0.1,0.2,0.2c0,0.1-0.1,0.2-0.2,0.2
		c-0.1,0-0.2-0.1-0.2-0.2C204,171.1,204.1,171,204.2,171z M204.2,172c0.1,0,0.2,0.1,0.2,0.2c0,0.1-0.1,0.2-0.2,0.2
		c-0.1,0-0.2-0.1-0.2-0.2C204,172.1,204.1,172,204.2,172z M204.2,173.1c0.1,0,0.2,0.1,0.2,0.2c0,0.1-0.1,0.2-0.2,0.2
		c-0.1,0-0.2-0.1-0.2-0.2C204,173.2,204.1,173.1,204.2,173.1z M204.2,174.1c0.1,0,0.2,0.1,0.2,0.2c0,0.1-0.1,0.2-0.2,0.2
		c-0.1,0-0.2-0.1-0.2-0.2C204,174.2,204.1,174.1,204.2,174.1z M204.2,175.1c0.1,0,0.2,0.1,0.2,0.2s-0.1,0.2-0.2,0.2
		c-0.1,0-0.2-0.1-0.2-0.2S204.1,175.1,204.2,175.1z M204.2,176.2c0.1,0,0.2,0.1,0.2,0.2c0,0.1-0.1,0.2-0.2,0.2
		c-0.1,0-0.2-0.1-0.2-0.2C204,176.3,204.1,176.2,204.2,176.2z M204.2,177.2c0.1,0,0.2,0.1,0.2,0.2s-0.1,0.2-0.2,0.2
		c-0.1,0-0.2-0.1-0.2-0.2S204.1,177.2,204.2,177.2z M204.2,178.2c0.1,0,0.2,0.1,0.2,0.2c0,0.1-0.1,0.2-0.2,0.2
		c-0.1,0-0.2-0.1-0.2-0.2C204,178.3,204.1,178.2,204.2,178.2z M204.2,179.2c0.1,0,0.2,0.1,0.2,0.2c0,0.1-0.1,0.2-0.2,0.2
		c-0.1,0-0.2-0.1-0.2-0.2C204,179.3,204.1,179.2,204.2,179.2z M204.2,180.3c0.1,0,0.2,0.1,0.2,0.2c0,0.1-0.1,0.2-0.2,0.2
		c-0.1,0-0.2-0.1-0.2-0.2C204,180.4,204.1,180.3,204.2,180.3z M204.2,181.3c0.1,0,0.2,0.1,0.2,0.2s-0.1,0.2-0.2,0.2
		c-0.1,0-0.2-0.1-0.2-0.2S204.1,181.3,204.2,181.3z M204.2,182.3c0.1,0,0.2,0.1,0.2,0.2c0,0.1-0.1,0.2-0.2,0.2
		c-0.1,0-0.2-0.1-0.2-0.2C204,182.4,204.1,182.3,204.2,182.3z M204.2,183.4c0.1,0,0.2,0.1,0.2,0.2s-0.1,0.2-0.2,0.2
		c-0.1,0-0.2-0.1-0.2-0.2S204.1,183.4,204.2,183.4z M204.2,184.4c0.1,0,0.2,0.1,0.2,0.2c0,0.1-0.1,0.2-0.2,0.2
		c-0.1,0-0.2-0.1-0.2-0.2C204,184.5,204.1,184.4,204.2,184.4z M204.2,185.4c0.1,0,0.2,0.1,0.2,0.2c0,0.1-0.1,0.2-0.2,0.2
		c-0.1,0-0.2-0.1-0.2-0.2C204,185.5,204.1,185.4,204.2,185.4z M204.2,186.5c0.1,0,0.2,0.1,0.2,0.2s-0.1,0.2-0.2,0.2
		c-0.1,0-0.2-0.1-0.2-0.2S204.1,186.5,204.2,186.5z M204.2,187.5c0.1,0,0.2,0.1,0.2,0.2s-0.1,0.2-0.2,0.2c-0.1,0-0.2-0.1-0.2-0.2
		S204.1,187.5,204.2,187.5z M204.2,188.5c0.1,0,0.2,0.1,0.2,0.2c0,0.1-0.1,0.2-0.2,0.2c-0.1,0-0.2-0.1-0.2-0.2
		C204,188.6,204.1,188.5,204.2,188.5z"/>
	<path class="st0" d="M222,147.2C222,147.2,222,147.2,222,147.2c0-1.1-4.2-2-9.3-2c-5.1,0-9.3,0.9-9.3,2c0,0.2,0.1,0.3,0.2,0.4
		c1,0.9,4.7,1.5,9.1,1.5C217.8,149.1,221.9,148.3,222,147.2z"/>
	<path d="M221.2,168c0.1,0,0.2-0.1,0.2-0.2c0-0.1-0.1-0.2-0.2-0.2c-0.1,0-0.2,0.1-0.2,0.2C221,168,221.1,168,221.2,168z"/>
	<path d="M220.1,168.3c0.1,0,0.2-0.1,0.2-0.2c0-0.1-0.1-0.2-0.2-0.2s-0.2,0.1-0.2,0.2C219.9,168.2,220,168.3,220.1,168.3z"/>
	<path d="M218.8,168.8c0.1,0,0.2-0.1,0.2-0.2c0-0.1-0.1-0.2-0.2-0.2c-0.1,0-0.2,0.1-0.2,0.2C218.6,168.7,218.7,168.8,218.8,168.8z"
		/>
	<path d="M216.5,169.3c0.1,0,0.2-0.1,0.2-0.2c0-0.1-0.1-0.2-0.2-0.2c-0.1,0-0.2,0.1-0.2,0.2C216.2,169.2,216.3,169.3,216.5,169.3z"
		/>
	<path d="M214,169.6c0.1,0,0.2-0.1,0.2-0.2s-0.1-0.2-0.2-0.2s-0.2,0.1-0.2,0.2S213.9,169.6,214,169.6z"/>
	<path d="M211.4,169.7c0.1,0,0.2-0.1,0.2-0.2c0-0.1-0.1-0.2-0.2-0.2c-0.1,0-0.2,0.1-0.2,0.2C211.2,169.6,211.3,169.7,211.4,169.7z"
		/>
	<path d="M207.7,169.2c0.1,0,0.2-0.1,0.2-0.2s-0.1-0.2-0.2-0.2c-0.1,0-0.2,0.1-0.2,0.2S207.6,169.2,207.7,169.2z"/>
	<circle cx="208.9" cy="169.3" r="0.2"/>
	<path d="M205.4,168.8c0.1,0,0.2-0.1,0.2-0.2c0-0.1-0.1-0.2-0.2-0.2c-0.1,0-0.2,0.1-0.2,0.2C205.2,168.7,205.3,168.8,205.4,168.8z"
		/>
	<circle cx="206.5" cy="168.8" r="0.2"/>
	<path d="M204.2,168.3c0.1,0,0.2-0.1,0.2-0.2c0-0.1-0.1-0.2-0.2-0.2c-0.1,0-0.2,0.1-0.2,0.2C204,168.2,204.1,168.3,204.2,168.3z"/>
	<path d="M217.6,169.1c0.1,0,0.2-0.1,0.2-0.2c0-0.1-0.1-0.2-0.2-0.2c-0.1,0-0.2,0.1-0.2,0.2C217.4,169,217.5,169.1,217.6,169.1z"/>
	<circle cx="215.2" cy="169.3" r="0.2"/>
	<path d="M212.5,169.7c0.1,0,0.2-0.1,0.2-0.2c0-0.1-0.1-0.2-0.2-0.2c-0.1,0-0.2,0.1-0.2,0.2C212.3,169.6,212.4,169.7,212.5,169.7z"
		/>
	<path d="M210.2,169.7c0.1,0,0.2-0.1,0.2-0.2c0-0.1-0.1-0.2-0.2-0.2c-0.1,0-0.2,0.1-0.2,0.2C209.9,169.6,210,169.7,210.2,169.7z"/>
	<path d="M221.2,169.1c0.1,0,0.2-0.1,0.2-0.2s-0.1-0.2-0.2-0.2c-0.1,0-0.2,0.1-0.2,0.2S221.1,169.1,221.2,169.1z"/>
	<path d="M220.1,169.4c0.1,0,0.2-0.1,0.2-0.2c0-0.1-0.1-0.2-0.2-0.2s-0.2,0.1-0.2,0.2C219.9,169.3,220,169.4,220.1,169.4z"/>
	<circle cx="218.8" cy="169.6" r="0.2"/>
	<circle cx="216.5" cy="170.1" r="0.2"/>
	<circle cx="214" cy="170.4" r="0.2"/>
	<path d="M211.4,170.7c0.1,0,0.2-0.1,0.2-0.2c0-0.1-0.1-0.2-0.2-0.2c-0.1,0-0.2,0.1-0.2,0.2C211.2,170.6,211.3,170.7,211.4,170.7z"
		/>
	<circle cx="207.7" cy="170" r="0.2"/>
	<path d="M208.9,170.5c0.1,0,0.2-0.1,0.2-0.2c0-0.1-0.1-0.2-0.2-0.2s-0.2,0.1-0.2,0.2C208.7,170.4,208.8,170.5,208.9,170.5z"/>
	<circle cx="205.4" cy="169.6" r="0.2"/>
	<path d="M206.5,170c0.1,0,0.2-0.1,0.2-0.2c0-0.1-0.1-0.2-0.2-0.2c-0.1,0-0.2,0.1-0.2,0.2C206.3,169.9,206.4,170,206.5,170z"/>
	<path d="M204.2,169.4c0.1,0,0.2-0.1,0.2-0.2c0-0.1-0.1-0.2-0.2-0.2c-0.1,0-0.2,0.1-0.2,0.2C204,169.3,204.1,169.4,204.2,169.4z"/>
	<path d="M217.6,170.1c0.1,0,0.2-0.1,0.2-0.2s-0.1-0.2-0.2-0.2c-0.1,0-0.2,0.1-0.2,0.2S217.5,170.1,217.6,170.1z"/>
	<path d="M215.2,170.5c0.1,0,0.2-0.1,0.2-0.2c0-0.1-0.1-0.2-0.2-0.2s-0.2,0.1-0.2,0.2C215,170.4,215.1,170.5,215.2,170.5z"/>
	<circle cx="212.5" cy="170.5" r="0.2"/>
	<circle cx="210.2" cy="170.5" r="0.2"/>
	<path d="M221.2,170.1c0.1,0,0.2-0.1,0.2-0.2s-0.1-0.2-0.2-0.2c-0.1,0-0.2,0.1-0.2,0.2S221.1,170.1,221.2,170.1z"/>
	<path d="M220.1,170.4c0.1,0,0.2-0.1,0.2-0.2c0-0.1-0.1-0.2-0.2-0.2s-0.2,0.1-0.2,0.2C219.9,170.3,220,170.4,220.1,170.4z"/>
	<path d="M218.8,170.8c0.1,0,0.2-0.1,0.2-0.2c0-0.1-0.1-0.2-0.2-0.2c-0.1,0-0.2,0.1-0.2,0.2C218.6,170.7,218.7,170.8,218.8,170.8z"
		/>
	<path d="M216.5,171.3c0.1,0,0.2-0.1,0.2-0.2c0-0.1-0.1-0.2-0.2-0.2c-0.1,0-0.2,0.1-0.2,0.2C216.2,171.2,216.3,171.3,216.5,171.3z"
		/>
	<path d="M214,171.6c0.1,0,0.2-0.1,0.2-0.2c0-0.1-0.1-0.2-0.2-0.2s-0.2,0.1-0.2,0.2C213.8,171.5,213.9,171.6,214,171.6z"/>
	<path d="M211.4,171.7c0.1,0,0.2-0.1,0.2-0.2s-0.1-0.2-0.2-0.2c-0.1,0-0.2,0.1-0.2,0.2S211.3,171.7,211.4,171.7z"/>
	<path d="M207.7,171.2c0.1,0,0.2-0.1,0.2-0.2c0-0.1-0.1-0.2-0.2-0.2c-0.1,0-0.2,0.1-0.2,0.2C207.5,171.1,207.6,171.2,207.7,171.2z"
		/>
	<circle cx="208.9" cy="171.3" r="0.2"/>
	<path d="M205.4,170.8c0.1,0,0.2-0.1,0.2-0.2c0-0.1-0.1-0.2-0.2-0.2c-0.1,0-0.2,0.1-0.2,0.2C205.2,170.7,205.3,170.8,205.4,170.8z"
		/>
	<circle cx="206.5" cy="170.8" r="0.2"/>
	<path d="M204.2,170.4c0.1,0,0.2-0.1,0.2-0.2c0-0.1-0.1-0.2-0.2-0.2c-0.1,0-0.2,0.1-0.2,0.2C204,170.3,204.1,170.4,204.2,170.4z"/>
	<path d="M217.6,171.1c0.1,0,0.2-0.1,0.2-0.2s-0.1-0.2-0.2-0.2c-0.1,0-0.2,0.1-0.2,0.2S217.5,171.1,217.6,171.1z"/>
	<circle cx="215.2" cy="171.3" r="0.2"/>
	<path d="M212.5,171.7c0.1,0,0.2-0.1,0.2-0.2s-0.1-0.2-0.2-0.2c-0.1,0-0.2,0.1-0.2,0.2S212.4,171.7,212.5,171.7z"/>
	<path d="M210.2,171.7c0.1,0,0.2-0.1,0.2-0.2s-0.1-0.2-0.2-0.2c-0.1,0-0.2,0.1-0.2,0.2S210,171.7,210.2,171.7z"/>
	<path d="M221.2,171.1c0.1,0,0.2-0.1,0.2-0.2c0-0.1-0.1-0.2-0.2-0.2c-0.1,0-0.2,0.1-0.2,0.2C221,171,221.1,171.1,221.2,171.1z"/>
	<circle cx="220.1" cy="171.2" r="0.2"/>
	<circle cx="218.8" cy="171.6" r="0.2"/>
	<circle cx="216.5" cy="172.1" r="0.2"/>
	<path d="M214,172.7c0.1,0,0.2-0.1,0.2-0.2c0-0.1-0.1-0.2-0.2-0.2s-0.2,0.1-0.2,0.2C213.8,172.6,213.9,172.7,214,172.7z"/>
	<path d="M211.4,172.8c0.1,0,0.2-0.1,0.2-0.2s-0.1-0.2-0.2-0.2c-0.1,0-0.2,0.1-0.2,0.2S211.3,172.8,211.4,172.8z"/>
	<circle cx="207.7" cy="172.1" r="0.2"/>
	<path d="M208.9,172.6c0.1,0,0.2-0.1,0.2-0.2c0-0.1-0.1-0.2-0.2-0.2s-0.2,0.1-0.2,0.2C208.7,172.5,208.8,172.6,208.9,172.6z"/>
	<circle cx="205.4" cy="171.6" r="0.2"/>
	<path d="M206.5,172.1c0.1,0,0.2-0.1,0.2-0.2c0-0.1-0.1-0.2-0.2-0.2c-0.1,0-0.2,0.1-0.2,0.2C206.3,172,206.4,172.1,206.5,172.1z"/>
	<circle cx="204.2" cy="171.2" r="0.2"/>
	<path d="M217.6,172.1c0.1,0,0.2-0.1,0.2-0.2c0-0.1-0.1-0.2-0.2-0.2c-0.1,0-0.2,0.1-0.2,0.2C217.4,172.1,217.5,172.1,217.6,172.1z"
		/>
	<path d="M215.2,172.6c0.1,0,0.2-0.1,0.2-0.2c0-0.1-0.1-0.2-0.2-0.2s-0.2,0.1-0.2,0.2C215,172.5,215.1,172.6,215.2,172.6z"/>
	<circle cx="212.5" cy="172.6" r="0.2"/>
	<circle cx="210.2" cy="172.6" r="0.2"/>
	<path d="M221.2,172.2c0.1,0,0.2-0.1,0.2-0.2c0-0.1-0.1-0.2-0.2-0.2c-0.1,0-0.2,0.1-0.2,0.2C221,172.1,221.1,172.2,221.2,172.2z"/>
	<path d="M220.1,172.5c0.1,0,0.2-0.1,0.2-0.2c0-0.1-0.1-0.2-0.2-0.2s-0.2,0.1-0.2,0.2C219.9,172.4,220,172.5,220.1,172.5z"/>
	<path d="M218.8,172.9c0.1,0,0.2-0.1,0.2-0.2c0-0.1-0.1-0.2-0.2-0.2c-0.1,0-0.2,0.1-0.2,0.2C218.6,172.8,218.7,172.9,218.8,172.9z"
		/>
	<path d="M216.5,173.4c0.1,0,0.2-0.1,0.2-0.2c0-0.1-0.1-0.2-0.2-0.2c-0.1,0-0.2,0.1-0.2,0.2C216.2,173.3,216.3,173.4,216.5,173.4z"
		/>
	<path d="M214,173.7c0.1,0,0.2-0.1,0.2-0.2s-0.1-0.2-0.2-0.2s-0.2,0.1-0.2,0.2S213.9,173.7,214,173.7z"/>
	<path d="M211.4,173.8c0.1,0,0.2-0.1,0.2-0.2c0-0.1-0.1-0.2-0.2-0.2c-0.1,0-0.2,0.1-0.2,0.2C211.2,173.7,211.3,173.8,211.4,173.8z"
		/>
	<path d="M207.7,173.3c0.1,0,0.2-0.1,0.2-0.2s-0.1-0.2-0.2-0.2c-0.1,0-0.2,0.1-0.2,0.2S207.6,173.3,207.7,173.3z"/>
	<circle cx="208.9" cy="173.4" r="0.2"/>
	<path d="M205.4,172.9c0.1,0,0.2-0.1,0.2-0.2c0-0.1-0.1-0.2-0.2-0.2c-0.1,0-0.2,0.1-0.2,0.2C205.2,172.8,205.3,172.9,205.4,172.9z"
		/>
	<path d="M206.5,173.1c0.1,0,0.2-0.1,0.2-0.2c0-0.1-0.1-0.2-0.2-0.2c-0.1,0-0.2,0.1-0.2,0.2C206.3,173,206.4,173.1,206.5,173.1z"/>
	<path d="M204.2,172.5c0.1,0,0.2-0.1,0.2-0.2c0-0.1-0.1-0.2-0.2-0.2c-0.1,0-0.2,0.1-0.2,0.2C204,172.4,204.1,172.5,204.2,172.5z"/>
	<path d="M217.6,173.2c0.1,0,0.2-0.1,0.2-0.2c0-0.1-0.1-0.2-0.2-0.2c-0.1,0-0.2,0.1-0.2,0.2C217.4,173.1,217.5,173.2,217.6,173.2z"
		/>
	<circle cx="215.2" cy="173.4" r="0.2"/>
	<path d="M212.5,173.8c0.1,0,0.2-0.1,0.2-0.2c0-0.1-0.1-0.2-0.2-0.2c-0.1,0-0.2,0.1-0.2,0.2C212.3,173.7,212.4,173.8,212.5,173.8z"
		/>
	<path d="M210.2,173.8c0.1,0,0.2-0.1,0.2-0.2c0-0.1-0.1-0.2-0.2-0.2c-0.1,0-0.2,0.1-0.2,0.2C209.9,173.7,210,173.8,210.2,173.8z"/>
	<path d="M221.2,173.2c0.1,0,0.2-0.1,0.2-0.2c0-0.1-0.1-0.2-0.2-0.2c-0.1,0-0.2,0.1-0.2,0.2C221,173.1,221.1,173.2,221.2,173.2z"/>
	<path d="M220.1,173.5c0.1,0,0.2-0.1,0.2-0.2c0-0.1-0.1-0.2-0.2-0.2s-0.2,0.1-0.2,0.2C219.9,173.4,220,173.5,220.1,173.5z"/>
	<circle cx="218.8" cy="173.7" r="0.2"/>
	<circle cx="216.5" cy="174.2" r="0.2"/>
	<circle cx="214" cy="174.5" r="0.2"/>
	<path d="M211.4,174.8c0.1,0,0.2-0.1,0.2-0.2s-0.1-0.2-0.2-0.2c-0.1,0-0.2,0.1-0.2,0.2S211.3,174.8,211.4,174.8z"/>
	<circle cx="207.7" cy="174.1" r="0.2"/>
	<path d="M208.9,174.6c0.1,0,0.2-0.1,0.2-0.2c0-0.1-0.1-0.2-0.2-0.2s-0.2,0.1-0.2,0.2C208.7,174.5,208.8,174.6,208.9,174.6z"/>
	<circle cx="205.4" cy="173.7" r="0.2"/>
	<path d="M206.5,174.1c0.1,0,0.2-0.1,0.2-0.2c0-0.1-0.1-0.2-0.2-0.2c-0.1,0-0.2,0.1-0.2,0.2C206.3,174,206.4,174.1,206.5,174.1z"/>
	<path d="M204.2,173.5c0.1,0,0.2-0.1,0.2-0.2c0-0.1-0.1-0.2-0.2-0.2c-0.1,0-0.2,0.1-0.2,0.2C204,173.4,204.1,173.5,204.2,173.5z"/>
	<path d="M217.6,174.2c0.1,0,0.2-0.1,0.2-0.2s-0.1-0.2-0.2-0.2c-0.1,0-0.2,0.1-0.2,0.2S217.5,174.2,217.6,174.2z"/>
	<path d="M215.2,174.6c0.1,0,0.2-0.1,0.2-0.2c0-0.1-0.1-0.2-0.2-0.2s-0.2,0.1-0.2,0.2C215,174.5,215.1,174.6,215.2,174.6z"/>
	<circle cx="212.5" cy="174.6" r="0.2"/>
	<circle cx="210.2" cy="174.6" r="0.2"/>
	<path d="M221.2,174.2c0.1,0,0.2-0.1,0.2-0.2c0-0.1-0.1-0.2-0.2-0.2c-0.1,0-0.2,0.1-0.2,0.2C221,174.1,221.1,174.2,221.2,174.2z"/>
	<path d="M220.1,174.5c0.1,0,0.2-0.1,0.2-0.2c0-0.1-0.1-0.2-0.2-0.2s-0.2,0.1-0.2,0.2C219.9,174.4,220,174.5,220.1,174.5z"/>
	<path d="M218.8,174.9c0.1,0,0.2-0.1,0.2-0.2s-0.1-0.2-0.2-0.2c-0.1,0-0.2,0.1-0.2,0.2S218.7,174.9,218.8,174.9z"/>
	<path d="M216.5,175.4c0.1,0,0.2-0.1,0.2-0.2c0-0.1-0.1-0.2-0.2-0.2c-0.1,0-0.2,0.1-0.2,0.2C216.2,175.3,216.3,175.4,216.5,175.4z"
		/>
	<circle cx="214" cy="175.5" r="0.2"/>
	<path d="M211.4,175.9c0.1,0,0.2-0.1,0.2-0.2c0-0.1-0.1-0.2-0.2-0.2c-0.1,0-0.2,0.1-0.2,0.2C211.2,175.8,211.3,175.9,211.4,175.9z"
		/>
	<path d="M207.7,175.4c0.1,0,0.2-0.1,0.2-0.2c0-0.1-0.1-0.2-0.2-0.2c-0.1,0-0.2,0.1-0.2,0.2C207.5,175.3,207.6,175.4,207.7,175.4z"
		/>
	<circle cx="208.9" cy="175.4" r="0.2"/>
	<path d="M205.4,174.9c0.1,0,0.2-0.1,0.2-0.2s-0.1-0.2-0.2-0.2c-0.1,0-0.2,0.1-0.2,0.2S205.3,174.9,205.4,174.9z"/>
	<circle cx="206.5" cy="174.9" r="0.2"/>
	<path d="M204.2,174.5c0.1,0,0.2-0.1,0.2-0.2c0-0.1-0.1-0.2-0.2-0.2c-0.1,0-0.2,0.1-0.2,0.2C204,174.4,204.1,174.5,204.2,174.5z"/>
	<path d="M217.6,175.2c0.1,0,0.2-0.1,0.2-0.2c0-0.1-0.1-0.2-0.2-0.2c-0.1,0-0.2,0.1-0.2,0.2C217.4,175.1,217.5,175.2,217.6,175.2z"
		/>
	<circle cx="215.2" cy="175.4" r="0.2"/>
	<path d="M212.5,175.9c0.1,0,0.2-0.1,0.2-0.2c0-0.1-0.1-0.2-0.2-0.2c-0.1,0-0.2,0.1-0.2,0.2C212.3,175.8,212.4,175.9,212.5,175.9z"
		/>
	<path d="M210.2,175.9c0.1,0,0.2-0.1,0.2-0.2c0-0.1-0.1-0.2-0.2-0.2c-0.1,0-0.2,0.1-0.2,0.2C209.9,175.8,210,175.9,210.2,175.9z"/>
	<path d="M221.2,175.3c0.1,0,0.2-0.1,0.2-0.2c0-0.1-0.1-0.2-0.2-0.2c-0.1,0-0.2,0.1-0.2,0.2C221,175.2,221.1,175.3,221.2,175.3z"/>
	<circle cx="220.1" cy="175.3" r="0.2"/>
	<circle cx="218.8" cy="175.8" r="0.2"/>
	<circle cx="216.5" cy="176.3" r="0.2"/>
	<circle cx="214" cy="176.6" r="0.2"/>
	<path d="M211.4,176.9c0.1,0,0.2-0.1,0.2-0.2c0-0.1-0.1-0.2-0.2-0.2c-0.1,0-0.2,0.1-0.2,0.2C211.2,176.8,211.3,176.9,211.4,176.9z"
		/>
	<circle cx="207.7" cy="176.2" r="0.2"/>
	<path d="M208.9,176.7c0.1,0,0.2-0.1,0.2-0.2c0-0.1-0.1-0.2-0.2-0.2s-0.2,0.1-0.2,0.2C208.7,176.6,208.8,176.7,208.9,176.7z"/>
	<circle cx="205.4" cy="175.8" r="0.2"/>
	<path d="M206.5,176.2c0.1,0,0.2-0.1,0.2-0.2c0-0.1-0.1-0.2-0.2-0.2c-0.1,0-0.2,0.1-0.2,0.2C206.3,176.1,206.4,176.2,206.5,176.2z"
		/>
	<circle cx="204.2" cy="175.3" r="0.2"/>
	<path d="M217.6,176.3c0.1,0,0.2-0.1,0.2-0.2c0-0.1-0.1-0.2-0.2-0.2c-0.1,0-0.2,0.1-0.2,0.2C217.4,176.2,217.5,176.3,217.6,176.3z"
		/>
	<path d="M215.2,176.7c0.1,0,0.2-0.1,0.2-0.2c0-0.1-0.1-0.2-0.2-0.2s-0.2,0.1-0.2,0.2C215,176.6,215.1,176.7,215.2,176.7z"/>
	<circle cx="212.5" cy="176.7" r="0.2"/>
	<circle cx="210.2" cy="176.7" r="0.2"/>
	<path d="M221.2,176.3c0.1,0,0.2-0.1,0.2-0.2c0-0.1-0.1-0.2-0.2-0.2c-0.1,0-0.2,0.1-0.2,0.2C221,176.2,221.1,176.3,221.2,176.3z"/>
	<path d="M220.1,176.6c0.1,0,0.2-0.1,0.2-0.2c0-0.1-0.1-0.2-0.2-0.2s-0.2,0.1-0.2,0.2C219.9,176.5,220,176.6,220.1,176.6z"/>
	<path d="M218.8,177c0.1,0,0.2-0.1,0.2-0.2c0-0.1-0.1-0.2-0.2-0.2c-0.1,0-0.2,0.1-0.2,0.2C218.6,176.9,218.7,177,218.8,177z"/>
	<path d="M216.5,177.5c0.1,0,0.2-0.1,0.2-0.2c0-0.1-0.1-0.2-0.2-0.2c-0.1,0-0.2,0.1-0.2,0.2C216.2,177.4,216.3,177.5,216.5,177.5z"
		/>
	<path d="M214,177.8c0.1,0,0.2-0.1,0.2-0.2c0-0.1-0.1-0.2-0.2-0.2s-0.2,0.1-0.2,0.2C213.8,177.7,213.9,177.8,214,177.8z"/>
	<path d="M211.4,177.9c0.1,0,0.2-0.1,0.2-0.2c0-0.1-0.1-0.2-0.2-0.2c-0.1,0-0.2,0.1-0.2,0.2C211.2,177.8,211.3,177.9,211.4,177.9z"
		/>
	<path d="M207.7,177.4c0.1,0,0.2-0.1,0.2-0.2c0-0.1-0.1-0.2-0.2-0.2c-0.1,0-0.2,0.1-0.2,0.2C207.5,177.3,207.6,177.4,207.7,177.4z"
		/>
	<circle cx="208.9" cy="177.5" r="0.2"/>
	<path d="M205.4,177c0.1,0,0.2-0.1,0.2-0.2c0-0.1-0.1-0.2-0.2-0.2c-0.1,0-0.2,0.1-0.2,0.2C205.2,176.9,205.3,177,205.4,177z"/>
	<circle cx="206.5" cy="177" r="0.2"/>
	<path d="M204.2,176.6c0.1,0,0.2-0.1,0.2-0.2c0-0.1-0.1-0.2-0.2-0.2c-0.1,0-0.2,0.1-0.2,0.2C204,176.5,204.1,176.6,204.2,176.6z"/>
	<path d="M217.6,177.3c0.1,0,0.2-0.1,0.2-0.2c0-0.1-0.1-0.2-0.2-0.2c-0.1,0-0.2,0.1-0.2,0.2C217.4,177.2,217.5,177.3,217.6,177.3z"
		/>
	<circle cx="215.2" cy="177.5" r="0.2"/>
	<path d="M212.5,177.9c0.1,0,0.2-0.1,0.2-0.2c0-0.1-0.1-0.2-0.2-0.2c-0.1,0-0.2,0.1-0.2,0.2C212.3,177.8,212.4,177.9,212.5,177.9z"
		/>
	<path d="M210.2,177.9c0.1,0,0.2-0.1,0.2-0.2c0-0.1-0.1-0.2-0.2-0.2c-0.1,0-0.2,0.1-0.2,0.2C209.9,177.8,210,177.9,210.2,177.9z"/>
	<path d="M221.2,177.3c0.1,0,0.2-0.1,0.2-0.2c0-0.1-0.1-0.2-0.2-0.2c-0.1,0-0.2,0.1-0.2,0.2C221,177.2,221.1,177.3,221.2,177.3z"/>
	<circle cx="220.1" cy="177.4" r="0.2"/>
	<circle cx="218.8" cy="177.8" r="0.2"/>
	<circle cx="216.5" cy="178.3" r="0.2"/>
	<circle cx="214" cy="178.6" r="0.2"/>
	<path d="M211.4,179c0.1,0,0.2-0.1,0.2-0.2s-0.1-0.2-0.2-0.2c-0.1,0-0.2,0.1-0.2,0.2S211.3,179,211.4,179z"/>
	<circle cx="207.7" cy="178.2" r="0.2"/>
	<path d="M208.9,178.7c0.1,0,0.2-0.1,0.2-0.2c0-0.1-0.1-0.2-0.2-0.2s-0.2,0.1-0.2,0.2C208.7,178.6,208.8,178.7,208.9,178.7z"/>
	<circle cx="205.4" cy="177.8" r="0.2"/>
	<path d="M206.5,178.2c0.1,0,0.2-0.1,0.2-0.2c0-0.1-0.1-0.2-0.2-0.2c-0.1,0-0.2,0.1-0.2,0.2C206.3,178.1,206.4,178.2,206.5,178.2z"
		/>
	<circle cx="204.2" cy="177.4" r="0.2"/>
	<path d="M217.6,178.3c0.1,0,0.2-0.1,0.2-0.2c0-0.1-0.1-0.2-0.2-0.2c-0.1,0-0.2,0.1-0.2,0.2C217.4,178.2,217.5,178.3,217.6,178.3z"
		/>
	<path d="M215.2,178.7c0.1,0,0.2-0.1,0.2-0.2c0-0.1-0.1-0.2-0.2-0.2s-0.2,0.1-0.2,0.2C215,178.6,215.1,178.7,215.2,178.7z"/>
	<circle cx="212.5" cy="178.7" r="0.2"/>
	<circle cx="210.2" cy="178.7" r="0.2"/>
	<path d="M221.2,178.3c0.1,0,0.2-0.1,0.2-0.2s-0.1-0.2-0.2-0.2c-0.1,0-0.2,0.1-0.2,0.2S221.1,178.3,221.2,178.3z"/>
	<path d="M220.1,178.6c0.1,0,0.2-0.1,0.2-0.2c0-0.1-0.1-0.2-0.2-0.2s-0.2,0.1-0.2,0.2C219.9,178.5,220,178.6,220.1,178.6z"/>
	<path d="M218.8,179.1c0.1,0,0.2-0.1,0.2-0.2c0-0.1-0.1-0.2-0.2-0.2c-0.1,0-0.2,0.1-0.2,0.2C218.6,179,218.7,179.1,218.8,179.1z"/>
	<path d="M216.5,179.6c0.1,0,0.2-0.1,0.2-0.2c0-0.1-0.1-0.2-0.2-0.2c-0.1,0-0.2,0.1-0.2,0.2C216.2,179.5,216.3,179.6,216.5,179.6z"
		/>
	<path d="M214,179.9c0.1,0,0.2-0.1,0.2-0.2c0-0.1-0.1-0.2-0.2-0.2s-0.2,0.1-0.2,0.2C213.8,179.8,213.9,179.9,214,179.9z"/>
	<path d="M211.4,180c0.1,0,0.2-0.1,0.2-0.2c0-0.1-0.1-0.2-0.2-0.2c-0.1,0-0.2,0.1-0.2,0.2C211.2,179.9,211.3,180,211.4,180z"/>
	<path d="M207.7,179.5c0.1,0,0.2-0.1,0.2-0.2c0-0.1-0.1-0.2-0.2-0.2c-0.1,0-0.2,0.1-0.2,0.2C207.5,179.4,207.6,179.5,207.7,179.5z"
		/>
	<circle cx="208.9" cy="179.6" r="0.2"/>
	<path d="M205.4,179.1c0.1,0,0.2-0.1,0.2-0.2c0-0.1-0.1-0.2-0.2-0.2c-0.1,0-0.2,0.1-0.2,0.2C205.2,179,205.3,179.1,205.4,179.1z"/>
	<circle cx="206.5" cy="179.1" r="0.2"/>
	<path d="M204.2,178.6c0.1,0,0.2-0.1,0.2-0.2c0-0.1-0.1-0.2-0.2-0.2c-0.1,0-0.2,0.1-0.2,0.2C204,178.5,204.1,178.6,204.2,178.6z"/>
	<path d="M217.6,179.4c0.1,0,0.2-0.1,0.2-0.2s-0.1-0.2-0.2-0.2c-0.1,0-0.2,0.1-0.2,0.2S217.5,179.4,217.6,179.4z"/>
	<circle cx="215.2" cy="179.6" r="0.2"/>
	<path d="M212.5,180c0.1,0,0.2-0.1,0.2-0.2c0-0.1-0.1-0.2-0.2-0.2c-0.1,0-0.2,0.1-0.2,0.2C212.3,179.9,212.4,180,212.5,180z"/>
	<path d="M210.2,180c0.1,0,0.2-0.1,0.2-0.2c0-0.1-0.1-0.2-0.2-0.2c-0.1,0-0.2,0.1-0.2,0.2C209.9,179.9,210,180,210.2,180z"/>
	<path d="M221.2,179.4c0.1,0,0.2-0.1,0.2-0.2c0-0.1-0.1-0.2-0.2-0.2c-0.1,0-0.2,0.1-0.2,0.2C221,179.3,221.1,179.4,221.2,179.4z"/>
	<circle cx="220.1" cy="179.5" r="0.2"/>
	<circle cx="218.8" cy="179.9" r="0.2"/>
	<circle cx="216.5" cy="180.4" r="0.2"/>
	<circle cx="214" cy="180.7" r="0.2"/>
	<path d="M211.4,181c0.1,0,0.2-0.1,0.2-0.2s-0.1-0.2-0.2-0.2c-0.1,0-0.2,0.1-0.2,0.2S211.3,181,211.4,181z"/>
	<circle cx="207.7" cy="180.3" r="0.2"/>
	<path d="M208.9,180.8c0.1,0,0.2-0.1,0.2-0.2c0-0.1-0.1-0.2-0.2-0.2s-0.2,0.1-0.2,0.2C208.7,180.7,208.8,180.8,208.9,180.8z"/>
	<circle cx="205.4" cy="179.9" r="0.2"/>
	<path d="M206.5,180.3c0.1,0,0.2-0.1,0.2-0.2c0-0.1-0.1-0.2-0.2-0.2c-0.1,0-0.2,0.1-0.2,0.2C206.3,180.2,206.4,180.3,206.5,180.3z"
		/>
	<circle cx="204.2" cy="179.5" r="0.2"/>
	<path d="M217.6,180.4c0.1,0,0.2-0.1,0.2-0.2c0-0.1-0.1-0.2-0.2-0.2c-0.1,0-0.2,0.1-0.2,0.2C217.4,180.3,217.5,180.4,217.6,180.4z"
		/>
	<path d="M215.2,180.8c0.1,0,0.2-0.1,0.2-0.2c0-0.1-0.1-0.2-0.2-0.2s-0.2,0.1-0.2,0.2C215,180.7,215.1,180.8,215.2,180.8z"/>
	<circle cx="212.5" cy="180.8" r="0.2"/>
	<circle cx="210.2" cy="180.8" r="0.2"/>
	<path d="M221.2,180.4c0.1,0,0.2-0.1,0.2-0.2c0-0.1-0.1-0.2-0.2-0.2c-0.1,0-0.2,0.1-0.2,0.2C221,180.3,221.1,180.4,221.2,180.4z"/>
	<path d="M220.1,180.7c0.1,0,0.2-0.1,0.2-0.2c0-0.1-0.1-0.2-0.2-0.2s-0.2,0.1-0.2,0.2C219.9,180.6,220,180.7,220.1,180.7z"/>
	<path d="M218.8,181.1c0.1,0,0.2-0.1,0.2-0.2c0-0.1-0.1-0.2-0.2-0.2c-0.1,0-0.2,0.1-0.2,0.2C218.6,181,218.7,181.1,218.8,181.1z"/>
	<path d="M216.5,181.6c0.1,0,0.2-0.1,0.2-0.2c0-0.1-0.1-0.2-0.2-0.2c-0.1,0-0.2,0.1-0.2,0.2C216.2,181.5,216.3,181.6,216.5,181.6z"
		/>
	<circle cx="214" cy="181.7" r="0.2"/>
	<path d="M211.4,182c0.1,0,0.2-0.1,0.2-0.2c0-0.1-0.1-0.2-0.2-0.2c-0.1,0-0.2,0.1-0.2,0.2C211.2,181.9,211.3,182,211.4,182z"/>
	<path d="M207.7,181.5c0.1,0,0.2-0.1,0.2-0.2s-0.1-0.2-0.2-0.2c-0.1,0-0.2,0.1-0.2,0.2S207.6,181.5,207.7,181.5z"/>
	<circle cx="208.9" cy="181.6" r="0.2"/>
	<path d="M205.4,181.1c0.1,0,0.2-0.1,0.2-0.2c0-0.1-0.1-0.2-0.2-0.2c-0.1,0-0.2,0.1-0.2,0.2C205.2,181,205.3,181.1,205.4,181.1z"/>
	<circle cx="206.5" cy="181.1" r="0.2"/>
	<path d="M204.2,180.7c0.1,0,0.2-0.1,0.2-0.2c0-0.1-0.1-0.2-0.2-0.2c-0.1,0-0.2,0.1-0.2,0.2C204,180.6,204.1,180.7,204.2,180.7z"/>
	<path d="M217.6,181.4c0.1,0,0.2-0.1,0.2-0.2c0-0.1-0.1-0.2-0.2-0.2c-0.1,0-0.2,0.1-0.2,0.2C217.4,181.3,217.5,181.4,217.6,181.4z"
		/>
	<circle cx="215.2" cy="181.6" r="0.2"/>
	<path d="M212.5,182c0.1,0,0.2-0.1,0.2-0.2c0-0.1-0.1-0.2-0.2-0.2c-0.1,0-0.2,0.1-0.2,0.2C212.3,181.9,212.4,182,212.5,182z"/>
	<path d="M210.2,182c0.1,0,0.2-0.1,0.2-0.2c0-0.1-0.1-0.2-0.2-0.2c-0.1,0-0.2,0.1-0.2,0.2C209.9,181.9,210,182,210.2,182z"/>
	<path d="M221.2,181.4c0.1,0,0.2-0.1,0.2-0.2s-0.1-0.2-0.2-0.2c-0.1,0-0.2,0.1-0.2,0.2S221.1,181.4,221.2,181.4z"/>
	<circle cx="220.1" cy="181.5" r="0.2"/>
	<circle cx="218.8" cy="181.9" r="0.2"/>
	<circle cx="216.5" cy="182.4" r="0.2"/>
	<circle cx="214" cy="182.7" r="0.2"/>
	<path d="M211.4,183.1c0.1,0,0.2-0.1,0.2-0.2c0-0.1-0.1-0.2-0.2-0.2c-0.1,0-0.2,0.1-0.2,0.2C211.2,183,211.3,183.1,211.4,183.1z"/>
	<path d="M207.7,182.6c0.1,0,0.2-0.1,0.2-0.2c0-0.1-0.1-0.2-0.2-0.2c-0.1,0-0.2,0.1-0.2,0.2C207.5,182.5,207.6,182.6,207.7,182.6z"
		/>
	<path d="M208.9,182.9c0.1,0,0.2-0.1,0.2-0.2s-0.1-0.2-0.2-0.2s-0.2,0.1-0.2,0.2S208.8,182.9,208.9,182.9z"/>
	<circle cx="205.4" cy="181.9" r="0.2"/>
	<path d="M206.5,182.4c0.1,0,0.2-0.1,0.2-0.2c0-0.1-0.1-0.2-0.2-0.2c-0.1,0-0.2,0.1-0.2,0.2C206.3,182.3,206.4,182.4,206.5,182.4z"
		/>
	<circle cx="204.2" cy="181.5" r="0.2"/>
	<path d="M217.6,182.4c0.1,0,0.2-0.1,0.2-0.2c0-0.1-0.1-0.2-0.2-0.2c-0.1,0-0.2,0.1-0.2,0.2C217.4,182.3,217.5,182.4,217.6,182.4z"
		/>
	<path d="M215.2,182.9c0.1,0,0.2-0.1,0.2-0.2s-0.1-0.2-0.2-0.2s-0.2,0.1-0.2,0.2S215.1,182.9,215.2,182.9z"/>
	<circle cx="212.5" cy="182.9" r="0.2"/>
	<circle cx="210.2" cy="182.9" r="0.2"/>
	<path d="M221.2,182.5c0.1,0,0.2-0.1,0.2-0.2c0-0.1-0.1-0.2-0.2-0.2c-0.1,0-0.2,0.1-0.2,0.2C221,182.4,221.1,182.5,221.2,182.5z"/>
	<path d="M220.1,182.8c0.1,0,0.2-0.1,0.2-0.2c0-0.1-0.1-0.2-0.2-0.2s-0.2,0.1-0.2,0.2C219.9,182.7,220,182.8,220.1,182.8z"/>
	<path d="M218.8,183.2c0.1,0,0.2-0.1,0.2-0.2c0-0.1-0.1-0.2-0.2-0.2c-0.1,0-0.2,0.1-0.2,0.2C218.6,183.1,218.7,183.2,218.8,183.2z"
		/>
	<path d="M216.5,183.7c0.1,0,0.2-0.1,0.2-0.2s-0.1-0.2-0.2-0.2c-0.1,0-0.2,0.1-0.2,0.2S216.3,183.7,216.5,183.7z"/>
	<path d="M214,184c0.1,0,0.2-0.1,0.2-0.2c0-0.1-0.1-0.2-0.2-0.2s-0.2,0.1-0.2,0.2C213.8,183.9,213.9,184,214,184z"/>
	<path d="M211.4,184.1c0.1,0,0.2-0.1,0.2-0.2c0-0.1-0.1-0.2-0.2-0.2c-0.1,0-0.2,0.1-0.2,0.2C211.2,184,211.3,184.1,211.4,184.1z"/>
	<path d="M207.7,183.6c0.1,0,0.2-0.1,0.2-0.2c0-0.1-0.1-0.2-0.2-0.2c-0.1,0-0.2,0.1-0.2,0.2C207.5,183.5,207.6,183.6,207.7,183.6z"
		/>
	<circle cx="208.9" cy="183.7" r="0.2"/>
	<path d="M205.4,183.2c0.1,0,0.2-0.1,0.2-0.2c0-0.1-0.1-0.2-0.2-0.2c-0.1,0-0.2,0.1-0.2,0.2C205.2,183.1,205.3,183.2,205.4,183.2z"
		/>
	<circle cx="206.5" cy="183.2" r="0.2"/>
	<path d="M204.2,182.8c0.1,0,0.2-0.1,0.2-0.2c0-0.1-0.1-0.2-0.2-0.2c-0.1,0-0.2,0.1-0.2,0.2C204,182.7,204.1,182.8,204.2,182.8z"/>
	<path d="M217.6,183.5c0.1,0,0.2-0.1,0.2-0.2c0-0.1-0.1-0.2-0.2-0.2c-0.1,0-0.2,0.1-0.2,0.2C217.4,183.4,217.5,183.5,217.6,183.5z"
		/>
	<circle cx="215.2" cy="183.7" r="0.2"/>
	<path d="M212.5,184.1c0.1,0,0.2-0.1,0.2-0.2c0-0.1-0.1-0.2-0.2-0.2c-0.1,0-0.2,0.1-0.2,0.2C212.3,184,212.4,184.1,212.5,184.1z"/>
	<path d="M210.2,184.1c0.1,0,0.2-0.1,0.2-0.2c0-0.1-0.1-0.2-0.2-0.2c-0.1,0-0.2,0.1-0.2,0.2C209.9,184,210,184.1,210.2,184.1z"/>
	<path d="M221.2,183.5c0.1,0,0.2-0.1,0.2-0.2c0-0.1-0.1-0.2-0.2-0.2c-0.1,0-0.2,0.1-0.2,0.2C221,183.4,221.1,183.5,221.2,183.5z"/>
	<circle cx="220.1" cy="183.6" r="0.2"/>
	<circle cx="218.8" cy="184" r="0.2"/>
	<circle cx="216.5" cy="184.5" r="0.2"/>
	<circle cx="214" cy="184.8" r="0.2"/>
	<path d="M211.4,185.1c0.1,0,0.2-0.1,0.2-0.2c0-0.1-0.1-0.2-0.2-0.2c-0.1,0-0.2,0.1-0.2,0.2C211.2,185,211.3,185.1,211.4,185.1z"/>
	<circle cx="207.7" cy="184.4" r="0.2"/>
	<path d="M208.9,184.9c0.1,0,0.2-0.1,0.2-0.2c0-0.1-0.1-0.2-0.2-0.2s-0.2,0.1-0.2,0.2C208.7,184.8,208.8,184.9,208.9,184.9z"/>
	<circle cx="205.4" cy="184" r="0.2"/>
	<circle cx="206.5" cy="184.2" r="0.2"/>
	<circle cx="204.2" cy="183.6" r="0.2"/>
	<path d="M217.6,184.5c0.1,0,0.2-0.1,0.2-0.2c0-0.1-0.1-0.2-0.2-0.2c-0.1,0-0.2,0.1-0.2,0.2C217.4,184.4,217.5,184.5,217.6,184.5z"
		/>
	<path d="M215.2,184.9c0.1,0,0.2-0.1,0.2-0.2c0-0.1-0.1-0.2-0.2-0.2s-0.2,0.1-0.2,0.2C215,184.8,215.1,184.9,215.2,184.9z"/>
	<path d="M212.5,185.1c0.1,0,0.2-0.1,0.2-0.2c0-0.1-0.1-0.2-0.2-0.2c-0.1,0-0.2,0.1-0.2,0.2C212.3,185,212.4,185.1,212.5,185.1z"/>
	<path d="M210.2,185.1c0.1,0,0.2-0.1,0.2-0.2c0-0.1-0.1-0.2-0.2-0.2c-0.1,0-0.2,0.1-0.2,0.2C209.9,185,210,185.1,210.2,185.1z"/>
	<path d="M221.2,184.5c0.1,0,0.2-0.1,0.2-0.2c0-0.1-0.1-0.2-0.2-0.2c-0.1,0-0.2,0.1-0.2,0.2C221,184.4,221.1,184.5,221.2,184.5z"/>
	<path d="M220.1,184.8c0.1,0,0.2-0.1,0.2-0.2c0-0.1-0.1-0.2-0.2-0.2s-0.2,0.1-0.2,0.2C219.9,184.7,220,184.8,220.1,184.8z"/>
	<path d="M218.8,185.2c0.1,0,0.2-0.1,0.2-0.2c0-0.1-0.1-0.2-0.2-0.2c-0.1,0-0.2,0.1-0.2,0.2C218.6,185.1,218.7,185.2,218.8,185.2z"
		/>
	<path d="M216.5,185.7c0.1,0,0.2-0.1,0.2-0.2c0-0.1-0.1-0.2-0.2-0.2c-0.1,0-0.2,0.1-0.2,0.2C216.2,185.6,216.3,185.7,216.5,185.7z"
		/>
	<circle cx="214" cy="185.8" r="0.2"/>
	<path d="M211.4,186.2c0.1,0,0.2-0.1,0.2-0.2c0-0.1-0.1-0.2-0.2-0.2c-0.1,0-0.2,0.1-0.2,0.2C211.2,186.1,211.3,186.2,211.4,186.2z"
		/>
	<path d="M207.7,185.6c0.1,0,0.2-0.1,0.2-0.2c0-0.1-0.1-0.2-0.2-0.2c-0.1,0-0.2,0.1-0.2,0.2C207.5,185.6,207.6,185.6,207.7,185.6z"
		/>
	<circle cx="208.9" cy="185.7" r="0.2"/>
	<path d="M205.4,185.2c0.1,0,0.2-0.1,0.2-0.2c0-0.1-0.1-0.2-0.2-0.2c-0.1,0-0.2,0.1-0.2,0.2C205.2,185.1,205.3,185.2,205.4,185.2z"
		/>
	<circle cx="206.5" cy="185.2" r="0.2"/>
	<path d="M204.2,184.8c0.1,0,0.2-0.1,0.2-0.2c0-0.1-0.1-0.2-0.2-0.2c-0.1,0-0.2,0.1-0.2,0.2C204,184.7,204.1,184.8,204.2,184.8z"/>
	<path d="M217.6,185.5c0.1,0,0.2-0.1,0.2-0.2s-0.1-0.2-0.2-0.2c-0.1,0-0.2,0.1-0.2,0.2S217.5,185.5,217.6,185.5z"/>
	<circle cx="215.2" cy="185.7" r="0.2"/>
	<path d="M212.5,186.2c0.1,0,0.2-0.1,0.2-0.2c0-0.1-0.1-0.2-0.2-0.2c-0.1,0-0.2,0.1-0.2,0.2C212.3,186.1,212.4,186.2,212.5,186.2z"
		/>
	<path d="M210.2,186.2c0.1,0,0.2-0.1,0.2-0.2c0-0.1-0.1-0.2-0.2-0.2c-0.1,0-0.2,0.1-0.2,0.2C209.9,186.1,210,186.2,210.2,186.2z"/>
	<path d="M221.2,185.5c0.1,0,0.2-0.1,0.2-0.2c0-0.1-0.1-0.2-0.2-0.2c-0.1,0-0.2,0.1-0.2,0.2C221,185.5,221.1,185.5,221.2,185.5z"/>
	<circle cx="220.1" cy="185.6" r="0.2"/>
	<circle cx="218.8" cy="186.1" r="0.2"/>
	<circle cx="216.5" cy="186.6" r="0.2"/>
	<path d="M214,187.1c0.1,0,0.2-0.1,0.2-0.2s-0.1-0.2-0.2-0.2s-0.2,0.1-0.2,0.2S213.9,187.1,214,187.1z"/>
	<path d="M211.4,187.2c0.1,0,0.2-0.1,0.2-0.2s-0.1-0.2-0.2-0.2c-0.1,0-0.2,0.1-0.2,0.2S211.3,187.2,211.4,187.2z"/>
	<path d="M207.7,186.7c0.1,0,0.2-0.1,0.2-0.2c0-0.1-0.1-0.2-0.2-0.2c-0.1,0-0.2,0.1-0.2,0.2C207.5,186.6,207.6,186.7,207.7,186.7z"
		/>
	<path d="M208.9,187c0.1,0,0.2-0.1,0.2-0.2c0-0.1-0.1-0.2-0.2-0.2s-0.2,0.1-0.2,0.2C208.7,186.9,208.8,187,208.9,187z"/>
	<circle cx="205.4" cy="186.1" r="0.2"/>
	<path d="M206.5,186.5c0.1,0,0.2-0.1,0.2-0.2c0-0.1-0.1-0.2-0.2-0.2c-0.1,0-0.2,0.1-0.2,0.2C206.3,186.4,206.4,186.5,206.5,186.5z"
		/>
	<circle cx="204.2" cy="185.6" r="0.2"/>
	<path d="M217.6,186.6c0.1,0,0.2-0.1,0.2-0.2c0-0.1-0.1-0.2-0.2-0.2c-0.1,0-0.2,0.1-0.2,0.2C217.4,186.5,217.5,186.6,217.6,186.6z"
		/>
	<path d="M215.2,187c0.1,0,0.2-0.1,0.2-0.2c0-0.1-0.1-0.2-0.2-0.2s-0.2,0.1-0.2,0.2C215,186.9,215.1,187,215.2,187z"/>
	<circle cx="212.5" cy="187" r="0.2"/>
	<circle cx="210.2" cy="187" r="0.2"/>
	<path d="M221.2,186.6c0.1,0,0.2-0.1,0.2-0.2s-0.1-0.2-0.2-0.2c-0.1,0-0.2,0.1-0.2,0.2S221.1,186.6,221.2,186.6z"/>
	<path d="M220.1,186.9c0.1,0,0.2-0.1,0.2-0.2s-0.1-0.2-0.2-0.2s-0.2,0.1-0.2,0.2S220,186.9,220.1,186.9z"/>
	<path d="M218.8,187.3c0.1,0,0.2-0.1,0.2-0.2c0-0.1-0.1-0.2-0.2-0.2c-0.1,0-0.2,0.1-0.2,0.2C218.6,187.2,218.7,187.3,218.8,187.3z"
		/>
	<path d="M216.5,187.8c0.1,0,0.2-0.1,0.2-0.2c0-0.1-0.1-0.2-0.2-0.2c-0.1,0-0.2,0.1-0.2,0.2C216.2,187.7,216.3,187.8,216.5,187.8z"
		/>
	<path d="M214,188.1c0.1,0,0.2-0.1,0.2-0.2c0-0.1-0.1-0.2-0.2-0.2s-0.2,0.1-0.2,0.2C213.8,188,213.9,188.1,214,188.1z"/>
	<path d="M211.4,188.2c0.1,0,0.2-0.1,0.2-0.2c0-0.1-0.1-0.2-0.2-0.2c-0.1,0-0.2,0.1-0.2,0.2C211.2,188.1,211.3,188.2,211.4,188.2z"
		/>
	<path d="M207.7,187.7c0.1,0,0.2-0.1,0.2-0.2c0-0.1-0.1-0.2-0.2-0.2c-0.1,0-0.2,0.1-0.2,0.2C207.5,187.6,207.6,187.7,207.7,187.7z"
		/>
	<circle cx="208.9" cy="187.8" r="0.2"/>
	<path d="M205.4,187.3c0.1,0,0.2-0.1,0.2-0.2c0-0.1-0.1-0.2-0.2-0.2c-0.1,0-0.2,0.1-0.2,0.2C205.2,187.2,205.3,187.3,205.4,187.3z"
		/>
	<circle cx="206.5" cy="187.3" r="0.2"/>
	<path d="M204.2,186.9c0.1,0,0.2-0.1,0.2-0.2s-0.1-0.2-0.2-0.2c-0.1,0-0.2,0.1-0.2,0.2S204.1,186.9,204.2,186.9z"/>
	<path d="M217.6,187.6c0.1,0,0.2-0.1,0.2-0.2c0-0.1-0.1-0.2-0.2-0.2c-0.1,0-0.2,0.1-0.2,0.2C217.4,187.5,217.5,187.6,217.6,187.6z"
		/>
	<circle cx="215.2" cy="187.8" r="0.2"/>
	<path d="M212.5,188.2c0.1,0,0.2-0.1,0.2-0.2c0-0.1-0.1-0.2-0.2-0.2c-0.1,0-0.2,0.1-0.2,0.2C212.3,188.1,212.4,188.2,212.5,188.2z"
		/>
	<path d="M210.2,188.2c0.1,0,0.2-0.1,0.2-0.2c0-0.1-0.1-0.2-0.2-0.2c-0.1,0-0.2,0.1-0.2,0.2C209.9,188.1,210,188.2,210.2,188.2z"/>
	<path d="M221.2,187.6c0.1,0,0.2-0.1,0.2-0.2c0-0.1-0.1-0.2-0.2-0.2c-0.1,0-0.2,0.1-0.2,0.2C221,187.5,221.1,187.6,221.2,187.6z"/>
	<circle cx="220.1" cy="187.7" r="0.2"/>
	<circle cx="218.8" cy="188.1" r="0.2"/>
	<circle cx="216.5" cy="188.6" r="0.2"/>
	<circle cx="214" cy="188.9" r="0.2"/>
	<path d="M211.4,189.2c0.1,0,0.2-0.1,0.2-0.2c0-0.1-0.1-0.2-0.2-0.2c-0.1,0-0.2,0.1-0.2,0.2C211.2,189.2,211.3,189.2,211.4,189.2z"
		/>
	<circle cx="207.7" cy="188.5" r="0.2"/>
	<path d="M208.9,189c0.1,0,0.2-0.1,0.2-0.2c0-0.1-0.1-0.2-0.2-0.2s-0.2,0.1-0.2,0.2C208.7,188.9,208.8,189,208.9,189z"/>
	<circle cx="205.4" cy="188.1" r="0.2"/>
	<path d="M206.5,188.5c0.1,0,0.2-0.1,0.2-0.2s-0.1-0.2-0.2-0.2c-0.1,0-0.2,0.1-0.2,0.2S206.4,188.5,206.5,188.5z"/>
	<circle cx="204.2" cy="187.7" r="0.2"/>
	<path d="M217.6,188.6c0.1,0,0.2-0.1,0.2-0.2c0-0.1-0.1-0.2-0.2-0.2c-0.1,0-0.2,0.1-0.2,0.2C217.4,188.5,217.5,188.6,217.6,188.6z"
		/>
	<path d="M215.2,189c0.1,0,0.2-0.1,0.2-0.2c0-0.1-0.1-0.2-0.2-0.2s-0.2,0.1-0.2,0.2C215,188.9,215.1,189,215.2,189z"/>
	<path d="M212.5,189.2c0.1,0,0.2-0.1,0.2-0.2c0-0.1-0.1-0.2-0.2-0.2c-0.1,0-0.2,0.1-0.2,0.2C212.3,189.2,212.4,189.2,212.5,189.2z"
		/>
	<path d="M210.2,189.2c0.1,0,0.2-0.1,0.2-0.2c0-0.1-0.1-0.2-0.2-0.2c-0.1,0-0.2,0.1-0.2,0.2C209.9,189.2,210,189.2,210.2,189.2z"/>
	<path d="M221.2,188.6c0.1,0,0.2-0.1,0.2-0.2c0-0.1-0.1-0.2-0.2-0.2c-0.1,0-0.2,0.1-0.2,0.2C221,188.5,221.1,188.6,221.2,188.6z"/>
	<path d="M220.1,188.9c0.1,0,0.2-0.1,0.2-0.2c0-0.1-0.1-0.2-0.2-0.2s-0.2,0.1-0.2,0.2C219.9,188.8,220,188.9,220.1,188.9z"/>
	<path d="M218.8,189.3c0.1,0,0.2-0.1,0.2-0.2c0-0.1-0.1-0.2-0.2-0.2c-0.1,0-0.2,0.1-0.2,0.2C218.6,189.3,218.7,189.3,218.8,189.3z"
		/>
	<path d="M216.5,189.9c0.1,0,0.2-0.1,0.2-0.2c0-0.1-0.1-0.2-0.2-0.2c-0.1,0-0.2,0.1-0.2,0.2C216.2,189.8,216.3,189.9,216.5,189.9z"
		/>
	<circle cx="214" cy="189.9" r="0.2"/>
	<path d="M211.4,190.3c0.1,0,0.2-0.1,0.2-0.2c0-0.1-0.1-0.2-0.2-0.2c-0.1,0-0.2,0.1-0.2,0.2C211.2,190.2,211.3,190.3,211.4,190.3z"
		/>
	<circle cx="207.7" cy="189.6" r="0.2"/>
	<circle cx="208.9" cy="189.9" r="0.2"/>
	<path d="M205.4,189.3c0.1,0,0.2-0.1,0.2-0.2c0-0.1-0.1-0.2-0.2-0.2c-0.1,0-0.2,0.1-0.2,0.2C205.2,189.3,205.3,189.3,205.4,189.3z"
		/>
	<circle cx="206.5" cy="189.3" r="0.2"/>
	<path d="M204.2,188.9c0.1,0,0.2-0.1,0.2-0.2c0-0.1-0.1-0.2-0.2-0.2c-0.1,0-0.2,0.1-0.2,0.2C204,188.8,204.1,188.9,204.2,188.9z"/>
	<path d="M217.6,189.6c0.1,0,0.2-0.1,0.2-0.2c0-0.1-0.1-0.2-0.2-0.2c-0.1,0-0.2,0.1-0.2,0.2C217.4,189.6,217.5,189.6,217.6,189.6z"
		/>
	<circle cx="215.2" cy="189.9" r="0.2"/>
	<path d="M212.5,190.3c0.1,0,0.2-0.1,0.2-0.2c0-0.1-0.1-0.2-0.2-0.2c-0.1,0-0.2,0.1-0.2,0.2C212.3,190.2,212.4,190.3,212.5,190.3z"
		/>
	<path d="M210.2,190.3c0.1,0,0.2-0.1,0.2-0.2c0-0.1-0.1-0.2-0.2-0.2c-0.1,0-0.2,0.1-0.2,0.2C209.9,190.2,210,190.3,210.2,190.3z"/>
	<path d="M221.2,189.7c0.1,0,0.2-0.1,0.2-0.2c0-0.1-0.1-0.2-0.2-0.2c-0.1,0-0.2,0.1-0.2,0.2C221,189.6,221.1,189.7,221.2,189.7z"/>
	<circle cx="220.1" cy="189.8" r="0.2"/>
	<circle cx="218.8" cy="190.2" r="0.2"/>
	<circle cx="216.5" cy="190.7" r="0.2"/>
	<circle cx="214" cy="191" r="0.2"/>
	<path d="M211.4,190.9c-0.1,0-0.2,0.1-0.2,0.2c0,0.1,0.1,0.2,0.2,0.2c0.1,0,0.2-0.1,0.2-0.2C211.6,191,211.5,190.9,211.4,190.9z"/>
	<path d="M207.7,190.4c-0.1,0-0.2,0.1-0.2,0.2c0,0.1,0.1,0.2,0.2,0.2c0.1,0,0.2-0.1,0.2-0.2C207.9,190.5,207.8,190.4,207.7,190.4z"
		/>
	<path d="M208.9,190.7c-0.1,0-0.2,0.1-0.2,0.2s0.1,0.2,0.2,0.2s0.2-0.1,0.2-0.2S209.1,190.7,208.9,190.7z"/>
	<circle cx="205.4" cy="190.2" r="0.2"/>
	<path d="M206.5,190.2c-0.1,0-0.2,0.1-0.2,0.2c0,0.1,0.1,0.2,0.2,0.2c0.1,0,0.2-0.1,0.2-0.2C206.7,190.3,206.7,190.2,206.5,190.2z"
		/>
	<circle cx="204.2" cy="189.8" r="0.2"/>
	<path d="M217.6,190.7c0.1,0,0.2-0.1,0.2-0.2c0-0.1-0.1-0.2-0.2-0.2c-0.1,0-0.2,0.1-0.2,0.2C217.4,190.6,217.5,190.7,217.6,190.7z"
		/>
	<path d="M215.2,191.1c0.1,0,0.2-0.1,0.2-0.2s-0.1-0.2-0.2-0.2s-0.2,0.1-0.2,0.2S215.1,191.1,215.2,191.1z"/>
	<circle cx="212.5" cy="191.1" r="0.2"/>
	<circle cx="210.2" cy="191.1" r="0.2"/>
	<path d="M221.2,190.7c0.1,0,0.2-0.1,0.2-0.2s-0.1-0.2-0.2-0.2c-0.1,0-0.2,0.1-0.2,0.2S221.1,190.7,221.2,190.7z"/>
	<path d="M220.1,191c0.1,0,0.2-0.1,0.2-0.2c0-0.1-0.1-0.2-0.2-0.2s-0.2,0.1-0.2,0.2C219.9,190.9,220,191,220.1,191z"/>
	<path d="M218.8,191.4c0.1,0,0.2-0.1,0.2-0.2c0-0.1-0.1-0.2-0.2-0.2c-0.1,0-0.2,0.1-0.2,0.2C218.6,191.3,218.7,191.4,218.8,191.4z"
		/>
	<path d="M216.5,191.9c0.1,0,0.2-0.1,0.2-0.2c0-0.1-0.1-0.2-0.2-0.2c-0.1,0-0.2,0.1-0.2,0.2C216.2,191.8,216.3,191.9,216.5,191.9z"
		/>
	<path d="M214,191.8c-0.1,0-0.2,0.1-0.2,0.2c0,0.1,0.1,0.2,0.2,0.2s0.2-0.1,0.2-0.2C214.2,191.9,214.1,191.8,214,191.8z"/>
	<path d="M211.4,191.9c-0.1,0-0.2,0.1-0.2,0.2s0.1,0.2,0.2,0.2c0.1,0,0.2-0.1,0.2-0.2S211.5,191.9,211.4,191.9z"/>
	<path d="M207.7,191.4c-0.1,0-0.2,0.1-0.2,0.2c0,0.1,0.1,0.2,0.2,0.2c0.1,0,0.2-0.1,0.2-0.2C207.9,191.5,207.8,191.4,207.7,191.4z"
		/>
	<circle cx="208.9" cy="191.9" r="0.2"/>
	<path d="M205.4,191c-0.1,0-0.2,0.1-0.2,0.2c0,0.1,0.1,0.2,0.2,0.2c0.1,0,0.2-0.1,0.2-0.2C205.6,191.1,205.6,191,205.4,191z"/>
	<circle cx="206.5" cy="191.4" r="0.2"/>
	<path d="M204.2,190.6c-0.1,0-0.2,0.1-0.2,0.2c0,0.1,0.1,0.2,0.2,0.2c0.1,0,0.2-0.1,0.2-0.2C204.4,190.7,204.3,190.6,204.2,190.6z"
		/>
	<path d="M217.6,191.7c0.1,0,0.2-0.1,0.2-0.2s-0.1-0.2-0.2-0.2c-0.1,0-0.2,0.1-0.2,0.2S217.5,191.7,217.6,191.7z"/>
	<circle cx="215.2" cy="191.9" r="0.2"/>
	<circle cx="212.5" cy="192.1" r="0.2"/>
	<circle cx="210.2" cy="192.1" r="0.2"/>
	<path d="M221.2,191.7c0.1,0,0.2-0.1,0.2-0.2c0-0.1-0.1-0.2-0.2-0.2c-0.1,0-0.2,0.1-0.2,0.2C221,191.6,221.1,191.7,221.2,191.7z"/>
	<circle cx="220.1" cy="191.8" r="0.2"/>
	<circle cx="218.8" cy="192.2" r="0.2"/>
	<circle cx="216.5" cy="192.7" r="0.2"/>
	<path d="M214,192.8c-0.1,0-0.2,0.1-0.2,0.2c0,0.1,0.1,0.2,0.2,0.2s0.2-0.1,0.2-0.2C214.2,192.9,214.1,192.8,214,192.8z"/>
	<path d="M211.4,192.9c-0.1,0-0.2,0.1-0.2,0.2c0,0.1,0.1,0.2,0.2,0.2c0.1,0,0.2-0.1,0.2-0.2C211.6,193,211.5,192.9,211.4,192.9z"/>
	<path d="M207.7,192.4c-0.1,0-0.2,0.1-0.2,0.2s0.1,0.2,0.2,0.2c0.1,0,0.2-0.1,0.2-0.2S207.8,192.4,207.7,192.4z"/>
	<path d="M208.9,192.7c-0.1,0-0.2,0.1-0.2,0.2c0,0.1,0.1,0.2,0.2,0.2s0.2-0.1,0.2-0.2C209.2,192.8,209.1,192.7,208.9,192.7z"/>
	<circle cx="205.4" cy="192.2" r="0.2"/>
	<path d="M206.5,192.2c-0.1,0-0.2,0.1-0.2,0.2c0,0.1,0.1,0.2,0.2,0.2c0.1,0,0.2-0.1,0.2-0.2C206.7,192.3,206.7,192.2,206.5,192.2z"
		/>
	<circle cx="204.2" cy="191.8" r="0.2"/>
	<path d="M217.6,192.7c0.1,0,0.2-0.1,0.2-0.2c0-0.1-0.1-0.2-0.2-0.2c-0.1,0-0.2,0.1-0.2,0.2C217.4,192.6,217.5,192.7,217.6,192.7z"
		/>
	<path d="M215.2,192.7c-0.1,0-0.2,0.1-0.2,0.2c0,0.1,0.1,0.2,0.2,0.2s0.2-0.1,0.2-0.2C215.4,192.8,215.3,192.7,215.2,192.7z"/>
	<circle cx="212.5" cy="193.2" r="0.2"/>
	<circle cx="210.2" cy="193.2" r="0.2"/>
	<path class="st5" d="M121.9,58.8c-0.9-1.1-1.4-2.3-1.7-3.5l-0.2-0.5L119.7,65c6.8-3.8,11.9,4.9,11.9,4.9c-0.8,0.4-1.3,1-1.6,1.8
		c0.5,0.5,0.9,1.1,1.4,1.8c3.1,4.6,9.9,6,11.4,6.3c0.2,0,0.3,0,0.3,0s6.5-3.8,6.7-8.7c0.1-2.7-0.7-4-1.5-4.7
		c2.2,0.7,4.6-0.7,4.6-0.7s-4.1-1.6-5.5-6.6c-1.4-5-5.9-5.7-5.9-5.7c2.4-1.4,1.2-6.1,1.2-6.1c-0.4,2-5.3,1.7-5.3,1.7
		c-10.5-2-15.1,1-17.2,4.5c0,0.6,0,1.2,0.2,1.8L121.9,58.8z"/>
	<path class="st5" d="M119.8,54.1C119.8,54.1,119.8,54.1,119.8,54.1C119.8,54.2,119.8,54.2,119.8,54.1
		C119.8,54.2,119.8,54.1,119.8,54.1z"/>
	<path class="st5" d="M120.5,69.1c0.1,0,0.2,0.1,0.3,0.1c0.2,0.1,0.4,0.2,0.6,0.2c-0.2-0.5-0.2-0.9-0.2-0.9
		C120.9,68.7,120.7,68.9,120.5,69.1z"/>
	<path class="st5" d="M112.3,73c-0.1-0.3-0.3-0.6-0.5-0.7c-1.1-0.7,6.1-8.2,6.1-8.2l-0.4,2.5c0.7-0.6,1.4-1.1,2-1.5l0.4-10.3
		l-0.1-0.2c0,0-0.1-0.1-0.1-0.3c0,0,0,0-0.1,0c-1.2-0.5-5.6-1.7-9.2,3.2c-4.2,5.8-6.4,5.2-6.4,5.2s2.3,1.3,3.3,0.9c0,0-2.5,8.9,1,16
		c0.1,0.2,0.2,0.3,0.2,0.5C108.7,79.9,110,76.4,112.3,73z"/>
	<path class="st5" d="M131.5,70c0,0-5-8.8-11.9-4.9c-0.7,0.4-1.3,0.9-2,1.5l-0.4,2.9c0.1,2,0.6,4.8,2.9,6.2c0,0-1.5-4.5,0.5-6.5
		c0.2-0.2,0.4-0.4,0.7-0.5c0,0,0.1,0.3,0.2,0.9c0.6,1.8,2.5,5.8,8.2,7.8c0,0-0.6-3.2,0.3-5.5C130.3,71,130.8,70.3,131.5,70z"/>
	<path class="st5" d="M117.6,66.5l0.4-2.5c0,0-7.3,7.6-6.1,8.2c0.2,0.1,0.4,0.4,0.5,0.7c0.5,1.4,0,4,0,4c2.9-1,4.9-7.5,4.9-7.5l0,0
		L117.6,66.5z"/>
	<path class="st5" d="M120.3,55.2c0.2,1.2,0.7,2.4,1.7,3.5L120.3,55.2z"/>
	<path class="st5" d="M119.9,54.5l0.1,0.2l0.2,0.5c-0.1-0.6-0.2-1.2-0.2-1.8c0-4.1,2.6-7.8,2.6-7.8c-4.8,2.2-3.4,7-2.9,8.5
		c0,0,0,0,0,0.1C119.9,54.4,119.9,54.5,119.9,54.5z"/>
</g>
</svg>
